M48
;GenerationSoftware,Autodesk,EAGLE,9.6.2*%
;CreationDate,2026-02-23T11:14:49Z*%
FMAT,2
ICI,OFF
METRIC,TZ,000.000
T3C0.500
T2C0.550
T1C1.000
%
G90
M71
T1
X49530Y13970
X24130Y16510
X21590Y16510
X16510Y16510
X13970Y16510
X11430Y16510
X8890Y16510
X29210Y1270
X6350Y16510
X3810Y16510
X49530Y3810
X49530Y6350
X49530Y8890
X49530Y11430
X1270Y16510
X1270Y7620
X1270Y10160
X1270Y1270
X3810Y1270
X6350Y1270
X8890Y1270
X11430Y1270
X13970Y1270
X16510Y1270
X19050Y1270
X21590Y1270
X24130Y1270
X26670Y1270
X19050Y16510
X31750Y1270
X34290Y1270
X36830Y1270
X39370Y1270
X41910Y1270
X44450Y1270
X46990Y1270
X49530Y1270
X49530Y16510
X46990Y16510
X44450Y16510
X41910Y16510
X39370Y16510
X36830Y16510
X34290Y16510
X31750Y16510
X29210Y16510
X26670Y16510
T2
X44450Y12700
X44450Y7620
X37719Y12954
T3
X15210Y14605
X17780Y7874
X10160Y6223
X19110Y9144
X12700Y12954
X11430Y7620
X15158Y9906
M30