G04 EAGLE Gerber RS-274X export*
G75*
%MOMM*%
%FSLAX34Y34*%
%LPD*%
%INTop Copper*%
%IPPOS*%
%AMOC8*
5,1,8,0,0,1.08239X$1,22.5*%
G01*
%ADD10R,0.300000X1.600000*%
%ADD11P,1.632244X8X112.500000*%
%ADD12P,1.632244X8X22.500000*%
%ADD13P,1.632244X8X202.500000*%
%ADD14C,1.500000*%
%ADD15C,0.906400*%
%ADD16C,0.956400*%
%ADD17C,1.473200*%
%ADD18C,0.299975*%
%ADD19C,0.906400*%
%ADD20C,0.254000*%
%ADD21C,0.381000*%
%ADD22C,1.016000*%


D10*
X145600Y60650D03*
X152100Y60650D03*
X158600Y60650D03*
X165100Y60650D03*
X171600Y60650D03*
X178100Y60650D03*
X184600Y60650D03*
X191100Y60650D03*
X197600Y60650D03*
X204100Y60650D03*
X145600Y116650D03*
X152100Y116650D03*
X158600Y116650D03*
X165100Y116650D03*
X171600Y116650D03*
X178100Y116650D03*
X184600Y116650D03*
X191100Y116650D03*
X197600Y116650D03*
X204100Y116650D03*
D11*
X495300Y38100D03*
X495300Y63500D03*
X495300Y88900D03*
X495300Y114300D03*
X495300Y139700D03*
D12*
X12700Y76200D03*
X12700Y101600D03*
X12700Y12700D03*
X38100Y12700D03*
X63500Y12700D03*
X88900Y12700D03*
X114300Y12700D03*
X139700Y12700D03*
X165100Y12700D03*
X190500Y12700D03*
X215900Y12700D03*
X241300Y12700D03*
X266700Y12700D03*
X292100Y12700D03*
X317500Y12700D03*
X342900Y12700D03*
X368300Y12700D03*
X393700Y12700D03*
X419100Y12700D03*
X444500Y12700D03*
X469900Y12700D03*
X495300Y12700D03*
D13*
X495300Y165100D03*
X469900Y165100D03*
X444500Y165100D03*
X419100Y165100D03*
X393700Y165100D03*
X368300Y165100D03*
X342900Y165100D03*
X317500Y165100D03*
X292100Y165100D03*
X266700Y165100D03*
X241300Y165100D03*
X215900Y165100D03*
X190500Y165100D03*
X165100Y165100D03*
X139700Y165100D03*
X114300Y165100D03*
X88900Y165100D03*
X63500Y165100D03*
X38100Y165100D03*
X12700Y165100D03*
D14*
X394970Y129540D03*
X109220Y129540D03*
D15*
X151580Y99060D03*
D16*
X444500Y127000D03*
D17*
X444500Y76200D01*
X444500Y57150D02*
X463550Y38100D01*
X444500Y57150D02*
X444500Y76200D01*
D16*
X444500Y76200D03*
D17*
X463550Y38100D02*
X495300Y38100D01*
D18*
X158600Y106080D02*
X151580Y99060D01*
X158600Y106080D02*
X158600Y116650D01*
D17*
X495300Y38100D02*
X495300Y12700D01*
D15*
X152100Y146050D03*
D18*
X152100Y139700D02*
X152100Y116650D01*
D19*
X152100Y139700D02*
X152100Y146050D01*
X19050Y146050D01*
X12700Y152400D01*
X12700Y165100D01*
D20*
X218440Y78740D02*
X256540Y40640D01*
X218440Y78740D02*
X205326Y78740D01*
X256540Y40640D02*
X256540Y22860D01*
X266700Y12700D01*
X205326Y78740D02*
X197600Y71014D01*
X197600Y60650D01*
X207822Y73660D02*
X216336Y73660D01*
X251460Y38536D02*
X251460Y22860D01*
X241300Y12700D01*
X251460Y38536D02*
X216336Y73660D01*
X207822Y73660D02*
X204100Y69938D01*
X204100Y60650D01*
D15*
X177800Y78740D03*
X101600Y62230D03*
D20*
X49530Y62230D01*
X12700Y25400D02*
X12700Y12700D01*
X177800Y78740D02*
X184600Y71940D01*
X184600Y60650D01*
X49530Y62230D02*
X12700Y25400D01*
D15*
X191100Y91440D03*
X114300Y76200D03*
D20*
X105410Y50800D02*
X63500Y50800D01*
X114300Y59690D02*
X114300Y76200D01*
X114300Y59690D02*
X105410Y50800D01*
X191100Y60650D02*
X191100Y91440D01*
X38100Y25400D02*
X38100Y12700D01*
X38100Y25400D02*
X63500Y50800D01*
X79820Y41720D02*
X63500Y25400D01*
X142642Y87482D02*
X152252Y87482D01*
X63500Y25400D02*
X63500Y12700D01*
X79820Y41720D02*
X106152Y41720D01*
X127070Y71910D02*
X142642Y87482D01*
X127070Y62639D02*
X106152Y41720D01*
X127070Y62639D02*
X127070Y71910D01*
X165100Y100330D02*
X165100Y116650D01*
X165100Y100330D02*
X152252Y87482D01*
X154630Y82240D02*
X144798Y82240D01*
X88900Y25400D02*
X88900Y12700D01*
X88900Y25400D02*
X93790Y30290D01*
X132150Y69592D02*
X144798Y82240D01*
X104446Y30290D02*
X93790Y30290D01*
X132150Y57994D02*
X132150Y69592D01*
X132150Y57994D02*
X104446Y30290D01*
X171600Y99210D02*
X171600Y116650D01*
X171600Y99210D02*
X154630Y82240D01*
X114300Y25340D02*
X114300Y12700D01*
X114300Y25340D02*
X119440Y30480D01*
X133350Y30480D01*
X152100Y49230D02*
X152100Y60650D01*
X152100Y49230D02*
X133350Y30480D01*
X139700Y25400D02*
X139700Y12700D01*
X139700Y25400D02*
X158600Y44300D01*
X158600Y60650D01*
X165100Y60650D02*
X165100Y12700D01*
X190500Y12700D02*
X190500Y25400D01*
X171600Y44300D02*
X171600Y60650D01*
X171600Y44300D02*
X190500Y25400D01*
X215900Y25400D02*
X215900Y12700D01*
X178100Y48948D02*
X178100Y60650D01*
X178100Y48948D02*
X196568Y30480D01*
X210820Y30480D02*
X215900Y25400D01*
X210820Y30480D02*
X196568Y30480D01*
X155584Y75890D02*
X148636Y75890D01*
X155584Y75890D02*
X180504Y100810D01*
X234724Y100810D01*
X292100Y43434D02*
X292100Y12700D01*
X292100Y43434D02*
X234724Y100810D01*
X145600Y72854D02*
X145600Y60650D01*
X145600Y72854D02*
X148636Y75890D01*
X206033Y128270D02*
X214630Y128270D01*
X317500Y25400D01*
X204100Y116650D02*
X204100Y126337D01*
X206033Y128270D01*
X317500Y25400D02*
X317500Y12700D01*
X319774Y30480D02*
X337820Y30480D01*
X319774Y30480D02*
X216904Y133350D01*
X203684Y133350D01*
X197600Y127266D01*
X342900Y25400D02*
X342900Y12700D01*
X197600Y116650D02*
X197600Y127266D01*
X337820Y30480D02*
X342900Y25400D01*
X219190Y138430D02*
X201366Y138430D01*
X219190Y138430D02*
X322060Y35560D01*
X358140Y35560D01*
X368300Y25400D02*
X368300Y12700D01*
X191100Y116650D02*
X191100Y128164D01*
X201366Y138430D01*
X358140Y35560D02*
X368300Y25400D01*
X221381Y143510D02*
X199120Y143510D01*
X184600Y128990D01*
X378206Y40894D02*
X393700Y25400D01*
X323997Y40894D02*
X221381Y143510D01*
X323997Y40894D02*
X378206Y40894D01*
X393700Y25400D02*
X393700Y12700D01*
X184600Y116650D02*
X184600Y128990D01*
X178100Y129752D02*
X196938Y148590D01*
X325882Y46228D02*
X398272Y46228D01*
X419100Y25400D01*
X223520Y148590D02*
X196938Y148590D01*
X223520Y148590D02*
X325882Y46228D01*
X419100Y25400D02*
X419100Y12700D01*
X178100Y116650D02*
X178100Y129752D01*
D15*
X127000Y129540D03*
D21*
X109220Y129540D01*
D22*
X127000Y129540D02*
X135919Y120621D01*
D18*
X137350Y116650D02*
X145600Y116650D01*
X135919Y118081D02*
X135919Y120621D01*
X135919Y118081D02*
X137350Y116650D01*
D16*
X377190Y129540D03*
D21*
X394970Y129540D01*
M02*
