G04 EAGLE Gerber RS-274X export*
G75*
%MOMM*%
%FSLAX34Y34*%
%LPD*%
%INSilkscreen Top*%
%IPPOS*%
%AMOC8*
5,1,8,0,0,1.08239X$1,22.5*%
G01*
%ADD10C,0.152400*%
%ADD11C,0.254000*%
%ADD12C,0.127000*%
%ADD13C,0.203200*%


D10*
X397764Y29972D02*
X389128Y29972D01*
X389128Y32371D01*
X389130Y32468D01*
X389136Y32564D01*
X389145Y32660D01*
X389159Y32756D01*
X389176Y32851D01*
X389198Y32945D01*
X389223Y33038D01*
X389251Y33131D01*
X389284Y33222D01*
X389320Y33311D01*
X389360Y33399D01*
X389403Y33486D01*
X389449Y33571D01*
X389499Y33653D01*
X389553Y33734D01*
X389609Y33812D01*
X389669Y33888D01*
X389731Y33962D01*
X389797Y34033D01*
X389865Y34101D01*
X389936Y34167D01*
X390010Y34229D01*
X390086Y34289D01*
X390164Y34345D01*
X390245Y34399D01*
X390328Y34449D01*
X390412Y34495D01*
X390499Y34538D01*
X390587Y34578D01*
X390676Y34614D01*
X390767Y34647D01*
X390860Y34675D01*
X390953Y34700D01*
X391047Y34722D01*
X391142Y34739D01*
X391238Y34753D01*
X391334Y34762D01*
X391430Y34768D01*
X391527Y34770D01*
X391624Y34768D01*
X391720Y34762D01*
X391816Y34753D01*
X391912Y34739D01*
X392007Y34722D01*
X392101Y34700D01*
X392194Y34675D01*
X392287Y34647D01*
X392378Y34614D01*
X392467Y34578D01*
X392555Y34538D01*
X392642Y34495D01*
X392727Y34449D01*
X392809Y34399D01*
X392890Y34345D01*
X392968Y34289D01*
X393044Y34229D01*
X393118Y34167D01*
X393189Y34101D01*
X393257Y34033D01*
X393323Y33962D01*
X393385Y33888D01*
X393445Y33812D01*
X393501Y33734D01*
X393555Y33653D01*
X393605Y33571D01*
X393651Y33486D01*
X393694Y33399D01*
X393734Y33311D01*
X393770Y33222D01*
X393803Y33131D01*
X393831Y33038D01*
X393856Y32945D01*
X393878Y32851D01*
X393895Y32756D01*
X393909Y32660D01*
X393918Y32564D01*
X393924Y32468D01*
X393926Y32371D01*
X393926Y29972D01*
X397764Y38616D02*
X397764Y41015D01*
X397762Y41112D01*
X397756Y41208D01*
X397747Y41304D01*
X397733Y41400D01*
X397716Y41495D01*
X397694Y41589D01*
X397669Y41682D01*
X397641Y41775D01*
X397608Y41866D01*
X397572Y41955D01*
X397532Y42043D01*
X397489Y42130D01*
X397443Y42215D01*
X397393Y42297D01*
X397339Y42378D01*
X397283Y42456D01*
X397223Y42532D01*
X397161Y42606D01*
X397095Y42677D01*
X397027Y42745D01*
X396956Y42811D01*
X396882Y42873D01*
X396806Y42933D01*
X396728Y42989D01*
X396647Y43043D01*
X396565Y43093D01*
X396480Y43139D01*
X396393Y43182D01*
X396305Y43222D01*
X396216Y43258D01*
X396125Y43291D01*
X396032Y43319D01*
X395939Y43344D01*
X395845Y43366D01*
X395750Y43383D01*
X395654Y43397D01*
X395558Y43406D01*
X395462Y43412D01*
X395365Y43414D01*
X395268Y43412D01*
X395172Y43406D01*
X395076Y43397D01*
X394980Y43383D01*
X394885Y43366D01*
X394791Y43344D01*
X394698Y43319D01*
X394605Y43291D01*
X394514Y43258D01*
X394425Y43222D01*
X394337Y43182D01*
X394250Y43139D01*
X394166Y43093D01*
X394083Y43043D01*
X394002Y42989D01*
X393924Y42933D01*
X393848Y42873D01*
X393774Y42811D01*
X393703Y42745D01*
X393635Y42677D01*
X393569Y42606D01*
X393507Y42532D01*
X393447Y42456D01*
X393391Y42378D01*
X393337Y42297D01*
X393287Y42215D01*
X393241Y42130D01*
X393198Y42043D01*
X393158Y41955D01*
X393122Y41866D01*
X393089Y41775D01*
X393061Y41682D01*
X393036Y41589D01*
X393014Y41495D01*
X392997Y41400D01*
X392983Y41304D01*
X392974Y41208D01*
X392968Y41112D01*
X392966Y41015D01*
X389128Y41495D02*
X389128Y38616D01*
X389128Y41495D02*
X389130Y41581D01*
X389136Y41667D01*
X389145Y41753D01*
X389159Y41838D01*
X389176Y41922D01*
X389197Y42006D01*
X389222Y42088D01*
X389250Y42169D01*
X389282Y42249D01*
X389318Y42328D01*
X389357Y42404D01*
X389400Y42479D01*
X389445Y42552D01*
X389494Y42623D01*
X389547Y42691D01*
X389602Y42758D01*
X389660Y42821D01*
X389721Y42882D01*
X389784Y42940D01*
X389851Y42995D01*
X389919Y43048D01*
X389990Y43097D01*
X390063Y43142D01*
X390138Y43185D01*
X390214Y43224D01*
X390293Y43260D01*
X390373Y43292D01*
X390454Y43320D01*
X390536Y43345D01*
X390620Y43366D01*
X390704Y43383D01*
X390789Y43397D01*
X390875Y43406D01*
X390961Y43412D01*
X391047Y43414D01*
X391133Y43412D01*
X391219Y43406D01*
X391305Y43397D01*
X391390Y43383D01*
X391474Y43366D01*
X391558Y43345D01*
X391640Y43320D01*
X391721Y43292D01*
X391801Y43260D01*
X391880Y43224D01*
X391956Y43185D01*
X392031Y43142D01*
X392104Y43097D01*
X392175Y43048D01*
X392243Y42995D01*
X392310Y42940D01*
X392373Y42882D01*
X392434Y42821D01*
X392492Y42758D01*
X392547Y42691D01*
X392600Y42623D01*
X392649Y42552D01*
X392694Y42479D01*
X392737Y42404D01*
X392776Y42328D01*
X392812Y42249D01*
X392844Y42169D01*
X392872Y42088D01*
X392897Y42006D01*
X392918Y41922D01*
X392935Y41838D01*
X392949Y41753D01*
X392958Y41667D01*
X392964Y41581D01*
X392966Y41495D01*
X392966Y39576D01*
X397284Y47176D02*
X397764Y47176D01*
X397284Y47176D02*
X397284Y47656D01*
X397764Y47656D01*
X397764Y47176D01*
X392966Y51418D02*
X392966Y54297D01*
X392968Y54383D01*
X392974Y54469D01*
X392983Y54555D01*
X392997Y54640D01*
X393014Y54724D01*
X393035Y54808D01*
X393060Y54890D01*
X393088Y54971D01*
X393120Y55051D01*
X393156Y55130D01*
X393195Y55206D01*
X393238Y55281D01*
X393283Y55354D01*
X393333Y55425D01*
X393385Y55493D01*
X393440Y55560D01*
X393498Y55623D01*
X393559Y55684D01*
X393622Y55742D01*
X393689Y55797D01*
X393757Y55850D01*
X393828Y55899D01*
X393901Y55944D01*
X393976Y55987D01*
X394052Y56026D01*
X394131Y56062D01*
X394211Y56094D01*
X394292Y56122D01*
X394375Y56147D01*
X394458Y56168D01*
X394542Y56185D01*
X394627Y56199D01*
X394713Y56208D01*
X394799Y56214D01*
X394885Y56216D01*
X395365Y56216D01*
X395462Y56214D01*
X395558Y56208D01*
X395654Y56199D01*
X395750Y56185D01*
X395845Y56168D01*
X395939Y56146D01*
X396032Y56121D01*
X396125Y56093D01*
X396216Y56060D01*
X396305Y56024D01*
X396393Y55984D01*
X396480Y55941D01*
X396565Y55895D01*
X396647Y55845D01*
X396728Y55791D01*
X396806Y55735D01*
X396882Y55675D01*
X396956Y55613D01*
X397027Y55547D01*
X397095Y55479D01*
X397161Y55408D01*
X397223Y55334D01*
X397283Y55258D01*
X397339Y55180D01*
X397393Y55099D01*
X397443Y55016D01*
X397489Y54932D01*
X397532Y54845D01*
X397572Y54757D01*
X397608Y54668D01*
X397641Y54577D01*
X397669Y54484D01*
X397694Y54391D01*
X397716Y54297D01*
X397733Y54202D01*
X397747Y54106D01*
X397756Y54010D01*
X397762Y53914D01*
X397764Y53817D01*
X397762Y53720D01*
X397756Y53624D01*
X397747Y53528D01*
X397733Y53432D01*
X397716Y53337D01*
X397694Y53243D01*
X397669Y53150D01*
X397641Y53057D01*
X397608Y52966D01*
X397572Y52877D01*
X397532Y52789D01*
X397489Y52702D01*
X397443Y52617D01*
X397393Y52535D01*
X397339Y52454D01*
X397283Y52376D01*
X397223Y52300D01*
X397161Y52226D01*
X397095Y52155D01*
X397027Y52087D01*
X396956Y52021D01*
X396882Y51959D01*
X396806Y51899D01*
X396728Y51843D01*
X396647Y51789D01*
X396565Y51739D01*
X396480Y51693D01*
X396393Y51650D01*
X396305Y51610D01*
X396216Y51574D01*
X396125Y51541D01*
X396032Y51513D01*
X395939Y51488D01*
X395845Y51466D01*
X395750Y51449D01*
X395654Y51435D01*
X395558Y51426D01*
X395462Y51420D01*
X395365Y51418D01*
X392966Y51418D01*
X392843Y51420D01*
X392720Y51426D01*
X392597Y51436D01*
X392475Y51450D01*
X392353Y51467D01*
X392232Y51489D01*
X392112Y51514D01*
X391992Y51544D01*
X391874Y51577D01*
X391757Y51614D01*
X391640Y51654D01*
X391526Y51698D01*
X391412Y51746D01*
X391301Y51798D01*
X391191Y51853D01*
X391083Y51912D01*
X390976Y51974D01*
X390872Y52039D01*
X390770Y52108D01*
X390670Y52180D01*
X390573Y52255D01*
X390478Y52334D01*
X390386Y52415D01*
X390296Y52499D01*
X390209Y52586D01*
X390125Y52676D01*
X390044Y52768D01*
X389965Y52863D01*
X389890Y52960D01*
X389818Y53060D01*
X389749Y53162D01*
X389684Y53266D01*
X389622Y53373D01*
X389563Y53481D01*
X389508Y53591D01*
X389456Y53702D01*
X389409Y53816D01*
X389364Y53930D01*
X389324Y54047D01*
X389287Y54164D01*
X389254Y54282D01*
X389224Y54402D01*
X389199Y54522D01*
X389177Y54643D01*
X389160Y54765D01*
X389146Y54887D01*
X389136Y55010D01*
X389130Y55133D01*
X389128Y55256D01*
X388168Y63966D02*
X398724Y60127D01*
X395365Y68182D02*
X389128Y68182D01*
X395365Y68182D02*
X395462Y68184D01*
X395558Y68190D01*
X395654Y68199D01*
X395750Y68213D01*
X395845Y68230D01*
X395939Y68252D01*
X396032Y68277D01*
X396125Y68305D01*
X396216Y68338D01*
X396305Y68374D01*
X396393Y68414D01*
X396480Y68457D01*
X396565Y68503D01*
X396647Y68553D01*
X396728Y68607D01*
X396806Y68663D01*
X396882Y68723D01*
X396956Y68785D01*
X397027Y68851D01*
X397095Y68919D01*
X397161Y68990D01*
X397223Y69064D01*
X397283Y69140D01*
X397339Y69218D01*
X397393Y69299D01*
X397443Y69381D01*
X397489Y69466D01*
X397532Y69553D01*
X397572Y69641D01*
X397608Y69730D01*
X397641Y69821D01*
X397669Y69914D01*
X397694Y70007D01*
X397716Y70101D01*
X397733Y70196D01*
X397747Y70292D01*
X397756Y70388D01*
X397762Y70484D01*
X397764Y70581D01*
X397762Y70678D01*
X397756Y70774D01*
X397747Y70870D01*
X397733Y70966D01*
X397716Y71061D01*
X397694Y71155D01*
X397669Y71248D01*
X397641Y71341D01*
X397608Y71432D01*
X397572Y71521D01*
X397532Y71609D01*
X397489Y71696D01*
X397443Y71780D01*
X397393Y71863D01*
X397339Y71944D01*
X397283Y72022D01*
X397223Y72098D01*
X397161Y72172D01*
X397095Y72243D01*
X397027Y72311D01*
X396956Y72377D01*
X396882Y72439D01*
X396806Y72499D01*
X396728Y72555D01*
X396647Y72609D01*
X396565Y72659D01*
X396480Y72705D01*
X396393Y72748D01*
X396305Y72788D01*
X396216Y72824D01*
X396125Y72857D01*
X396032Y72885D01*
X395939Y72910D01*
X395845Y72932D01*
X395750Y72949D01*
X395654Y72963D01*
X395558Y72972D01*
X395462Y72978D01*
X395365Y72980D01*
X389128Y72980D01*
X389128Y77936D02*
X397764Y77936D01*
X389128Y77936D02*
X389128Y80334D01*
X389130Y80431D01*
X389136Y80527D01*
X389145Y80623D01*
X389159Y80719D01*
X389176Y80814D01*
X389198Y80908D01*
X389223Y81001D01*
X389251Y81094D01*
X389284Y81185D01*
X389320Y81274D01*
X389360Y81362D01*
X389403Y81449D01*
X389449Y81534D01*
X389499Y81616D01*
X389553Y81697D01*
X389609Y81775D01*
X389669Y81851D01*
X389731Y81925D01*
X389797Y81996D01*
X389865Y82064D01*
X389936Y82130D01*
X390010Y82192D01*
X390086Y82252D01*
X390164Y82308D01*
X390245Y82362D01*
X390328Y82412D01*
X390412Y82458D01*
X390499Y82501D01*
X390587Y82541D01*
X390676Y82577D01*
X390767Y82610D01*
X390860Y82638D01*
X390953Y82663D01*
X391047Y82685D01*
X391142Y82702D01*
X391238Y82716D01*
X391334Y82725D01*
X391430Y82731D01*
X391527Y82733D01*
X395365Y82733D01*
X395462Y82731D01*
X395558Y82725D01*
X395654Y82716D01*
X395750Y82702D01*
X395845Y82685D01*
X395939Y82663D01*
X396032Y82638D01*
X396125Y82610D01*
X396216Y82577D01*
X396305Y82541D01*
X396393Y82501D01*
X396480Y82458D01*
X396565Y82412D01*
X396647Y82362D01*
X396728Y82308D01*
X396806Y82252D01*
X396882Y82192D01*
X396956Y82130D01*
X397027Y82064D01*
X397095Y81996D01*
X397161Y81925D01*
X397223Y81851D01*
X397283Y81775D01*
X397339Y81697D01*
X397393Y81616D01*
X397443Y81534D01*
X397489Y81449D01*
X397532Y81362D01*
X397572Y81274D01*
X397608Y81185D01*
X397641Y81094D01*
X397669Y81001D01*
X397694Y80908D01*
X397716Y80814D01*
X397733Y80719D01*
X397747Y80623D01*
X397756Y80527D01*
X397762Y80431D01*
X397764Y80334D01*
X397764Y77936D01*
X397764Y87884D02*
X389128Y87884D01*
X389128Y90283D01*
X389130Y90380D01*
X389136Y90476D01*
X389145Y90572D01*
X389159Y90668D01*
X389176Y90763D01*
X389198Y90857D01*
X389223Y90950D01*
X389251Y91043D01*
X389284Y91134D01*
X389320Y91223D01*
X389360Y91311D01*
X389403Y91398D01*
X389449Y91483D01*
X389499Y91565D01*
X389553Y91646D01*
X389609Y91724D01*
X389669Y91800D01*
X389731Y91874D01*
X389797Y91945D01*
X389865Y92013D01*
X389936Y92079D01*
X390010Y92141D01*
X390086Y92201D01*
X390164Y92257D01*
X390245Y92311D01*
X390328Y92361D01*
X390412Y92407D01*
X390499Y92450D01*
X390587Y92490D01*
X390676Y92526D01*
X390767Y92559D01*
X390860Y92587D01*
X390953Y92612D01*
X391047Y92634D01*
X391142Y92651D01*
X391238Y92665D01*
X391334Y92674D01*
X391430Y92680D01*
X391527Y92682D01*
X391624Y92680D01*
X391720Y92674D01*
X391816Y92665D01*
X391912Y92651D01*
X392007Y92634D01*
X392101Y92612D01*
X392194Y92587D01*
X392287Y92559D01*
X392378Y92526D01*
X392467Y92490D01*
X392555Y92450D01*
X392642Y92407D01*
X392727Y92361D01*
X392809Y92311D01*
X392890Y92257D01*
X392968Y92201D01*
X393044Y92141D01*
X393118Y92079D01*
X393189Y92013D01*
X393257Y91945D01*
X393323Y91874D01*
X393385Y91800D01*
X393445Y91724D01*
X393501Y91646D01*
X393555Y91565D01*
X393605Y91483D01*
X393651Y91398D01*
X393694Y91311D01*
X393734Y91223D01*
X393770Y91134D01*
X393803Y91043D01*
X393831Y90950D01*
X393856Y90857D01*
X393878Y90763D01*
X393895Y90668D01*
X393909Y90572D01*
X393918Y90476D01*
X393924Y90380D01*
X393926Y90283D01*
X393926Y87884D01*
X414528Y29972D02*
X423164Y29972D01*
X414528Y29972D02*
X414528Y32371D01*
X414530Y32468D01*
X414536Y32564D01*
X414545Y32660D01*
X414559Y32756D01*
X414576Y32851D01*
X414598Y32945D01*
X414623Y33038D01*
X414651Y33131D01*
X414684Y33222D01*
X414720Y33311D01*
X414760Y33399D01*
X414803Y33486D01*
X414849Y33571D01*
X414899Y33653D01*
X414953Y33734D01*
X415009Y33812D01*
X415069Y33888D01*
X415131Y33962D01*
X415197Y34033D01*
X415265Y34101D01*
X415336Y34167D01*
X415410Y34229D01*
X415486Y34289D01*
X415564Y34345D01*
X415645Y34399D01*
X415728Y34449D01*
X415812Y34495D01*
X415899Y34538D01*
X415987Y34578D01*
X416076Y34614D01*
X416167Y34647D01*
X416260Y34675D01*
X416353Y34700D01*
X416447Y34722D01*
X416542Y34739D01*
X416638Y34753D01*
X416734Y34762D01*
X416830Y34768D01*
X416927Y34770D01*
X417024Y34768D01*
X417120Y34762D01*
X417216Y34753D01*
X417312Y34739D01*
X417407Y34722D01*
X417501Y34700D01*
X417594Y34675D01*
X417687Y34647D01*
X417778Y34614D01*
X417867Y34578D01*
X417955Y34538D01*
X418042Y34495D01*
X418127Y34449D01*
X418209Y34399D01*
X418290Y34345D01*
X418368Y34289D01*
X418444Y34229D01*
X418518Y34167D01*
X418589Y34101D01*
X418657Y34033D01*
X418723Y33962D01*
X418785Y33888D01*
X418845Y33812D01*
X418901Y33734D01*
X418955Y33653D01*
X419005Y33571D01*
X419051Y33486D01*
X419094Y33399D01*
X419134Y33311D01*
X419170Y33222D01*
X419203Y33131D01*
X419231Y33038D01*
X419256Y32945D01*
X419278Y32851D01*
X419295Y32756D01*
X419309Y32660D01*
X419318Y32564D01*
X419324Y32468D01*
X419326Y32371D01*
X419326Y29972D01*
X423164Y38616D02*
X423164Y41015D01*
X423162Y41112D01*
X423156Y41208D01*
X423147Y41304D01*
X423133Y41400D01*
X423116Y41495D01*
X423094Y41589D01*
X423069Y41682D01*
X423041Y41775D01*
X423008Y41866D01*
X422972Y41955D01*
X422932Y42043D01*
X422889Y42130D01*
X422843Y42215D01*
X422793Y42297D01*
X422739Y42378D01*
X422683Y42456D01*
X422623Y42532D01*
X422561Y42606D01*
X422495Y42677D01*
X422427Y42745D01*
X422356Y42811D01*
X422282Y42873D01*
X422206Y42933D01*
X422128Y42989D01*
X422047Y43043D01*
X421965Y43093D01*
X421880Y43139D01*
X421793Y43182D01*
X421705Y43222D01*
X421616Y43258D01*
X421525Y43291D01*
X421432Y43319D01*
X421339Y43344D01*
X421245Y43366D01*
X421150Y43383D01*
X421054Y43397D01*
X420958Y43406D01*
X420862Y43412D01*
X420765Y43414D01*
X420668Y43412D01*
X420572Y43406D01*
X420476Y43397D01*
X420380Y43383D01*
X420285Y43366D01*
X420191Y43344D01*
X420098Y43319D01*
X420005Y43291D01*
X419914Y43258D01*
X419825Y43222D01*
X419737Y43182D01*
X419650Y43139D01*
X419566Y43093D01*
X419483Y43043D01*
X419402Y42989D01*
X419324Y42933D01*
X419248Y42873D01*
X419174Y42811D01*
X419103Y42745D01*
X419035Y42677D01*
X418969Y42606D01*
X418907Y42532D01*
X418847Y42456D01*
X418791Y42378D01*
X418737Y42297D01*
X418687Y42215D01*
X418641Y42130D01*
X418598Y42043D01*
X418558Y41955D01*
X418522Y41866D01*
X418489Y41775D01*
X418461Y41682D01*
X418436Y41589D01*
X418414Y41495D01*
X418397Y41400D01*
X418383Y41304D01*
X418374Y41208D01*
X418368Y41112D01*
X418366Y41015D01*
X414528Y41495D02*
X414528Y38616D01*
X414528Y41495D02*
X414530Y41581D01*
X414536Y41667D01*
X414545Y41753D01*
X414559Y41838D01*
X414576Y41922D01*
X414597Y42006D01*
X414622Y42088D01*
X414650Y42169D01*
X414682Y42249D01*
X414718Y42328D01*
X414757Y42404D01*
X414800Y42479D01*
X414845Y42552D01*
X414894Y42623D01*
X414947Y42691D01*
X415002Y42758D01*
X415060Y42821D01*
X415121Y42882D01*
X415184Y42940D01*
X415251Y42995D01*
X415319Y43048D01*
X415390Y43097D01*
X415463Y43142D01*
X415538Y43185D01*
X415614Y43224D01*
X415693Y43260D01*
X415773Y43292D01*
X415854Y43320D01*
X415936Y43345D01*
X416020Y43366D01*
X416104Y43383D01*
X416189Y43397D01*
X416275Y43406D01*
X416361Y43412D01*
X416447Y43414D01*
X416533Y43412D01*
X416619Y43406D01*
X416705Y43397D01*
X416790Y43383D01*
X416874Y43366D01*
X416958Y43345D01*
X417040Y43320D01*
X417121Y43292D01*
X417201Y43260D01*
X417280Y43224D01*
X417356Y43185D01*
X417431Y43142D01*
X417504Y43097D01*
X417575Y43048D01*
X417643Y42995D01*
X417710Y42940D01*
X417773Y42882D01*
X417834Y42821D01*
X417892Y42758D01*
X417947Y42691D01*
X418000Y42623D01*
X418049Y42552D01*
X418094Y42479D01*
X418137Y42404D01*
X418176Y42328D01*
X418212Y42249D01*
X418244Y42169D01*
X418272Y42088D01*
X418297Y42006D01*
X418318Y41922D01*
X418335Y41838D01*
X418349Y41753D01*
X418358Y41667D01*
X418364Y41581D01*
X418366Y41495D01*
X418366Y39576D01*
X422684Y47176D02*
X423164Y47176D01*
X422684Y47176D02*
X422684Y47656D01*
X423164Y47656D01*
X423164Y47176D01*
X415488Y51418D02*
X414528Y51418D01*
X414528Y56216D01*
X423164Y53817D01*
X424124Y60127D02*
X413568Y63966D01*
X414528Y68182D02*
X420765Y68182D01*
X420862Y68184D01*
X420958Y68190D01*
X421054Y68199D01*
X421150Y68213D01*
X421245Y68230D01*
X421339Y68252D01*
X421432Y68277D01*
X421525Y68305D01*
X421616Y68338D01*
X421705Y68374D01*
X421793Y68414D01*
X421880Y68457D01*
X421965Y68503D01*
X422047Y68553D01*
X422128Y68607D01*
X422206Y68663D01*
X422282Y68723D01*
X422356Y68785D01*
X422427Y68851D01*
X422495Y68919D01*
X422561Y68990D01*
X422623Y69064D01*
X422683Y69140D01*
X422739Y69218D01*
X422793Y69299D01*
X422843Y69381D01*
X422889Y69466D01*
X422932Y69553D01*
X422972Y69641D01*
X423008Y69730D01*
X423041Y69821D01*
X423069Y69914D01*
X423094Y70007D01*
X423116Y70101D01*
X423133Y70196D01*
X423147Y70292D01*
X423156Y70388D01*
X423162Y70484D01*
X423164Y70581D01*
X423162Y70678D01*
X423156Y70774D01*
X423147Y70870D01*
X423133Y70966D01*
X423116Y71061D01*
X423094Y71155D01*
X423069Y71248D01*
X423041Y71341D01*
X423008Y71432D01*
X422972Y71521D01*
X422932Y71609D01*
X422889Y71696D01*
X422843Y71780D01*
X422793Y71863D01*
X422739Y71944D01*
X422683Y72022D01*
X422623Y72098D01*
X422561Y72172D01*
X422495Y72243D01*
X422427Y72311D01*
X422356Y72377D01*
X422282Y72439D01*
X422206Y72499D01*
X422128Y72555D01*
X422047Y72609D01*
X421965Y72659D01*
X421880Y72705D01*
X421793Y72748D01*
X421705Y72788D01*
X421616Y72824D01*
X421525Y72857D01*
X421432Y72885D01*
X421339Y72910D01*
X421245Y72932D01*
X421150Y72949D01*
X421054Y72963D01*
X420958Y72972D01*
X420862Y72978D01*
X420765Y72980D01*
X414528Y72980D01*
X414528Y77936D02*
X423164Y77936D01*
X414528Y77936D02*
X414528Y80334D01*
X414530Y80431D01*
X414536Y80527D01*
X414545Y80623D01*
X414559Y80719D01*
X414576Y80814D01*
X414598Y80908D01*
X414623Y81001D01*
X414651Y81094D01*
X414684Y81185D01*
X414720Y81274D01*
X414760Y81362D01*
X414803Y81449D01*
X414849Y81534D01*
X414899Y81616D01*
X414953Y81697D01*
X415009Y81775D01*
X415069Y81851D01*
X415131Y81925D01*
X415197Y81996D01*
X415265Y82064D01*
X415336Y82130D01*
X415410Y82192D01*
X415486Y82252D01*
X415564Y82308D01*
X415645Y82362D01*
X415728Y82412D01*
X415812Y82458D01*
X415899Y82501D01*
X415987Y82541D01*
X416076Y82577D01*
X416167Y82610D01*
X416260Y82638D01*
X416353Y82663D01*
X416447Y82685D01*
X416542Y82702D01*
X416638Y82716D01*
X416734Y82725D01*
X416830Y82731D01*
X416927Y82733D01*
X420765Y82733D01*
X420862Y82731D01*
X420958Y82725D01*
X421054Y82716D01*
X421150Y82702D01*
X421245Y82685D01*
X421339Y82663D01*
X421432Y82638D01*
X421525Y82610D01*
X421616Y82577D01*
X421705Y82541D01*
X421793Y82501D01*
X421880Y82458D01*
X421965Y82412D01*
X422047Y82362D01*
X422128Y82308D01*
X422206Y82252D01*
X422282Y82192D01*
X422356Y82130D01*
X422427Y82064D01*
X422495Y81996D01*
X422561Y81925D01*
X422623Y81851D01*
X422683Y81775D01*
X422739Y81697D01*
X422793Y81616D01*
X422843Y81534D01*
X422889Y81449D01*
X422932Y81362D01*
X422972Y81274D01*
X423008Y81185D01*
X423041Y81094D01*
X423069Y81001D01*
X423094Y80908D01*
X423116Y80814D01*
X423133Y80719D01*
X423147Y80623D01*
X423156Y80527D01*
X423162Y80431D01*
X423164Y80334D01*
X423164Y77936D01*
X423164Y87819D02*
X414528Y87819D01*
X419326Y90698D01*
X414528Y93576D01*
X423164Y93576D01*
X245618Y29972D02*
X236982Y29972D01*
X236982Y32371D01*
X236984Y32468D01*
X236990Y32564D01*
X236999Y32660D01*
X237013Y32756D01*
X237030Y32851D01*
X237052Y32945D01*
X237077Y33038D01*
X237105Y33131D01*
X237138Y33222D01*
X237174Y33311D01*
X237214Y33399D01*
X237257Y33486D01*
X237303Y33571D01*
X237353Y33653D01*
X237407Y33734D01*
X237463Y33812D01*
X237523Y33888D01*
X237585Y33962D01*
X237651Y34033D01*
X237719Y34101D01*
X237790Y34167D01*
X237864Y34229D01*
X237940Y34289D01*
X238018Y34345D01*
X238099Y34399D01*
X238182Y34449D01*
X238266Y34495D01*
X238353Y34538D01*
X238441Y34578D01*
X238530Y34614D01*
X238621Y34647D01*
X238714Y34675D01*
X238807Y34700D01*
X238901Y34722D01*
X238996Y34739D01*
X239092Y34753D01*
X239188Y34762D01*
X239284Y34768D01*
X239381Y34770D01*
X239478Y34768D01*
X239574Y34762D01*
X239670Y34753D01*
X239766Y34739D01*
X239861Y34722D01*
X239955Y34700D01*
X240048Y34675D01*
X240141Y34647D01*
X240232Y34614D01*
X240321Y34578D01*
X240409Y34538D01*
X240496Y34495D01*
X240581Y34449D01*
X240663Y34399D01*
X240744Y34345D01*
X240822Y34289D01*
X240898Y34229D01*
X240972Y34167D01*
X241043Y34101D01*
X241111Y34033D01*
X241177Y33962D01*
X241239Y33888D01*
X241299Y33812D01*
X241355Y33734D01*
X241409Y33653D01*
X241459Y33571D01*
X241505Y33486D01*
X241548Y33399D01*
X241588Y33311D01*
X241624Y33222D01*
X241657Y33131D01*
X241685Y33038D01*
X241710Y32945D01*
X241732Y32851D01*
X241749Y32756D01*
X241763Y32660D01*
X241772Y32564D01*
X241778Y32468D01*
X241780Y32371D01*
X241780Y29972D01*
X245618Y38616D02*
X245618Y41015D01*
X245616Y41112D01*
X245610Y41208D01*
X245601Y41304D01*
X245587Y41400D01*
X245570Y41495D01*
X245548Y41589D01*
X245523Y41682D01*
X245495Y41775D01*
X245462Y41866D01*
X245426Y41955D01*
X245386Y42043D01*
X245343Y42130D01*
X245297Y42215D01*
X245247Y42297D01*
X245193Y42378D01*
X245137Y42456D01*
X245077Y42532D01*
X245015Y42606D01*
X244949Y42677D01*
X244881Y42745D01*
X244810Y42811D01*
X244736Y42873D01*
X244660Y42933D01*
X244582Y42989D01*
X244501Y43043D01*
X244419Y43093D01*
X244334Y43139D01*
X244247Y43182D01*
X244159Y43222D01*
X244070Y43258D01*
X243979Y43291D01*
X243886Y43319D01*
X243793Y43344D01*
X243699Y43366D01*
X243604Y43383D01*
X243508Y43397D01*
X243412Y43406D01*
X243316Y43412D01*
X243219Y43414D01*
X243122Y43412D01*
X243026Y43406D01*
X242930Y43397D01*
X242834Y43383D01*
X242739Y43366D01*
X242645Y43344D01*
X242552Y43319D01*
X242459Y43291D01*
X242368Y43258D01*
X242279Y43222D01*
X242191Y43182D01*
X242104Y43139D01*
X242020Y43093D01*
X241937Y43043D01*
X241856Y42989D01*
X241778Y42933D01*
X241702Y42873D01*
X241628Y42811D01*
X241557Y42745D01*
X241489Y42677D01*
X241423Y42606D01*
X241361Y42532D01*
X241301Y42456D01*
X241245Y42378D01*
X241191Y42297D01*
X241141Y42215D01*
X241095Y42130D01*
X241052Y42043D01*
X241012Y41955D01*
X240976Y41866D01*
X240943Y41775D01*
X240915Y41682D01*
X240890Y41589D01*
X240868Y41495D01*
X240851Y41400D01*
X240837Y41304D01*
X240828Y41208D01*
X240822Y41112D01*
X240820Y41015D01*
X236982Y41495D02*
X236982Y38616D01*
X236982Y41495D02*
X236984Y41581D01*
X236990Y41667D01*
X236999Y41753D01*
X237013Y41838D01*
X237030Y41922D01*
X237051Y42006D01*
X237076Y42088D01*
X237104Y42169D01*
X237136Y42249D01*
X237172Y42328D01*
X237211Y42404D01*
X237254Y42479D01*
X237299Y42552D01*
X237348Y42623D01*
X237401Y42691D01*
X237456Y42758D01*
X237514Y42821D01*
X237575Y42882D01*
X237638Y42940D01*
X237705Y42995D01*
X237773Y43048D01*
X237844Y43097D01*
X237917Y43142D01*
X237992Y43185D01*
X238068Y43224D01*
X238147Y43260D01*
X238227Y43292D01*
X238308Y43320D01*
X238390Y43345D01*
X238474Y43366D01*
X238558Y43383D01*
X238643Y43397D01*
X238729Y43406D01*
X238815Y43412D01*
X238901Y43414D01*
X238987Y43412D01*
X239073Y43406D01*
X239159Y43397D01*
X239244Y43383D01*
X239328Y43366D01*
X239412Y43345D01*
X239494Y43320D01*
X239575Y43292D01*
X239655Y43260D01*
X239734Y43224D01*
X239810Y43185D01*
X239885Y43142D01*
X239958Y43097D01*
X240029Y43048D01*
X240097Y42995D01*
X240164Y42940D01*
X240227Y42882D01*
X240288Y42821D01*
X240346Y42758D01*
X240401Y42691D01*
X240454Y42623D01*
X240503Y42552D01*
X240548Y42479D01*
X240591Y42404D01*
X240630Y42328D01*
X240666Y42249D01*
X240698Y42169D01*
X240726Y42088D01*
X240751Y42006D01*
X240772Y41922D01*
X240789Y41838D01*
X240803Y41753D01*
X240812Y41667D01*
X240818Y41581D01*
X240820Y41495D01*
X240820Y39576D01*
X245138Y47176D02*
X245618Y47176D01*
X245138Y47176D02*
X245138Y47656D01*
X245618Y47656D01*
X245618Y47176D01*
X241300Y51418D02*
X241130Y51420D01*
X240960Y51426D01*
X240791Y51436D01*
X240621Y51450D01*
X240452Y51469D01*
X240284Y51491D01*
X240116Y51517D01*
X239949Y51547D01*
X239783Y51582D01*
X239617Y51620D01*
X239452Y51662D01*
X239289Y51708D01*
X239127Y51758D01*
X238965Y51812D01*
X238806Y51869D01*
X238647Y51931D01*
X238490Y51996D01*
X238335Y52065D01*
X238181Y52138D01*
X238105Y52166D01*
X238030Y52198D01*
X237956Y52233D01*
X237884Y52271D01*
X237814Y52313D01*
X237746Y52358D01*
X237680Y52406D01*
X237616Y52457D01*
X237555Y52511D01*
X237496Y52567D01*
X237440Y52627D01*
X237387Y52688D01*
X237337Y52752D01*
X237289Y52819D01*
X237245Y52887D01*
X237204Y52958D01*
X237166Y53030D01*
X237132Y53104D01*
X237101Y53179D01*
X237073Y53256D01*
X237049Y53334D01*
X237029Y53413D01*
X237012Y53493D01*
X236999Y53573D01*
X236989Y53654D01*
X236984Y53735D01*
X236982Y53817D01*
X236984Y53899D01*
X236989Y53980D01*
X236999Y54061D01*
X237012Y54141D01*
X237029Y54221D01*
X237049Y54300D01*
X237073Y54378D01*
X237101Y54455D01*
X237132Y54530D01*
X237166Y54604D01*
X237204Y54676D01*
X237245Y54747D01*
X237289Y54815D01*
X237337Y54882D01*
X237387Y54946D01*
X237440Y55007D01*
X237496Y55067D01*
X237555Y55123D01*
X237616Y55177D01*
X237680Y55228D01*
X237746Y55276D01*
X237814Y55321D01*
X237884Y55363D01*
X237956Y55401D01*
X238030Y55436D01*
X238105Y55468D01*
X238181Y55496D01*
X238335Y55569D01*
X238490Y55638D01*
X238647Y55703D01*
X238806Y55765D01*
X238965Y55822D01*
X239127Y55876D01*
X239289Y55926D01*
X239452Y55972D01*
X239617Y56014D01*
X239783Y56052D01*
X239949Y56087D01*
X240116Y56117D01*
X240284Y56143D01*
X240452Y56165D01*
X240621Y56184D01*
X240791Y56198D01*
X240960Y56208D01*
X241130Y56214D01*
X241300Y56216D01*
X241300Y51418D02*
X241470Y51420D01*
X241640Y51426D01*
X241809Y51436D01*
X241979Y51450D01*
X242148Y51469D01*
X242316Y51491D01*
X242484Y51517D01*
X242651Y51547D01*
X242817Y51582D01*
X242983Y51620D01*
X243148Y51662D01*
X243311Y51708D01*
X243473Y51758D01*
X243635Y51812D01*
X243794Y51869D01*
X243953Y51931D01*
X244110Y51996D01*
X244265Y52065D01*
X244419Y52138D01*
X244495Y52166D01*
X244570Y52198D01*
X244644Y52233D01*
X244716Y52271D01*
X244786Y52313D01*
X244854Y52358D01*
X244920Y52406D01*
X244984Y52457D01*
X245045Y52511D01*
X245104Y52567D01*
X245160Y52627D01*
X245213Y52688D01*
X245263Y52752D01*
X245311Y52819D01*
X245355Y52887D01*
X245396Y52958D01*
X245434Y53030D01*
X245468Y53104D01*
X245499Y53179D01*
X245527Y53256D01*
X245551Y53334D01*
X245571Y53413D01*
X245588Y53493D01*
X245601Y53573D01*
X245611Y53654D01*
X245616Y53735D01*
X245618Y53817D01*
X244419Y55496D02*
X244265Y55569D01*
X244110Y55638D01*
X243953Y55703D01*
X243794Y55765D01*
X243635Y55822D01*
X243473Y55876D01*
X243311Y55926D01*
X243148Y55972D01*
X242983Y56014D01*
X242817Y56052D01*
X242651Y56087D01*
X242484Y56117D01*
X242316Y56143D01*
X242148Y56165D01*
X241979Y56184D01*
X241809Y56198D01*
X241640Y56208D01*
X241470Y56214D01*
X241300Y56216D01*
X244419Y55496D02*
X244495Y55468D01*
X244570Y55436D01*
X244644Y55401D01*
X244716Y55363D01*
X244786Y55321D01*
X244854Y55276D01*
X244920Y55228D01*
X244984Y55177D01*
X245045Y55123D01*
X245104Y55067D01*
X245160Y55007D01*
X245213Y54946D01*
X245263Y54882D01*
X245311Y54815D01*
X245355Y54747D01*
X245396Y54676D01*
X245434Y54604D01*
X245468Y54530D01*
X245499Y54455D01*
X245527Y54378D01*
X245551Y54300D01*
X245571Y54221D01*
X245588Y54141D01*
X245601Y54061D01*
X245611Y53980D01*
X245616Y53899D01*
X245618Y53817D01*
X243699Y51898D02*
X238901Y55736D01*
X236022Y63966D02*
X246578Y60127D01*
X245618Y68267D02*
X236982Y68267D01*
X236982Y70665D01*
X236984Y70762D01*
X236990Y70858D01*
X236999Y70954D01*
X237013Y71050D01*
X237030Y71145D01*
X237052Y71239D01*
X237077Y71332D01*
X237105Y71425D01*
X237138Y71516D01*
X237174Y71605D01*
X237214Y71693D01*
X237257Y71780D01*
X237303Y71865D01*
X237353Y71947D01*
X237407Y72028D01*
X237463Y72106D01*
X237523Y72182D01*
X237585Y72256D01*
X237651Y72327D01*
X237719Y72395D01*
X237790Y72461D01*
X237864Y72523D01*
X237940Y72583D01*
X238018Y72639D01*
X238099Y72693D01*
X238182Y72743D01*
X238266Y72789D01*
X238353Y72832D01*
X238441Y72872D01*
X238530Y72908D01*
X238621Y72941D01*
X238714Y72969D01*
X238807Y72994D01*
X238901Y73016D01*
X238996Y73033D01*
X239092Y73047D01*
X239188Y73056D01*
X239284Y73062D01*
X239381Y73064D01*
X239478Y73062D01*
X239574Y73056D01*
X239670Y73047D01*
X239766Y73033D01*
X239861Y73016D01*
X239955Y72994D01*
X240048Y72969D01*
X240141Y72941D01*
X240232Y72908D01*
X240321Y72872D01*
X240409Y72832D01*
X240496Y72789D01*
X240581Y72743D01*
X240663Y72693D01*
X240744Y72639D01*
X240822Y72583D01*
X240898Y72523D01*
X240972Y72461D01*
X241043Y72395D01*
X241111Y72327D01*
X241177Y72256D01*
X241239Y72182D01*
X241299Y72106D01*
X241355Y72028D01*
X241409Y71947D01*
X241459Y71865D01*
X241505Y71780D01*
X241548Y71693D01*
X241588Y71605D01*
X241624Y71516D01*
X241657Y71425D01*
X241685Y71332D01*
X241710Y71239D01*
X241732Y71145D01*
X241749Y71050D01*
X241763Y70954D01*
X241772Y70858D01*
X241778Y70762D01*
X241780Y70665D01*
X241780Y68267D01*
X241780Y71145D02*
X245618Y73064D01*
X245618Y76846D02*
X236982Y82603D01*
X236982Y76846D02*
X245618Y82603D01*
X245618Y86775D02*
X236982Y86775D01*
X236982Y89174D01*
X236984Y89271D01*
X236990Y89367D01*
X236999Y89463D01*
X237013Y89559D01*
X237030Y89654D01*
X237052Y89748D01*
X237077Y89841D01*
X237105Y89934D01*
X237138Y90025D01*
X237174Y90114D01*
X237214Y90202D01*
X237257Y90289D01*
X237303Y90374D01*
X237353Y90456D01*
X237407Y90537D01*
X237463Y90615D01*
X237523Y90691D01*
X237585Y90765D01*
X237651Y90836D01*
X237719Y90904D01*
X237790Y90970D01*
X237864Y91032D01*
X237940Y91092D01*
X238018Y91148D01*
X238099Y91202D01*
X238182Y91252D01*
X238266Y91298D01*
X238353Y91341D01*
X238441Y91381D01*
X238530Y91417D01*
X238621Y91450D01*
X238714Y91478D01*
X238807Y91503D01*
X238901Y91525D01*
X238996Y91542D01*
X239092Y91556D01*
X239188Y91565D01*
X239284Y91571D01*
X239381Y91573D01*
X239381Y91572D02*
X243219Y91572D01*
X243219Y91573D02*
X243316Y91571D01*
X243412Y91565D01*
X243508Y91556D01*
X243604Y91542D01*
X243699Y91525D01*
X243793Y91503D01*
X243886Y91478D01*
X243979Y91450D01*
X244070Y91417D01*
X244159Y91381D01*
X244247Y91341D01*
X244334Y91298D01*
X244419Y91252D01*
X244501Y91202D01*
X244582Y91148D01*
X244660Y91092D01*
X244736Y91032D01*
X244810Y90970D01*
X244881Y90904D01*
X244949Y90836D01*
X245015Y90765D01*
X245077Y90691D01*
X245137Y90615D01*
X245193Y90537D01*
X245247Y90456D01*
X245297Y90374D01*
X245343Y90289D01*
X245386Y90202D01*
X245426Y90114D01*
X245462Y90025D01*
X245495Y89934D01*
X245523Y89841D01*
X245548Y89748D01*
X245570Y89654D01*
X245587Y89559D01*
X245601Y89463D01*
X245610Y89367D01*
X245616Y89271D01*
X245618Y89174D01*
X245618Y86775D01*
X262382Y29972D02*
X271018Y29972D01*
X262382Y29972D02*
X262382Y32371D01*
X262384Y32468D01*
X262390Y32564D01*
X262399Y32660D01*
X262413Y32756D01*
X262430Y32851D01*
X262452Y32945D01*
X262477Y33038D01*
X262505Y33131D01*
X262538Y33222D01*
X262574Y33311D01*
X262614Y33399D01*
X262657Y33486D01*
X262703Y33571D01*
X262753Y33653D01*
X262807Y33734D01*
X262863Y33812D01*
X262923Y33888D01*
X262985Y33962D01*
X263051Y34033D01*
X263119Y34101D01*
X263190Y34167D01*
X263264Y34229D01*
X263340Y34289D01*
X263418Y34345D01*
X263499Y34399D01*
X263582Y34449D01*
X263666Y34495D01*
X263753Y34538D01*
X263841Y34578D01*
X263930Y34614D01*
X264021Y34647D01*
X264114Y34675D01*
X264207Y34700D01*
X264301Y34722D01*
X264396Y34739D01*
X264492Y34753D01*
X264588Y34762D01*
X264684Y34768D01*
X264781Y34770D01*
X264878Y34768D01*
X264974Y34762D01*
X265070Y34753D01*
X265166Y34739D01*
X265261Y34722D01*
X265355Y34700D01*
X265448Y34675D01*
X265541Y34647D01*
X265632Y34614D01*
X265721Y34578D01*
X265809Y34538D01*
X265896Y34495D01*
X265981Y34449D01*
X266063Y34399D01*
X266144Y34345D01*
X266222Y34289D01*
X266298Y34229D01*
X266372Y34167D01*
X266443Y34101D01*
X266511Y34033D01*
X266577Y33962D01*
X266639Y33888D01*
X266699Y33812D01*
X266755Y33734D01*
X266809Y33653D01*
X266859Y33571D01*
X266905Y33486D01*
X266948Y33399D01*
X266988Y33311D01*
X267024Y33222D01*
X267057Y33131D01*
X267085Y33038D01*
X267110Y32945D01*
X267132Y32851D01*
X267149Y32756D01*
X267163Y32660D01*
X267172Y32564D01*
X267178Y32468D01*
X267180Y32371D01*
X267180Y29972D01*
X271018Y38616D02*
X271018Y41015D01*
X271016Y41112D01*
X271010Y41208D01*
X271001Y41304D01*
X270987Y41400D01*
X270970Y41495D01*
X270948Y41589D01*
X270923Y41682D01*
X270895Y41775D01*
X270862Y41866D01*
X270826Y41955D01*
X270786Y42043D01*
X270743Y42130D01*
X270697Y42215D01*
X270647Y42297D01*
X270593Y42378D01*
X270537Y42456D01*
X270477Y42532D01*
X270415Y42606D01*
X270349Y42677D01*
X270281Y42745D01*
X270210Y42811D01*
X270136Y42873D01*
X270060Y42933D01*
X269982Y42989D01*
X269901Y43043D01*
X269819Y43093D01*
X269734Y43139D01*
X269647Y43182D01*
X269559Y43222D01*
X269470Y43258D01*
X269379Y43291D01*
X269286Y43319D01*
X269193Y43344D01*
X269099Y43366D01*
X269004Y43383D01*
X268908Y43397D01*
X268812Y43406D01*
X268716Y43412D01*
X268619Y43414D01*
X268522Y43412D01*
X268426Y43406D01*
X268330Y43397D01*
X268234Y43383D01*
X268139Y43366D01*
X268045Y43344D01*
X267952Y43319D01*
X267859Y43291D01*
X267768Y43258D01*
X267679Y43222D01*
X267591Y43182D01*
X267504Y43139D01*
X267420Y43093D01*
X267337Y43043D01*
X267256Y42989D01*
X267178Y42933D01*
X267102Y42873D01*
X267028Y42811D01*
X266957Y42745D01*
X266889Y42677D01*
X266823Y42606D01*
X266761Y42532D01*
X266701Y42456D01*
X266645Y42378D01*
X266591Y42297D01*
X266541Y42215D01*
X266495Y42130D01*
X266452Y42043D01*
X266412Y41955D01*
X266376Y41866D01*
X266343Y41775D01*
X266315Y41682D01*
X266290Y41589D01*
X266268Y41495D01*
X266251Y41400D01*
X266237Y41304D01*
X266228Y41208D01*
X266222Y41112D01*
X266220Y41015D01*
X262382Y41495D02*
X262382Y38616D01*
X262382Y41495D02*
X262384Y41581D01*
X262390Y41667D01*
X262399Y41753D01*
X262413Y41838D01*
X262430Y41922D01*
X262451Y42006D01*
X262476Y42088D01*
X262504Y42169D01*
X262536Y42249D01*
X262572Y42328D01*
X262611Y42404D01*
X262654Y42479D01*
X262699Y42552D01*
X262748Y42623D01*
X262801Y42691D01*
X262856Y42758D01*
X262914Y42821D01*
X262975Y42882D01*
X263038Y42940D01*
X263105Y42995D01*
X263173Y43048D01*
X263244Y43097D01*
X263317Y43142D01*
X263392Y43185D01*
X263468Y43224D01*
X263547Y43260D01*
X263627Y43292D01*
X263708Y43320D01*
X263790Y43345D01*
X263874Y43366D01*
X263958Y43383D01*
X264043Y43397D01*
X264129Y43406D01*
X264215Y43412D01*
X264301Y43414D01*
X264387Y43412D01*
X264473Y43406D01*
X264559Y43397D01*
X264644Y43383D01*
X264728Y43366D01*
X264812Y43345D01*
X264894Y43320D01*
X264975Y43292D01*
X265055Y43260D01*
X265134Y43224D01*
X265210Y43185D01*
X265285Y43142D01*
X265358Y43097D01*
X265429Y43048D01*
X265497Y42995D01*
X265564Y42940D01*
X265627Y42882D01*
X265688Y42821D01*
X265746Y42758D01*
X265801Y42691D01*
X265854Y42623D01*
X265903Y42552D01*
X265948Y42479D01*
X265991Y42404D01*
X266030Y42328D01*
X266066Y42249D01*
X266098Y42169D01*
X266126Y42088D01*
X266151Y42006D01*
X266172Y41922D01*
X266189Y41838D01*
X266203Y41753D01*
X266212Y41667D01*
X266218Y41581D01*
X266220Y41495D01*
X266220Y39576D01*
X270538Y47176D02*
X271018Y47176D01*
X270538Y47176D02*
X270538Y47656D01*
X271018Y47656D01*
X271018Y47176D01*
X264301Y51418D02*
X262382Y53817D01*
X271018Y53817D01*
X271018Y51418D02*
X271018Y56216D01*
X271978Y60127D02*
X261422Y63966D01*
X262382Y69666D02*
X271018Y69666D01*
X262382Y67268D02*
X262382Y72065D01*
X262382Y81079D02*
X271018Y75322D01*
X271018Y81079D02*
X262382Y75322D01*
X262382Y85251D02*
X271018Y85251D01*
X262382Y85251D02*
X262382Y87650D01*
X262384Y87747D01*
X262390Y87843D01*
X262399Y87939D01*
X262413Y88035D01*
X262430Y88130D01*
X262452Y88224D01*
X262477Y88317D01*
X262505Y88410D01*
X262538Y88501D01*
X262574Y88590D01*
X262614Y88678D01*
X262657Y88765D01*
X262703Y88850D01*
X262753Y88932D01*
X262807Y89013D01*
X262863Y89091D01*
X262923Y89167D01*
X262985Y89241D01*
X263051Y89312D01*
X263119Y89380D01*
X263190Y89446D01*
X263264Y89508D01*
X263340Y89568D01*
X263418Y89624D01*
X263499Y89678D01*
X263582Y89728D01*
X263666Y89774D01*
X263753Y89817D01*
X263841Y89857D01*
X263930Y89893D01*
X264021Y89926D01*
X264114Y89954D01*
X264207Y89979D01*
X264301Y90001D01*
X264396Y90018D01*
X264492Y90032D01*
X264588Y90041D01*
X264684Y90047D01*
X264781Y90049D01*
X264781Y90048D02*
X268619Y90048D01*
X268619Y90049D02*
X268716Y90047D01*
X268812Y90041D01*
X268908Y90032D01*
X269004Y90018D01*
X269099Y90001D01*
X269193Y89979D01*
X269286Y89954D01*
X269379Y89926D01*
X269470Y89893D01*
X269559Y89857D01*
X269647Y89817D01*
X269734Y89774D01*
X269819Y89728D01*
X269901Y89678D01*
X269982Y89624D01*
X270060Y89568D01*
X270136Y89508D01*
X270210Y89446D01*
X270281Y89380D01*
X270349Y89312D01*
X270415Y89241D01*
X270477Y89167D01*
X270537Y89091D01*
X270593Y89013D01*
X270647Y88932D01*
X270697Y88850D01*
X270743Y88765D01*
X270786Y88678D01*
X270826Y88590D01*
X270862Y88501D01*
X270895Y88410D01*
X270923Y88317D01*
X270948Y88224D01*
X270970Y88130D01*
X270987Y88035D01*
X271001Y87939D01*
X271010Y87843D01*
X271016Y87747D01*
X271018Y87650D01*
X271018Y85251D01*
X17018Y29972D02*
X8382Y29972D01*
X8382Y32371D01*
X8384Y32468D01*
X8390Y32564D01*
X8399Y32660D01*
X8413Y32756D01*
X8430Y32851D01*
X8452Y32945D01*
X8477Y33038D01*
X8505Y33131D01*
X8538Y33222D01*
X8574Y33311D01*
X8614Y33399D01*
X8657Y33486D01*
X8703Y33571D01*
X8753Y33653D01*
X8807Y33734D01*
X8863Y33812D01*
X8923Y33888D01*
X8985Y33962D01*
X9051Y34033D01*
X9119Y34101D01*
X9190Y34167D01*
X9264Y34229D01*
X9340Y34289D01*
X9418Y34345D01*
X9499Y34399D01*
X9581Y34449D01*
X9666Y34495D01*
X9753Y34538D01*
X9841Y34578D01*
X9930Y34614D01*
X10021Y34647D01*
X10114Y34675D01*
X10207Y34700D01*
X10301Y34722D01*
X10396Y34739D01*
X10492Y34753D01*
X10588Y34762D01*
X10684Y34768D01*
X10781Y34770D01*
X10878Y34768D01*
X10974Y34762D01*
X11070Y34753D01*
X11166Y34739D01*
X11261Y34722D01*
X11355Y34700D01*
X11448Y34675D01*
X11541Y34647D01*
X11632Y34614D01*
X11721Y34578D01*
X11809Y34538D01*
X11896Y34495D01*
X11981Y34449D01*
X12063Y34399D01*
X12144Y34345D01*
X12222Y34289D01*
X12298Y34229D01*
X12372Y34167D01*
X12443Y34101D01*
X12511Y34033D01*
X12577Y33962D01*
X12639Y33888D01*
X12699Y33812D01*
X12755Y33734D01*
X12809Y33653D01*
X12859Y33571D01*
X12905Y33486D01*
X12948Y33399D01*
X12988Y33311D01*
X13024Y33222D01*
X13057Y33131D01*
X13085Y33038D01*
X13110Y32945D01*
X13132Y32851D01*
X13149Y32756D01*
X13163Y32660D01*
X13172Y32564D01*
X13178Y32468D01*
X13180Y32371D01*
X13180Y29972D01*
X10301Y38616D02*
X8382Y41015D01*
X17018Y41015D01*
X17018Y38616D02*
X17018Y43414D01*
X17018Y47176D02*
X16538Y47176D01*
X16538Y47656D01*
X17018Y47656D01*
X17018Y47176D01*
X12700Y51418D02*
X12530Y51420D01*
X12360Y51426D01*
X12191Y51436D01*
X12021Y51450D01*
X11852Y51469D01*
X11684Y51491D01*
X11516Y51517D01*
X11349Y51547D01*
X11183Y51582D01*
X11017Y51620D01*
X10852Y51662D01*
X10689Y51708D01*
X10527Y51758D01*
X10365Y51812D01*
X10206Y51869D01*
X10047Y51931D01*
X9890Y51996D01*
X9735Y52065D01*
X9581Y52138D01*
X9505Y52166D01*
X9430Y52198D01*
X9356Y52233D01*
X9284Y52271D01*
X9214Y52313D01*
X9146Y52358D01*
X9080Y52406D01*
X9016Y52457D01*
X8955Y52511D01*
X8896Y52567D01*
X8840Y52627D01*
X8787Y52688D01*
X8737Y52752D01*
X8689Y52819D01*
X8645Y52887D01*
X8604Y52958D01*
X8566Y53030D01*
X8532Y53104D01*
X8501Y53179D01*
X8473Y53256D01*
X8449Y53334D01*
X8429Y53413D01*
X8412Y53493D01*
X8399Y53573D01*
X8389Y53654D01*
X8384Y53735D01*
X8382Y53817D01*
X8384Y53899D01*
X8389Y53980D01*
X8399Y54061D01*
X8412Y54141D01*
X8429Y54221D01*
X8449Y54300D01*
X8473Y54378D01*
X8501Y54455D01*
X8532Y54530D01*
X8566Y54604D01*
X8604Y54676D01*
X8645Y54747D01*
X8689Y54815D01*
X8737Y54882D01*
X8787Y54946D01*
X8840Y55007D01*
X8896Y55067D01*
X8955Y55123D01*
X9016Y55177D01*
X9080Y55228D01*
X9146Y55276D01*
X9214Y55321D01*
X9284Y55363D01*
X9356Y55401D01*
X9430Y55436D01*
X9505Y55468D01*
X9581Y55496D01*
X9735Y55569D01*
X9890Y55638D01*
X10047Y55703D01*
X10206Y55765D01*
X10365Y55822D01*
X10527Y55876D01*
X10689Y55926D01*
X10852Y55972D01*
X11017Y56014D01*
X11183Y56052D01*
X11349Y56087D01*
X11516Y56117D01*
X11684Y56143D01*
X11852Y56165D01*
X12021Y56184D01*
X12191Y56198D01*
X12360Y56208D01*
X12530Y56214D01*
X12700Y56216D01*
X12700Y51418D02*
X12870Y51420D01*
X13040Y51426D01*
X13209Y51436D01*
X13379Y51450D01*
X13548Y51469D01*
X13716Y51491D01*
X13884Y51517D01*
X14051Y51547D01*
X14217Y51582D01*
X14383Y51620D01*
X14548Y51662D01*
X14711Y51708D01*
X14873Y51758D01*
X15035Y51812D01*
X15194Y51869D01*
X15353Y51931D01*
X15510Y51996D01*
X15665Y52065D01*
X15819Y52138D01*
X15895Y52166D01*
X15970Y52198D01*
X16044Y52233D01*
X16116Y52271D01*
X16186Y52313D01*
X16254Y52358D01*
X16320Y52406D01*
X16384Y52457D01*
X16445Y52511D01*
X16504Y52567D01*
X16560Y52627D01*
X16613Y52688D01*
X16663Y52752D01*
X16711Y52819D01*
X16755Y52887D01*
X16796Y52958D01*
X16834Y53030D01*
X16868Y53104D01*
X16899Y53179D01*
X16927Y53256D01*
X16951Y53334D01*
X16971Y53413D01*
X16988Y53493D01*
X17001Y53573D01*
X17011Y53654D01*
X17016Y53735D01*
X17018Y53817D01*
X15819Y55496D02*
X15665Y55569D01*
X15510Y55638D01*
X15353Y55703D01*
X15194Y55765D01*
X15035Y55822D01*
X14873Y55876D01*
X14711Y55926D01*
X14548Y55972D01*
X14383Y56014D01*
X14217Y56052D01*
X14051Y56087D01*
X13884Y56117D01*
X13716Y56143D01*
X13548Y56165D01*
X13379Y56184D01*
X13209Y56198D01*
X13040Y56208D01*
X12870Y56214D01*
X12700Y56216D01*
X15819Y55496D02*
X15895Y55468D01*
X15970Y55436D01*
X16044Y55401D01*
X16116Y55363D01*
X16186Y55321D01*
X16254Y55276D01*
X16320Y55228D01*
X16384Y55177D01*
X16445Y55123D01*
X16504Y55067D01*
X16560Y55007D01*
X16613Y54946D01*
X16663Y54882D01*
X16711Y54815D01*
X16755Y54747D01*
X16796Y54676D01*
X16834Y54604D01*
X16868Y54530D01*
X16899Y54455D01*
X16927Y54378D01*
X16951Y54300D01*
X16971Y54221D01*
X16988Y54141D01*
X17001Y54061D01*
X17011Y53980D01*
X17016Y53899D01*
X17018Y53817D01*
X15099Y51898D02*
X10301Y55736D01*
X186182Y31101D02*
X188101Y28702D01*
X186182Y31101D02*
X194818Y31101D01*
X194818Y28702D02*
X194818Y33500D01*
X194818Y37262D02*
X194338Y37262D01*
X194338Y37742D01*
X194818Y37742D01*
X194818Y37262D01*
X187142Y41504D02*
X186182Y41504D01*
X186182Y46301D01*
X194818Y43902D01*
X162701Y28702D02*
X160782Y31101D01*
X169418Y31101D01*
X169418Y28702D02*
X169418Y33500D01*
X169418Y37262D02*
X168938Y37262D01*
X168938Y37742D01*
X169418Y37742D01*
X169418Y37262D01*
X164620Y41504D02*
X164620Y44382D01*
X164622Y44468D01*
X164628Y44554D01*
X164637Y44640D01*
X164651Y44725D01*
X164668Y44809D01*
X164689Y44893D01*
X164714Y44975D01*
X164742Y45056D01*
X164774Y45136D01*
X164810Y45215D01*
X164849Y45291D01*
X164892Y45366D01*
X164937Y45439D01*
X164987Y45510D01*
X165039Y45578D01*
X165094Y45645D01*
X165152Y45708D01*
X165213Y45769D01*
X165276Y45827D01*
X165343Y45882D01*
X165411Y45935D01*
X165482Y45984D01*
X165555Y46029D01*
X165630Y46072D01*
X165706Y46111D01*
X165785Y46147D01*
X165865Y46179D01*
X165946Y46207D01*
X166029Y46232D01*
X166112Y46253D01*
X166196Y46270D01*
X166281Y46284D01*
X166367Y46293D01*
X166453Y46299D01*
X166539Y46301D01*
X167019Y46301D01*
X167116Y46299D01*
X167212Y46293D01*
X167308Y46284D01*
X167404Y46270D01*
X167499Y46253D01*
X167593Y46231D01*
X167686Y46206D01*
X167779Y46178D01*
X167870Y46145D01*
X167959Y46109D01*
X168047Y46069D01*
X168134Y46026D01*
X168219Y45980D01*
X168301Y45930D01*
X168382Y45876D01*
X168460Y45820D01*
X168536Y45760D01*
X168610Y45698D01*
X168681Y45632D01*
X168749Y45564D01*
X168815Y45493D01*
X168877Y45419D01*
X168937Y45343D01*
X168993Y45265D01*
X169047Y45184D01*
X169097Y45101D01*
X169143Y45017D01*
X169186Y44930D01*
X169226Y44842D01*
X169262Y44753D01*
X169295Y44662D01*
X169323Y44569D01*
X169348Y44476D01*
X169370Y44382D01*
X169387Y44287D01*
X169401Y44191D01*
X169410Y44095D01*
X169416Y43999D01*
X169418Y43902D01*
X169416Y43805D01*
X169410Y43709D01*
X169401Y43613D01*
X169387Y43517D01*
X169370Y43422D01*
X169348Y43328D01*
X169323Y43235D01*
X169295Y43142D01*
X169262Y43051D01*
X169226Y42962D01*
X169186Y42874D01*
X169143Y42787D01*
X169097Y42702D01*
X169047Y42620D01*
X168993Y42539D01*
X168937Y42461D01*
X168877Y42385D01*
X168815Y42311D01*
X168749Y42240D01*
X168681Y42172D01*
X168610Y42106D01*
X168536Y42044D01*
X168460Y41984D01*
X168382Y41928D01*
X168301Y41874D01*
X168219Y41824D01*
X168134Y41778D01*
X168047Y41735D01*
X167959Y41695D01*
X167870Y41659D01*
X167779Y41626D01*
X167686Y41598D01*
X167593Y41573D01*
X167499Y41551D01*
X167404Y41534D01*
X167308Y41520D01*
X167212Y41511D01*
X167116Y41505D01*
X167019Y41503D01*
X167019Y41504D02*
X164620Y41504D01*
X164497Y41506D01*
X164374Y41512D01*
X164251Y41522D01*
X164129Y41536D01*
X164007Y41553D01*
X163886Y41575D01*
X163766Y41600D01*
X163646Y41630D01*
X163528Y41663D01*
X163411Y41700D01*
X163294Y41740D01*
X163180Y41784D01*
X163066Y41832D01*
X162955Y41884D01*
X162845Y41939D01*
X162737Y41998D01*
X162630Y42060D01*
X162526Y42125D01*
X162424Y42194D01*
X162324Y42266D01*
X162227Y42341D01*
X162132Y42420D01*
X162040Y42501D01*
X161950Y42585D01*
X161863Y42672D01*
X161779Y42762D01*
X161698Y42854D01*
X161619Y42949D01*
X161544Y43046D01*
X161472Y43146D01*
X161403Y43248D01*
X161338Y43352D01*
X161276Y43459D01*
X161217Y43567D01*
X161162Y43677D01*
X161110Y43788D01*
X161063Y43902D01*
X161018Y44016D01*
X160978Y44133D01*
X160941Y44250D01*
X160908Y44368D01*
X160878Y44488D01*
X160853Y44608D01*
X160831Y44729D01*
X160814Y44851D01*
X160800Y44973D01*
X160790Y45096D01*
X160784Y45219D01*
X160782Y45342D01*
X137301Y28702D02*
X135382Y31101D01*
X144018Y31101D01*
X144018Y28702D02*
X144018Y33500D01*
X144018Y37262D02*
X143538Y37262D01*
X143538Y37742D01*
X144018Y37742D01*
X144018Y37262D01*
X144018Y41504D02*
X144018Y44382D01*
X144016Y44468D01*
X144010Y44554D01*
X144001Y44640D01*
X143987Y44725D01*
X143970Y44809D01*
X143949Y44893D01*
X143924Y44975D01*
X143896Y45056D01*
X143864Y45136D01*
X143828Y45215D01*
X143789Y45291D01*
X143746Y45366D01*
X143701Y45439D01*
X143652Y45510D01*
X143599Y45578D01*
X143544Y45645D01*
X143486Y45708D01*
X143425Y45769D01*
X143362Y45827D01*
X143295Y45882D01*
X143227Y45935D01*
X143156Y45984D01*
X143083Y46029D01*
X143008Y46072D01*
X142932Y46111D01*
X142853Y46147D01*
X142773Y46179D01*
X142692Y46207D01*
X142610Y46232D01*
X142526Y46253D01*
X142442Y46270D01*
X142357Y46284D01*
X142271Y46293D01*
X142185Y46299D01*
X142099Y46301D01*
X141139Y46301D01*
X141053Y46299D01*
X140967Y46293D01*
X140881Y46284D01*
X140796Y46270D01*
X140712Y46253D01*
X140628Y46232D01*
X140546Y46207D01*
X140465Y46179D01*
X140385Y46147D01*
X140306Y46111D01*
X140230Y46072D01*
X140155Y46029D01*
X140082Y45984D01*
X140011Y45935D01*
X139943Y45882D01*
X139876Y45827D01*
X139813Y45769D01*
X139752Y45708D01*
X139694Y45645D01*
X139639Y45578D01*
X139587Y45510D01*
X139537Y45439D01*
X139492Y45366D01*
X139449Y45291D01*
X139410Y45215D01*
X139374Y45136D01*
X139342Y45056D01*
X139314Y44975D01*
X139289Y44893D01*
X139268Y44809D01*
X139251Y44725D01*
X139237Y44640D01*
X139228Y44554D01*
X139222Y44468D01*
X139220Y44382D01*
X139220Y41504D01*
X135382Y41504D01*
X135382Y46301D01*
X118618Y29972D02*
X109982Y29972D01*
X109982Y32371D01*
X109984Y32468D01*
X109990Y32564D01*
X109999Y32660D01*
X110013Y32756D01*
X110030Y32851D01*
X110052Y32945D01*
X110077Y33038D01*
X110105Y33131D01*
X110138Y33222D01*
X110174Y33311D01*
X110214Y33399D01*
X110257Y33486D01*
X110303Y33571D01*
X110353Y33653D01*
X110407Y33734D01*
X110463Y33812D01*
X110523Y33888D01*
X110585Y33962D01*
X110651Y34033D01*
X110719Y34101D01*
X110790Y34167D01*
X110864Y34229D01*
X110940Y34289D01*
X111018Y34345D01*
X111099Y34399D01*
X111182Y34449D01*
X111266Y34495D01*
X111353Y34538D01*
X111441Y34578D01*
X111530Y34614D01*
X111621Y34647D01*
X111714Y34675D01*
X111807Y34700D01*
X111901Y34722D01*
X111996Y34739D01*
X112092Y34753D01*
X112188Y34762D01*
X112284Y34768D01*
X112381Y34770D01*
X112478Y34768D01*
X112574Y34762D01*
X112670Y34753D01*
X112766Y34739D01*
X112861Y34722D01*
X112955Y34700D01*
X113048Y34675D01*
X113141Y34647D01*
X113232Y34614D01*
X113321Y34578D01*
X113409Y34538D01*
X113496Y34495D01*
X113581Y34449D01*
X113663Y34399D01*
X113744Y34345D01*
X113822Y34289D01*
X113898Y34229D01*
X113972Y34167D01*
X114043Y34101D01*
X114111Y34033D01*
X114177Y33962D01*
X114239Y33888D01*
X114299Y33812D01*
X114355Y33734D01*
X114409Y33653D01*
X114459Y33571D01*
X114505Y33486D01*
X114548Y33399D01*
X114588Y33311D01*
X114624Y33222D01*
X114657Y33131D01*
X114685Y33038D01*
X114710Y32945D01*
X114732Y32851D01*
X114749Y32756D01*
X114763Y32660D01*
X114772Y32564D01*
X114778Y32468D01*
X114780Y32371D01*
X114780Y29972D01*
X111901Y38616D02*
X109982Y41015D01*
X118618Y41015D01*
X118618Y38616D02*
X118618Y43414D01*
X118618Y47176D02*
X118138Y47176D01*
X118138Y47656D01*
X118618Y47656D01*
X118618Y47176D01*
X116699Y51418D02*
X109982Y53337D01*
X116699Y51418D02*
X116699Y56216D01*
X114780Y54776D02*
X118618Y54776D01*
X93218Y29972D02*
X84582Y29972D01*
X84582Y32371D01*
X84584Y32468D01*
X84590Y32564D01*
X84599Y32660D01*
X84613Y32756D01*
X84630Y32851D01*
X84652Y32945D01*
X84677Y33038D01*
X84705Y33131D01*
X84738Y33222D01*
X84774Y33311D01*
X84814Y33399D01*
X84857Y33486D01*
X84903Y33571D01*
X84953Y33653D01*
X85007Y33734D01*
X85063Y33812D01*
X85123Y33888D01*
X85185Y33962D01*
X85251Y34033D01*
X85319Y34101D01*
X85390Y34167D01*
X85464Y34229D01*
X85540Y34289D01*
X85618Y34345D01*
X85699Y34399D01*
X85782Y34449D01*
X85866Y34495D01*
X85953Y34538D01*
X86041Y34578D01*
X86130Y34614D01*
X86221Y34647D01*
X86314Y34675D01*
X86407Y34700D01*
X86501Y34722D01*
X86596Y34739D01*
X86692Y34753D01*
X86788Y34762D01*
X86884Y34768D01*
X86981Y34770D01*
X87078Y34768D01*
X87174Y34762D01*
X87270Y34753D01*
X87366Y34739D01*
X87461Y34722D01*
X87555Y34700D01*
X87648Y34675D01*
X87741Y34647D01*
X87832Y34614D01*
X87921Y34578D01*
X88009Y34538D01*
X88096Y34495D01*
X88181Y34449D01*
X88263Y34399D01*
X88344Y34345D01*
X88422Y34289D01*
X88498Y34229D01*
X88572Y34167D01*
X88643Y34101D01*
X88711Y34033D01*
X88777Y33962D01*
X88839Y33888D01*
X88899Y33812D01*
X88955Y33734D01*
X89009Y33653D01*
X89059Y33571D01*
X89105Y33486D01*
X89148Y33399D01*
X89188Y33311D01*
X89224Y33222D01*
X89257Y33131D01*
X89285Y33038D01*
X89310Y32945D01*
X89332Y32851D01*
X89349Y32756D01*
X89363Y32660D01*
X89372Y32564D01*
X89378Y32468D01*
X89380Y32371D01*
X89380Y29972D01*
X86501Y38616D02*
X84582Y41015D01*
X93218Y41015D01*
X93218Y38616D02*
X93218Y43414D01*
X93218Y47176D02*
X92738Y47176D01*
X92738Y47656D01*
X93218Y47656D01*
X93218Y47176D01*
X93218Y51418D02*
X93218Y53817D01*
X93216Y53914D01*
X93210Y54010D01*
X93201Y54106D01*
X93187Y54202D01*
X93170Y54297D01*
X93148Y54391D01*
X93123Y54484D01*
X93095Y54577D01*
X93062Y54668D01*
X93026Y54757D01*
X92986Y54845D01*
X92943Y54932D01*
X92897Y55017D01*
X92847Y55099D01*
X92793Y55180D01*
X92737Y55258D01*
X92677Y55334D01*
X92615Y55408D01*
X92549Y55479D01*
X92481Y55547D01*
X92410Y55613D01*
X92336Y55675D01*
X92260Y55735D01*
X92182Y55791D01*
X92101Y55845D01*
X92019Y55895D01*
X91934Y55941D01*
X91847Y55984D01*
X91759Y56024D01*
X91670Y56060D01*
X91579Y56093D01*
X91486Y56121D01*
X91393Y56146D01*
X91299Y56168D01*
X91204Y56185D01*
X91108Y56199D01*
X91012Y56208D01*
X90916Y56214D01*
X90819Y56216D01*
X90722Y56214D01*
X90626Y56208D01*
X90530Y56199D01*
X90434Y56185D01*
X90339Y56168D01*
X90245Y56146D01*
X90152Y56121D01*
X90059Y56093D01*
X89968Y56060D01*
X89879Y56024D01*
X89791Y55984D01*
X89704Y55941D01*
X89620Y55895D01*
X89537Y55845D01*
X89456Y55791D01*
X89378Y55735D01*
X89302Y55675D01*
X89228Y55613D01*
X89157Y55547D01*
X89089Y55479D01*
X89023Y55408D01*
X88961Y55334D01*
X88901Y55258D01*
X88845Y55180D01*
X88791Y55099D01*
X88741Y55017D01*
X88695Y54932D01*
X88652Y54845D01*
X88612Y54757D01*
X88576Y54668D01*
X88543Y54577D01*
X88515Y54484D01*
X88490Y54391D01*
X88468Y54297D01*
X88451Y54202D01*
X88437Y54106D01*
X88428Y54010D01*
X88422Y53914D01*
X88420Y53817D01*
X84582Y54297D02*
X84582Y51418D01*
X84582Y54297D02*
X84584Y54383D01*
X84590Y54469D01*
X84599Y54555D01*
X84613Y54640D01*
X84630Y54724D01*
X84651Y54808D01*
X84676Y54890D01*
X84704Y54971D01*
X84736Y55051D01*
X84772Y55130D01*
X84811Y55206D01*
X84854Y55281D01*
X84899Y55354D01*
X84948Y55425D01*
X85001Y55493D01*
X85056Y55560D01*
X85114Y55623D01*
X85175Y55684D01*
X85238Y55742D01*
X85305Y55797D01*
X85373Y55850D01*
X85444Y55899D01*
X85517Y55944D01*
X85592Y55987D01*
X85668Y56026D01*
X85747Y56062D01*
X85827Y56094D01*
X85908Y56122D01*
X85990Y56147D01*
X86074Y56168D01*
X86158Y56185D01*
X86243Y56199D01*
X86329Y56208D01*
X86415Y56214D01*
X86501Y56216D01*
X86587Y56214D01*
X86673Y56208D01*
X86759Y56199D01*
X86844Y56185D01*
X86928Y56168D01*
X87012Y56147D01*
X87094Y56122D01*
X87175Y56094D01*
X87255Y56062D01*
X87334Y56026D01*
X87410Y55987D01*
X87485Y55944D01*
X87558Y55899D01*
X87629Y55850D01*
X87697Y55797D01*
X87764Y55742D01*
X87827Y55684D01*
X87888Y55623D01*
X87946Y55560D01*
X88001Y55493D01*
X88054Y55425D01*
X88103Y55354D01*
X88148Y55281D01*
X88191Y55206D01*
X88230Y55130D01*
X88266Y55051D01*
X88298Y54971D01*
X88326Y54890D01*
X88351Y54808D01*
X88372Y54724D01*
X88389Y54640D01*
X88403Y54555D01*
X88412Y54469D01*
X88418Y54383D01*
X88420Y54297D01*
X88420Y52378D01*
X67818Y29972D02*
X59182Y29972D01*
X59182Y32371D01*
X59184Y32468D01*
X59190Y32564D01*
X59199Y32660D01*
X59213Y32756D01*
X59230Y32851D01*
X59252Y32945D01*
X59277Y33038D01*
X59305Y33131D01*
X59338Y33222D01*
X59374Y33311D01*
X59414Y33399D01*
X59457Y33486D01*
X59503Y33571D01*
X59553Y33653D01*
X59607Y33734D01*
X59663Y33812D01*
X59723Y33888D01*
X59785Y33962D01*
X59851Y34033D01*
X59919Y34101D01*
X59990Y34167D01*
X60064Y34229D01*
X60140Y34289D01*
X60218Y34345D01*
X60299Y34399D01*
X60382Y34449D01*
X60466Y34495D01*
X60553Y34538D01*
X60641Y34578D01*
X60730Y34614D01*
X60821Y34647D01*
X60914Y34675D01*
X61007Y34700D01*
X61101Y34722D01*
X61196Y34739D01*
X61292Y34753D01*
X61388Y34762D01*
X61484Y34768D01*
X61581Y34770D01*
X61678Y34768D01*
X61774Y34762D01*
X61870Y34753D01*
X61966Y34739D01*
X62061Y34722D01*
X62155Y34700D01*
X62248Y34675D01*
X62341Y34647D01*
X62432Y34614D01*
X62521Y34578D01*
X62609Y34538D01*
X62696Y34495D01*
X62781Y34449D01*
X62863Y34399D01*
X62944Y34345D01*
X63022Y34289D01*
X63098Y34229D01*
X63172Y34167D01*
X63243Y34101D01*
X63311Y34033D01*
X63377Y33962D01*
X63439Y33888D01*
X63499Y33812D01*
X63555Y33734D01*
X63609Y33653D01*
X63659Y33571D01*
X63705Y33486D01*
X63748Y33399D01*
X63788Y33311D01*
X63824Y33222D01*
X63857Y33131D01*
X63885Y33038D01*
X63910Y32945D01*
X63932Y32851D01*
X63949Y32756D01*
X63963Y32660D01*
X63972Y32564D01*
X63978Y32468D01*
X63980Y32371D01*
X63980Y29972D01*
X61101Y38616D02*
X59182Y41015D01*
X67818Y41015D01*
X67818Y38616D02*
X67818Y43414D01*
X67818Y47176D02*
X67338Y47176D01*
X67338Y47656D01*
X67818Y47656D01*
X67818Y47176D01*
X59182Y54057D02*
X59184Y54149D01*
X59190Y54240D01*
X59199Y54331D01*
X59213Y54422D01*
X59230Y54512D01*
X59252Y54601D01*
X59277Y54689D01*
X59305Y54776D01*
X59338Y54862D01*
X59374Y54946D01*
X59413Y55029D01*
X59456Y55110D01*
X59503Y55189D01*
X59552Y55266D01*
X59605Y55341D01*
X59661Y55413D01*
X59720Y55483D01*
X59782Y55551D01*
X59847Y55616D01*
X59915Y55678D01*
X59985Y55737D01*
X60057Y55793D01*
X60132Y55846D01*
X60209Y55895D01*
X60288Y55942D01*
X60369Y55985D01*
X60452Y56024D01*
X60536Y56060D01*
X60622Y56093D01*
X60709Y56121D01*
X60797Y56146D01*
X60886Y56168D01*
X60976Y56185D01*
X61067Y56199D01*
X61158Y56208D01*
X61249Y56214D01*
X61341Y56216D01*
X59182Y54057D02*
X59184Y53954D01*
X59190Y53852D01*
X59199Y53750D01*
X59212Y53648D01*
X59229Y53547D01*
X59250Y53446D01*
X59274Y53347D01*
X59303Y53248D01*
X59334Y53151D01*
X59370Y53054D01*
X59408Y52959D01*
X59451Y52866D01*
X59497Y52774D01*
X59546Y52684D01*
X59598Y52596D01*
X59654Y52509D01*
X59713Y52425D01*
X59774Y52344D01*
X59839Y52264D01*
X59907Y52187D01*
X59978Y52112D01*
X60051Y52041D01*
X60127Y51972D01*
X60205Y51905D01*
X60286Y51842D01*
X60369Y51782D01*
X60454Y51725D01*
X60541Y51671D01*
X60631Y51620D01*
X60722Y51573D01*
X60814Y51529D01*
X60909Y51488D01*
X61004Y51451D01*
X61101Y51418D01*
X63020Y55496D02*
X62954Y55563D01*
X62885Y55627D01*
X62814Y55688D01*
X62740Y55746D01*
X62664Y55801D01*
X62586Y55853D01*
X62506Y55902D01*
X62424Y55948D01*
X62340Y55990D01*
X62254Y56029D01*
X62167Y56064D01*
X62079Y56095D01*
X61989Y56123D01*
X61899Y56148D01*
X61807Y56169D01*
X61715Y56186D01*
X61622Y56199D01*
X61529Y56208D01*
X61435Y56214D01*
X61341Y56216D01*
X63020Y55496D02*
X67818Y51418D01*
X67818Y56216D01*
X68778Y60127D02*
X58222Y63966D01*
X59182Y68377D02*
X67818Y68377D01*
X59182Y68377D02*
X59182Y70776D01*
X59184Y70873D01*
X59190Y70969D01*
X59199Y71065D01*
X59213Y71161D01*
X59230Y71256D01*
X59252Y71350D01*
X59277Y71443D01*
X59305Y71536D01*
X59338Y71627D01*
X59374Y71716D01*
X59414Y71804D01*
X59457Y71891D01*
X59503Y71976D01*
X59553Y72058D01*
X59607Y72139D01*
X59663Y72217D01*
X59723Y72293D01*
X59785Y72367D01*
X59851Y72438D01*
X59919Y72506D01*
X59990Y72572D01*
X60064Y72634D01*
X60140Y72694D01*
X60218Y72750D01*
X60299Y72804D01*
X60382Y72854D01*
X60466Y72900D01*
X60553Y72943D01*
X60641Y72983D01*
X60730Y73019D01*
X60821Y73052D01*
X60914Y73080D01*
X61007Y73105D01*
X61101Y73127D01*
X61196Y73144D01*
X61292Y73158D01*
X61388Y73167D01*
X61484Y73173D01*
X61581Y73175D01*
X61678Y73173D01*
X61774Y73167D01*
X61870Y73158D01*
X61966Y73144D01*
X62061Y73127D01*
X62155Y73105D01*
X62248Y73080D01*
X62341Y73052D01*
X62432Y73019D01*
X62521Y72983D01*
X62609Y72943D01*
X62696Y72900D01*
X62781Y72854D01*
X62863Y72804D01*
X62944Y72750D01*
X63022Y72694D01*
X63098Y72634D01*
X63172Y72572D01*
X63243Y72506D01*
X63311Y72438D01*
X63377Y72367D01*
X63439Y72293D01*
X63499Y72217D01*
X63555Y72139D01*
X63609Y72058D01*
X63659Y71976D01*
X63705Y71891D01*
X63748Y71804D01*
X63788Y71716D01*
X63824Y71627D01*
X63857Y71536D01*
X63885Y71443D01*
X63910Y71350D01*
X63932Y71256D01*
X63949Y71161D01*
X63963Y71065D01*
X63972Y70969D01*
X63978Y70873D01*
X63980Y70776D01*
X63980Y68377D01*
X59182Y76801D02*
X67818Y78720D01*
X62061Y80639D01*
X67818Y82558D01*
X59182Y84477D01*
X59182Y89038D02*
X67818Y89038D01*
X63980Y91917D02*
X59182Y89038D01*
X63980Y91917D02*
X59182Y94795D01*
X67818Y94795D01*
X42418Y29972D02*
X33782Y29972D01*
X33782Y32371D01*
X33784Y32468D01*
X33790Y32564D01*
X33799Y32660D01*
X33813Y32756D01*
X33830Y32851D01*
X33852Y32945D01*
X33877Y33038D01*
X33905Y33131D01*
X33938Y33222D01*
X33974Y33311D01*
X34014Y33399D01*
X34057Y33486D01*
X34103Y33571D01*
X34153Y33653D01*
X34207Y33734D01*
X34263Y33812D01*
X34323Y33888D01*
X34385Y33962D01*
X34451Y34033D01*
X34519Y34101D01*
X34590Y34167D01*
X34664Y34229D01*
X34740Y34289D01*
X34818Y34345D01*
X34899Y34399D01*
X34982Y34449D01*
X35066Y34495D01*
X35153Y34538D01*
X35241Y34578D01*
X35330Y34614D01*
X35421Y34647D01*
X35514Y34675D01*
X35607Y34700D01*
X35701Y34722D01*
X35796Y34739D01*
X35892Y34753D01*
X35988Y34762D01*
X36084Y34768D01*
X36181Y34770D01*
X36278Y34768D01*
X36374Y34762D01*
X36470Y34753D01*
X36566Y34739D01*
X36661Y34722D01*
X36755Y34700D01*
X36848Y34675D01*
X36941Y34647D01*
X37032Y34614D01*
X37121Y34578D01*
X37209Y34538D01*
X37296Y34495D01*
X37381Y34449D01*
X37463Y34399D01*
X37544Y34345D01*
X37622Y34289D01*
X37698Y34229D01*
X37772Y34167D01*
X37843Y34101D01*
X37911Y34033D01*
X37977Y33962D01*
X38039Y33888D01*
X38099Y33812D01*
X38155Y33734D01*
X38209Y33653D01*
X38259Y33571D01*
X38305Y33486D01*
X38348Y33399D01*
X38388Y33311D01*
X38424Y33222D01*
X38457Y33131D01*
X38485Y33038D01*
X38510Y32945D01*
X38532Y32851D01*
X38549Y32756D01*
X38563Y32660D01*
X38572Y32564D01*
X38578Y32468D01*
X38580Y32371D01*
X38580Y29972D01*
X35701Y38616D02*
X33782Y41015D01*
X42418Y41015D01*
X42418Y38616D02*
X42418Y43414D01*
X42418Y47176D02*
X41938Y47176D01*
X41938Y47656D01*
X42418Y47656D01*
X42418Y47176D01*
X35701Y51418D02*
X33782Y53817D01*
X42418Y53817D01*
X42418Y51418D02*
X42418Y56216D01*
X211582Y29972D02*
X220218Y29972D01*
X211582Y29972D02*
X211582Y32371D01*
X211584Y32468D01*
X211590Y32564D01*
X211599Y32660D01*
X211613Y32756D01*
X211630Y32851D01*
X211652Y32945D01*
X211677Y33038D01*
X211705Y33131D01*
X211738Y33222D01*
X211774Y33311D01*
X211814Y33399D01*
X211857Y33486D01*
X211903Y33571D01*
X211953Y33653D01*
X212007Y33734D01*
X212063Y33812D01*
X212123Y33888D01*
X212185Y33962D01*
X212251Y34033D01*
X212319Y34101D01*
X212390Y34167D01*
X212464Y34229D01*
X212540Y34289D01*
X212618Y34345D01*
X212699Y34399D01*
X212782Y34449D01*
X212866Y34495D01*
X212953Y34538D01*
X213041Y34578D01*
X213130Y34614D01*
X213221Y34647D01*
X213314Y34675D01*
X213407Y34700D01*
X213501Y34722D01*
X213596Y34739D01*
X213692Y34753D01*
X213788Y34762D01*
X213884Y34768D01*
X213981Y34770D01*
X214078Y34768D01*
X214174Y34762D01*
X214270Y34753D01*
X214366Y34739D01*
X214461Y34722D01*
X214555Y34700D01*
X214648Y34675D01*
X214741Y34647D01*
X214832Y34614D01*
X214921Y34578D01*
X215009Y34538D01*
X215096Y34495D01*
X215181Y34449D01*
X215263Y34399D01*
X215344Y34345D01*
X215422Y34289D01*
X215498Y34229D01*
X215572Y34167D01*
X215643Y34101D01*
X215711Y34033D01*
X215777Y33962D01*
X215839Y33888D01*
X215899Y33812D01*
X215955Y33734D01*
X216009Y33653D01*
X216059Y33571D01*
X216105Y33486D01*
X216148Y33399D01*
X216188Y33311D01*
X216224Y33222D01*
X216257Y33131D01*
X216285Y33038D01*
X216310Y32945D01*
X216332Y32851D01*
X216349Y32756D01*
X216363Y32660D01*
X216372Y32564D01*
X216378Y32468D01*
X216380Y32371D01*
X216380Y29972D01*
X216380Y32851D02*
X220218Y34770D01*
X220218Y41605D02*
X220216Y41691D01*
X220210Y41777D01*
X220201Y41863D01*
X220187Y41948D01*
X220170Y42032D01*
X220149Y42116D01*
X220124Y42198D01*
X220096Y42279D01*
X220064Y42359D01*
X220028Y42438D01*
X219989Y42514D01*
X219946Y42589D01*
X219901Y42662D01*
X219852Y42733D01*
X219799Y42801D01*
X219744Y42868D01*
X219686Y42931D01*
X219625Y42992D01*
X219562Y43050D01*
X219495Y43105D01*
X219427Y43158D01*
X219356Y43207D01*
X219283Y43252D01*
X219208Y43295D01*
X219132Y43334D01*
X219053Y43370D01*
X218973Y43402D01*
X218892Y43430D01*
X218810Y43455D01*
X218726Y43476D01*
X218642Y43493D01*
X218557Y43507D01*
X218471Y43516D01*
X218385Y43522D01*
X218299Y43524D01*
X220218Y41605D02*
X220216Y41482D01*
X220211Y41359D01*
X220201Y41236D01*
X220188Y41114D01*
X220171Y40992D01*
X220151Y40870D01*
X220127Y40750D01*
X220099Y40630D01*
X220068Y40511D01*
X220032Y40393D01*
X219994Y40276D01*
X219952Y40160D01*
X219906Y40046D01*
X219857Y39933D01*
X219805Y39822D01*
X219749Y39712D01*
X219690Y39604D01*
X219627Y39498D01*
X219562Y39394D01*
X219493Y39291D01*
X219421Y39191D01*
X219346Y39094D01*
X219269Y38998D01*
X219188Y38905D01*
X219105Y38814D01*
X219019Y38726D01*
X213501Y38967D02*
X213415Y38969D01*
X213329Y38975D01*
X213243Y38984D01*
X213158Y38998D01*
X213074Y39015D01*
X212990Y39036D01*
X212908Y39061D01*
X212827Y39089D01*
X212747Y39121D01*
X212668Y39157D01*
X212592Y39196D01*
X212517Y39239D01*
X212444Y39284D01*
X212373Y39333D01*
X212305Y39386D01*
X212238Y39441D01*
X212175Y39499D01*
X212114Y39560D01*
X212056Y39623D01*
X212001Y39690D01*
X211948Y39758D01*
X211899Y39829D01*
X211854Y39902D01*
X211811Y39977D01*
X211772Y40053D01*
X211736Y40132D01*
X211704Y40212D01*
X211676Y40293D01*
X211651Y40375D01*
X211630Y40459D01*
X211613Y40543D01*
X211599Y40628D01*
X211590Y40714D01*
X211584Y40800D01*
X211582Y40886D01*
X211584Y41002D01*
X211589Y41117D01*
X211599Y41233D01*
X211612Y41348D01*
X211628Y41462D01*
X211649Y41576D01*
X211673Y41690D01*
X211701Y41802D01*
X211732Y41913D01*
X211767Y42024D01*
X211805Y42133D01*
X211847Y42241D01*
X211892Y42347D01*
X211941Y42453D01*
X211993Y42556D01*
X212048Y42658D01*
X212107Y42757D01*
X212169Y42855D01*
X212234Y42951D01*
X212302Y43045D01*
X215180Y39926D02*
X215134Y39851D01*
X215084Y39778D01*
X215031Y39708D01*
X214975Y39640D01*
X214916Y39575D01*
X214854Y39512D01*
X214790Y39453D01*
X214722Y39396D01*
X214652Y39342D01*
X214580Y39292D01*
X214506Y39245D01*
X214430Y39201D01*
X214351Y39161D01*
X214271Y39125D01*
X214190Y39092D01*
X214107Y39063D01*
X214022Y39037D01*
X213937Y39015D01*
X213851Y38998D01*
X213764Y38984D01*
X213677Y38974D01*
X213589Y38968D01*
X213501Y38966D01*
X216620Y42565D02*
X216666Y42639D01*
X216716Y42712D01*
X216769Y42782D01*
X216825Y42850D01*
X216884Y42915D01*
X216946Y42978D01*
X217011Y43037D01*
X217078Y43094D01*
X217148Y43148D01*
X217220Y43198D01*
X217294Y43245D01*
X217370Y43289D01*
X217449Y43329D01*
X217529Y43365D01*
X217610Y43398D01*
X217693Y43428D01*
X217778Y43453D01*
X217863Y43475D01*
X217949Y43492D01*
X218036Y43506D01*
X218123Y43516D01*
X218211Y43522D01*
X218299Y43524D01*
X216620Y42565D02*
X215180Y39926D01*
X211582Y49355D02*
X220218Y49355D01*
X211582Y46956D02*
X211582Y51754D01*
X17018Y125561D02*
X8382Y122682D01*
X8382Y128439D02*
X17018Y125561D01*
X17018Y134187D02*
X17018Y136106D01*
X17018Y134187D02*
X17016Y134101D01*
X17010Y134015D01*
X17001Y133929D01*
X16987Y133844D01*
X16970Y133760D01*
X16949Y133676D01*
X16924Y133594D01*
X16896Y133513D01*
X16864Y133433D01*
X16828Y133354D01*
X16789Y133278D01*
X16746Y133203D01*
X16701Y133130D01*
X16652Y133059D01*
X16599Y132991D01*
X16544Y132924D01*
X16486Y132861D01*
X16425Y132800D01*
X16362Y132742D01*
X16295Y132687D01*
X16227Y132635D01*
X16156Y132585D01*
X16083Y132540D01*
X16008Y132497D01*
X15932Y132458D01*
X15853Y132422D01*
X15773Y132390D01*
X15692Y132362D01*
X15610Y132337D01*
X15526Y132316D01*
X15442Y132299D01*
X15357Y132285D01*
X15271Y132276D01*
X15185Y132270D01*
X15099Y132268D01*
X10301Y132268D01*
X10215Y132270D01*
X10129Y132276D01*
X10043Y132285D01*
X9958Y132299D01*
X9874Y132316D01*
X9790Y132337D01*
X9708Y132362D01*
X9627Y132390D01*
X9547Y132422D01*
X9468Y132458D01*
X9392Y132497D01*
X9317Y132540D01*
X9244Y132585D01*
X9173Y132634D01*
X9105Y132687D01*
X9038Y132742D01*
X8975Y132800D01*
X8914Y132861D01*
X8856Y132924D01*
X8801Y132991D01*
X8749Y133059D01*
X8699Y133130D01*
X8654Y133203D01*
X8611Y133278D01*
X8572Y133354D01*
X8536Y133433D01*
X8504Y133513D01*
X8476Y133594D01*
X8451Y133676D01*
X8430Y133760D01*
X8413Y133844D01*
X8399Y133929D01*
X8390Y134015D01*
X8384Y134101D01*
X8382Y134187D01*
X8382Y136106D01*
X17018Y141807D02*
X17018Y143726D01*
X17018Y141807D02*
X17016Y141721D01*
X17010Y141635D01*
X17001Y141549D01*
X16987Y141464D01*
X16970Y141380D01*
X16949Y141296D01*
X16924Y141214D01*
X16896Y141133D01*
X16864Y141053D01*
X16828Y140974D01*
X16789Y140898D01*
X16746Y140823D01*
X16701Y140750D01*
X16652Y140679D01*
X16599Y140611D01*
X16544Y140544D01*
X16486Y140481D01*
X16425Y140420D01*
X16362Y140362D01*
X16295Y140307D01*
X16227Y140255D01*
X16156Y140205D01*
X16083Y140160D01*
X16008Y140117D01*
X15932Y140078D01*
X15853Y140042D01*
X15773Y140010D01*
X15692Y139982D01*
X15610Y139957D01*
X15526Y139936D01*
X15442Y139919D01*
X15357Y139905D01*
X15271Y139896D01*
X15185Y139890D01*
X15099Y139888D01*
X15099Y139887D02*
X10301Y139887D01*
X10301Y139888D02*
X10215Y139890D01*
X10129Y139896D01*
X10043Y139905D01*
X9958Y139919D01*
X9874Y139936D01*
X9790Y139957D01*
X9708Y139982D01*
X9627Y140010D01*
X9547Y140042D01*
X9468Y140078D01*
X9392Y140117D01*
X9317Y140160D01*
X9244Y140205D01*
X9173Y140254D01*
X9105Y140307D01*
X9038Y140362D01*
X8975Y140420D01*
X8914Y140481D01*
X8856Y140544D01*
X8801Y140611D01*
X8749Y140679D01*
X8699Y140750D01*
X8654Y140823D01*
X8611Y140898D01*
X8572Y140974D01*
X8536Y141053D01*
X8504Y141133D01*
X8476Y141214D01*
X8451Y141296D01*
X8430Y141380D01*
X8413Y141464D01*
X8399Y141549D01*
X8390Y141635D01*
X8384Y141721D01*
X8382Y141807D01*
X8382Y143726D01*
X123952Y81777D02*
X130189Y81777D01*
X130286Y81779D01*
X130382Y81785D01*
X130478Y81794D01*
X130574Y81808D01*
X130669Y81825D01*
X130763Y81847D01*
X130856Y81872D01*
X130949Y81900D01*
X131040Y81933D01*
X131129Y81969D01*
X131217Y82009D01*
X131304Y82052D01*
X131389Y82098D01*
X131471Y82148D01*
X131552Y82202D01*
X131630Y82258D01*
X131706Y82318D01*
X131780Y82380D01*
X131851Y82446D01*
X131919Y82514D01*
X131985Y82585D01*
X132047Y82659D01*
X132107Y82735D01*
X132163Y82813D01*
X132217Y82894D01*
X132267Y82976D01*
X132313Y83061D01*
X132356Y83148D01*
X132396Y83236D01*
X132432Y83325D01*
X132465Y83416D01*
X132493Y83509D01*
X132518Y83602D01*
X132540Y83696D01*
X132557Y83791D01*
X132571Y83887D01*
X132580Y83983D01*
X132586Y84079D01*
X132588Y84176D01*
X132586Y84273D01*
X132580Y84369D01*
X132571Y84465D01*
X132557Y84561D01*
X132540Y84656D01*
X132518Y84750D01*
X132493Y84843D01*
X132465Y84936D01*
X132432Y85027D01*
X132396Y85116D01*
X132356Y85204D01*
X132313Y85291D01*
X132267Y85375D01*
X132217Y85458D01*
X132163Y85539D01*
X132107Y85617D01*
X132047Y85693D01*
X131985Y85767D01*
X131919Y85838D01*
X131851Y85906D01*
X131780Y85972D01*
X131706Y86034D01*
X131630Y86094D01*
X131552Y86150D01*
X131471Y86204D01*
X131389Y86254D01*
X131304Y86300D01*
X131217Y86343D01*
X131129Y86383D01*
X131040Y86419D01*
X130949Y86452D01*
X130856Y86480D01*
X130763Y86505D01*
X130669Y86527D01*
X130574Y86544D01*
X130478Y86558D01*
X130382Y86567D01*
X130286Y86573D01*
X130189Y86575D01*
X123952Y86575D01*
X125871Y91226D02*
X123952Y93624D01*
X132588Y93624D01*
X132588Y91226D02*
X132588Y96023D01*
X287782Y29972D02*
X296418Y29972D01*
X287782Y29972D02*
X287782Y32371D01*
X287784Y32468D01*
X287790Y32564D01*
X287799Y32660D01*
X287813Y32756D01*
X287830Y32851D01*
X287852Y32945D01*
X287877Y33038D01*
X287905Y33131D01*
X287938Y33222D01*
X287974Y33311D01*
X288014Y33399D01*
X288057Y33486D01*
X288103Y33571D01*
X288153Y33653D01*
X288207Y33734D01*
X288263Y33812D01*
X288323Y33888D01*
X288385Y33962D01*
X288451Y34033D01*
X288519Y34101D01*
X288590Y34167D01*
X288664Y34229D01*
X288740Y34289D01*
X288818Y34345D01*
X288899Y34399D01*
X288982Y34449D01*
X289066Y34495D01*
X289153Y34538D01*
X289241Y34578D01*
X289330Y34614D01*
X289421Y34647D01*
X289514Y34675D01*
X289607Y34700D01*
X289701Y34722D01*
X289796Y34739D01*
X289892Y34753D01*
X289988Y34762D01*
X290084Y34768D01*
X290181Y34770D01*
X290278Y34768D01*
X290374Y34762D01*
X290470Y34753D01*
X290566Y34739D01*
X290661Y34722D01*
X290755Y34700D01*
X290848Y34675D01*
X290941Y34647D01*
X291032Y34614D01*
X291121Y34578D01*
X291209Y34538D01*
X291296Y34495D01*
X291381Y34449D01*
X291463Y34399D01*
X291544Y34345D01*
X291622Y34289D01*
X291698Y34229D01*
X291772Y34167D01*
X291843Y34101D01*
X291911Y34033D01*
X291977Y33962D01*
X292039Y33888D01*
X292099Y33812D01*
X292155Y33734D01*
X292209Y33653D01*
X292259Y33571D01*
X292305Y33486D01*
X292348Y33399D01*
X292388Y33311D01*
X292424Y33222D01*
X292457Y33131D01*
X292485Y33038D01*
X292510Y32945D01*
X292532Y32851D01*
X292549Y32756D01*
X292563Y32660D01*
X292572Y32564D01*
X292578Y32468D01*
X292580Y32371D01*
X292580Y29972D01*
X296418Y38616D02*
X296418Y41015D01*
X296416Y41112D01*
X296410Y41208D01*
X296401Y41304D01*
X296387Y41400D01*
X296370Y41495D01*
X296348Y41589D01*
X296323Y41682D01*
X296295Y41775D01*
X296262Y41866D01*
X296226Y41955D01*
X296186Y42043D01*
X296143Y42130D01*
X296097Y42215D01*
X296047Y42297D01*
X295993Y42378D01*
X295937Y42456D01*
X295877Y42532D01*
X295815Y42606D01*
X295749Y42677D01*
X295681Y42745D01*
X295610Y42811D01*
X295536Y42873D01*
X295460Y42933D01*
X295382Y42989D01*
X295301Y43043D01*
X295219Y43093D01*
X295134Y43139D01*
X295047Y43182D01*
X294959Y43222D01*
X294870Y43258D01*
X294779Y43291D01*
X294686Y43319D01*
X294593Y43344D01*
X294499Y43366D01*
X294404Y43383D01*
X294308Y43397D01*
X294212Y43406D01*
X294116Y43412D01*
X294019Y43414D01*
X293922Y43412D01*
X293826Y43406D01*
X293730Y43397D01*
X293634Y43383D01*
X293539Y43366D01*
X293445Y43344D01*
X293352Y43319D01*
X293259Y43291D01*
X293168Y43258D01*
X293079Y43222D01*
X292991Y43182D01*
X292904Y43139D01*
X292820Y43093D01*
X292737Y43043D01*
X292656Y42989D01*
X292578Y42933D01*
X292502Y42873D01*
X292428Y42811D01*
X292357Y42745D01*
X292289Y42677D01*
X292223Y42606D01*
X292161Y42532D01*
X292101Y42456D01*
X292045Y42378D01*
X291991Y42297D01*
X291941Y42215D01*
X291895Y42130D01*
X291852Y42043D01*
X291812Y41955D01*
X291776Y41866D01*
X291743Y41775D01*
X291715Y41682D01*
X291690Y41589D01*
X291668Y41495D01*
X291651Y41400D01*
X291637Y41304D01*
X291628Y41208D01*
X291622Y41112D01*
X291620Y41015D01*
X287782Y41495D02*
X287782Y38616D01*
X287782Y41495D02*
X287784Y41581D01*
X287790Y41667D01*
X287799Y41753D01*
X287813Y41838D01*
X287830Y41922D01*
X287851Y42006D01*
X287876Y42088D01*
X287904Y42169D01*
X287936Y42249D01*
X287972Y42328D01*
X288011Y42404D01*
X288054Y42479D01*
X288099Y42552D01*
X288148Y42623D01*
X288201Y42691D01*
X288256Y42758D01*
X288314Y42821D01*
X288375Y42882D01*
X288438Y42940D01*
X288505Y42995D01*
X288573Y43048D01*
X288644Y43097D01*
X288717Y43142D01*
X288792Y43185D01*
X288868Y43224D01*
X288947Y43260D01*
X289027Y43292D01*
X289108Y43320D01*
X289190Y43345D01*
X289274Y43366D01*
X289358Y43383D01*
X289443Y43397D01*
X289529Y43406D01*
X289615Y43412D01*
X289701Y43414D01*
X289787Y43412D01*
X289873Y43406D01*
X289959Y43397D01*
X290044Y43383D01*
X290128Y43366D01*
X290212Y43345D01*
X290294Y43320D01*
X290375Y43292D01*
X290455Y43260D01*
X290534Y43224D01*
X290610Y43185D01*
X290685Y43142D01*
X290758Y43097D01*
X290829Y43048D01*
X290897Y42995D01*
X290964Y42940D01*
X291027Y42882D01*
X291088Y42821D01*
X291146Y42758D01*
X291201Y42691D01*
X291254Y42623D01*
X291303Y42552D01*
X291348Y42479D01*
X291391Y42404D01*
X291430Y42328D01*
X291466Y42249D01*
X291498Y42169D01*
X291526Y42088D01*
X291551Y42006D01*
X291572Y41922D01*
X291589Y41838D01*
X291603Y41753D01*
X291612Y41667D01*
X291618Y41581D01*
X291620Y41495D01*
X291620Y39576D01*
X295938Y47176D02*
X296418Y47176D01*
X295938Y47176D02*
X295938Y47656D01*
X296418Y47656D01*
X296418Y47176D01*
X287782Y54057D02*
X287784Y54149D01*
X287790Y54240D01*
X287799Y54331D01*
X287813Y54422D01*
X287830Y54512D01*
X287852Y54601D01*
X287877Y54689D01*
X287905Y54776D01*
X287938Y54862D01*
X287974Y54946D01*
X288013Y55029D01*
X288056Y55110D01*
X288103Y55189D01*
X288152Y55266D01*
X288205Y55341D01*
X288261Y55413D01*
X288320Y55483D01*
X288382Y55551D01*
X288447Y55616D01*
X288515Y55678D01*
X288585Y55737D01*
X288657Y55793D01*
X288732Y55846D01*
X288809Y55895D01*
X288888Y55942D01*
X288969Y55985D01*
X289052Y56024D01*
X289136Y56060D01*
X289222Y56093D01*
X289309Y56121D01*
X289397Y56146D01*
X289486Y56168D01*
X289576Y56185D01*
X289667Y56199D01*
X289758Y56208D01*
X289849Y56214D01*
X289941Y56216D01*
X287782Y54057D02*
X287784Y53954D01*
X287790Y53852D01*
X287799Y53750D01*
X287812Y53648D01*
X287829Y53547D01*
X287850Y53446D01*
X287874Y53347D01*
X287903Y53248D01*
X287934Y53151D01*
X287970Y53054D01*
X288008Y52959D01*
X288051Y52866D01*
X288097Y52774D01*
X288146Y52684D01*
X288198Y52596D01*
X288254Y52509D01*
X288313Y52425D01*
X288374Y52344D01*
X288439Y52264D01*
X288507Y52187D01*
X288578Y52112D01*
X288651Y52041D01*
X288727Y51972D01*
X288805Y51905D01*
X288886Y51842D01*
X288969Y51782D01*
X289054Y51725D01*
X289141Y51671D01*
X289231Y51620D01*
X289322Y51573D01*
X289414Y51529D01*
X289509Y51488D01*
X289604Y51451D01*
X289701Y51418D01*
X291620Y55496D02*
X291554Y55563D01*
X291485Y55627D01*
X291414Y55688D01*
X291340Y55746D01*
X291264Y55801D01*
X291186Y55853D01*
X291106Y55902D01*
X291024Y55948D01*
X290940Y55990D01*
X290854Y56029D01*
X290767Y56064D01*
X290679Y56095D01*
X290589Y56123D01*
X290499Y56148D01*
X290407Y56169D01*
X290315Y56186D01*
X290222Y56199D01*
X290129Y56208D01*
X290035Y56214D01*
X289941Y56216D01*
X291620Y55496D02*
X296418Y51418D01*
X296418Y56216D01*
X297378Y60127D02*
X286822Y63966D01*
X287782Y68447D02*
X296418Y68447D01*
X296418Y67488D02*
X296418Y69407D01*
X287782Y69407D02*
X287782Y67488D01*
X287782Y73668D02*
X296418Y73668D01*
X296418Y78466D02*
X287782Y73668D01*
X287782Y78466D02*
X296418Y78466D01*
X296418Y84906D02*
X287782Y84906D01*
X287782Y82507D02*
X287782Y87305D01*
X288981Y91762D02*
X289135Y91689D01*
X289290Y91620D01*
X289447Y91555D01*
X289606Y91493D01*
X289765Y91436D01*
X289927Y91382D01*
X290089Y91332D01*
X290252Y91286D01*
X290417Y91244D01*
X290583Y91206D01*
X290749Y91171D01*
X290916Y91141D01*
X291084Y91115D01*
X291252Y91093D01*
X291421Y91074D01*
X291591Y91060D01*
X291760Y91050D01*
X291930Y91044D01*
X292100Y91042D01*
X288981Y91762D02*
X288905Y91790D01*
X288830Y91822D01*
X288756Y91857D01*
X288684Y91895D01*
X288614Y91937D01*
X288546Y91982D01*
X288480Y92030D01*
X288416Y92081D01*
X288355Y92135D01*
X288296Y92191D01*
X288240Y92251D01*
X288187Y92312D01*
X288137Y92376D01*
X288089Y92443D01*
X288045Y92511D01*
X288004Y92582D01*
X287966Y92654D01*
X287932Y92728D01*
X287901Y92803D01*
X287873Y92880D01*
X287849Y92958D01*
X287829Y93037D01*
X287812Y93117D01*
X287799Y93197D01*
X287789Y93278D01*
X287784Y93359D01*
X287782Y93441D01*
X287784Y93523D01*
X287789Y93604D01*
X287799Y93685D01*
X287812Y93765D01*
X287829Y93845D01*
X287849Y93924D01*
X287873Y94002D01*
X287901Y94079D01*
X287932Y94154D01*
X287966Y94228D01*
X288004Y94300D01*
X288045Y94371D01*
X288089Y94439D01*
X288137Y94506D01*
X288187Y94570D01*
X288240Y94631D01*
X288296Y94691D01*
X288355Y94747D01*
X288416Y94801D01*
X288480Y94852D01*
X288546Y94900D01*
X288614Y94945D01*
X288684Y94987D01*
X288756Y95025D01*
X288830Y95060D01*
X288905Y95092D01*
X288981Y95120D01*
X289135Y95193D01*
X289290Y95262D01*
X289447Y95327D01*
X289606Y95389D01*
X289765Y95446D01*
X289927Y95500D01*
X290089Y95550D01*
X290252Y95596D01*
X290417Y95638D01*
X290583Y95676D01*
X290749Y95711D01*
X290916Y95741D01*
X291084Y95767D01*
X291252Y95789D01*
X291421Y95808D01*
X291591Y95822D01*
X291760Y95832D01*
X291930Y95838D01*
X292100Y95840D01*
X292100Y91042D02*
X292270Y91044D01*
X292440Y91050D01*
X292609Y91060D01*
X292779Y91074D01*
X292948Y91093D01*
X293116Y91115D01*
X293284Y91141D01*
X293451Y91171D01*
X293617Y91206D01*
X293783Y91244D01*
X293948Y91286D01*
X294111Y91332D01*
X294273Y91382D01*
X294435Y91436D01*
X294594Y91493D01*
X294753Y91555D01*
X294910Y91620D01*
X295065Y91689D01*
X295219Y91762D01*
X295295Y91790D01*
X295370Y91822D01*
X295444Y91857D01*
X295516Y91895D01*
X295586Y91937D01*
X295654Y91982D01*
X295720Y92030D01*
X295784Y92081D01*
X295845Y92135D01*
X295904Y92191D01*
X295960Y92251D01*
X296013Y92312D01*
X296063Y92376D01*
X296111Y92443D01*
X296155Y92511D01*
X296196Y92582D01*
X296234Y92654D01*
X296268Y92728D01*
X296299Y92803D01*
X296327Y92880D01*
X296351Y92958D01*
X296371Y93037D01*
X296388Y93117D01*
X296401Y93197D01*
X296411Y93278D01*
X296416Y93359D01*
X296418Y93441D01*
X295219Y95120D02*
X295065Y95193D01*
X294910Y95262D01*
X294753Y95327D01*
X294594Y95389D01*
X294435Y95446D01*
X294273Y95500D01*
X294111Y95550D01*
X293948Y95596D01*
X293783Y95638D01*
X293617Y95676D01*
X293451Y95711D01*
X293284Y95741D01*
X293116Y95767D01*
X292948Y95789D01*
X292779Y95808D01*
X292609Y95822D01*
X292440Y95832D01*
X292270Y95838D01*
X292100Y95840D01*
X295219Y95120D02*
X295295Y95092D01*
X295370Y95060D01*
X295444Y95025D01*
X295516Y94987D01*
X295586Y94945D01*
X295654Y94900D01*
X295720Y94852D01*
X295784Y94801D01*
X295845Y94747D01*
X295904Y94691D01*
X295960Y94631D01*
X296013Y94570D01*
X296063Y94506D01*
X296111Y94439D01*
X296155Y94371D01*
X296196Y94300D01*
X296234Y94228D01*
X296268Y94154D01*
X296299Y94079D01*
X296327Y94002D01*
X296351Y93924D01*
X296371Y93845D01*
X296388Y93765D01*
X296401Y93685D01*
X296411Y93604D01*
X296416Y93523D01*
X296418Y93441D01*
X294499Y91522D02*
X289701Y95360D01*
X313182Y29972D02*
X321818Y29972D01*
X313182Y29972D02*
X313182Y32371D01*
X313184Y32468D01*
X313190Y32564D01*
X313199Y32660D01*
X313213Y32756D01*
X313230Y32851D01*
X313252Y32945D01*
X313277Y33038D01*
X313305Y33131D01*
X313338Y33222D01*
X313374Y33311D01*
X313414Y33399D01*
X313457Y33486D01*
X313503Y33571D01*
X313553Y33653D01*
X313607Y33734D01*
X313663Y33812D01*
X313723Y33888D01*
X313785Y33962D01*
X313851Y34033D01*
X313919Y34101D01*
X313990Y34167D01*
X314064Y34229D01*
X314140Y34289D01*
X314218Y34345D01*
X314299Y34399D01*
X314382Y34449D01*
X314466Y34495D01*
X314553Y34538D01*
X314641Y34578D01*
X314730Y34614D01*
X314821Y34647D01*
X314914Y34675D01*
X315007Y34700D01*
X315101Y34722D01*
X315196Y34739D01*
X315292Y34753D01*
X315388Y34762D01*
X315484Y34768D01*
X315581Y34770D01*
X315678Y34768D01*
X315774Y34762D01*
X315870Y34753D01*
X315966Y34739D01*
X316061Y34722D01*
X316155Y34700D01*
X316248Y34675D01*
X316341Y34647D01*
X316432Y34614D01*
X316521Y34578D01*
X316609Y34538D01*
X316696Y34495D01*
X316781Y34449D01*
X316863Y34399D01*
X316944Y34345D01*
X317022Y34289D01*
X317098Y34229D01*
X317172Y34167D01*
X317243Y34101D01*
X317311Y34033D01*
X317377Y33962D01*
X317439Y33888D01*
X317499Y33812D01*
X317555Y33734D01*
X317609Y33653D01*
X317659Y33571D01*
X317705Y33486D01*
X317748Y33399D01*
X317788Y33311D01*
X317824Y33222D01*
X317857Y33131D01*
X317885Y33038D01*
X317910Y32945D01*
X317932Y32851D01*
X317949Y32756D01*
X317963Y32660D01*
X317972Y32564D01*
X317978Y32468D01*
X317980Y32371D01*
X317980Y29972D01*
X321818Y38616D02*
X321818Y41015D01*
X321816Y41112D01*
X321810Y41208D01*
X321801Y41304D01*
X321787Y41400D01*
X321770Y41495D01*
X321748Y41589D01*
X321723Y41682D01*
X321695Y41775D01*
X321662Y41866D01*
X321626Y41955D01*
X321586Y42043D01*
X321543Y42130D01*
X321497Y42215D01*
X321447Y42297D01*
X321393Y42378D01*
X321337Y42456D01*
X321277Y42532D01*
X321215Y42606D01*
X321149Y42677D01*
X321081Y42745D01*
X321010Y42811D01*
X320936Y42873D01*
X320860Y42933D01*
X320782Y42989D01*
X320701Y43043D01*
X320619Y43093D01*
X320534Y43139D01*
X320447Y43182D01*
X320359Y43222D01*
X320270Y43258D01*
X320179Y43291D01*
X320086Y43319D01*
X319993Y43344D01*
X319899Y43366D01*
X319804Y43383D01*
X319708Y43397D01*
X319612Y43406D01*
X319516Y43412D01*
X319419Y43414D01*
X319322Y43412D01*
X319226Y43406D01*
X319130Y43397D01*
X319034Y43383D01*
X318939Y43366D01*
X318845Y43344D01*
X318752Y43319D01*
X318659Y43291D01*
X318568Y43258D01*
X318479Y43222D01*
X318391Y43182D01*
X318304Y43139D01*
X318220Y43093D01*
X318137Y43043D01*
X318056Y42989D01*
X317978Y42933D01*
X317902Y42873D01*
X317828Y42811D01*
X317757Y42745D01*
X317689Y42677D01*
X317623Y42606D01*
X317561Y42532D01*
X317501Y42456D01*
X317445Y42378D01*
X317391Y42297D01*
X317341Y42215D01*
X317295Y42130D01*
X317252Y42043D01*
X317212Y41955D01*
X317176Y41866D01*
X317143Y41775D01*
X317115Y41682D01*
X317090Y41589D01*
X317068Y41495D01*
X317051Y41400D01*
X317037Y41304D01*
X317028Y41208D01*
X317022Y41112D01*
X317020Y41015D01*
X313182Y41495D02*
X313182Y38616D01*
X313182Y41495D02*
X313184Y41581D01*
X313190Y41667D01*
X313199Y41753D01*
X313213Y41838D01*
X313230Y41922D01*
X313251Y42006D01*
X313276Y42088D01*
X313304Y42169D01*
X313336Y42249D01*
X313372Y42328D01*
X313411Y42404D01*
X313454Y42479D01*
X313499Y42552D01*
X313548Y42623D01*
X313601Y42691D01*
X313656Y42758D01*
X313714Y42821D01*
X313775Y42882D01*
X313838Y42940D01*
X313905Y42995D01*
X313973Y43048D01*
X314044Y43097D01*
X314117Y43142D01*
X314192Y43185D01*
X314268Y43224D01*
X314347Y43260D01*
X314427Y43292D01*
X314508Y43320D01*
X314590Y43345D01*
X314674Y43366D01*
X314758Y43383D01*
X314843Y43397D01*
X314929Y43406D01*
X315015Y43412D01*
X315101Y43414D01*
X315187Y43412D01*
X315273Y43406D01*
X315359Y43397D01*
X315444Y43383D01*
X315528Y43366D01*
X315612Y43345D01*
X315694Y43320D01*
X315775Y43292D01*
X315855Y43260D01*
X315934Y43224D01*
X316010Y43185D01*
X316085Y43142D01*
X316158Y43097D01*
X316229Y43048D01*
X316297Y42995D01*
X316364Y42940D01*
X316427Y42882D01*
X316488Y42821D01*
X316546Y42758D01*
X316601Y42691D01*
X316654Y42623D01*
X316703Y42552D01*
X316748Y42479D01*
X316791Y42404D01*
X316830Y42328D01*
X316866Y42249D01*
X316898Y42169D01*
X316926Y42088D01*
X316951Y42006D01*
X316972Y41922D01*
X316989Y41838D01*
X317003Y41753D01*
X317012Y41667D01*
X317018Y41581D01*
X317020Y41495D01*
X317020Y39576D01*
X321338Y47176D02*
X321818Y47176D01*
X321338Y47176D02*
X321338Y47656D01*
X321818Y47656D01*
X321818Y47176D01*
X321818Y51418D02*
X321818Y53817D01*
X321816Y53914D01*
X321810Y54010D01*
X321801Y54106D01*
X321787Y54202D01*
X321770Y54297D01*
X321748Y54391D01*
X321723Y54484D01*
X321695Y54577D01*
X321662Y54668D01*
X321626Y54757D01*
X321586Y54845D01*
X321543Y54932D01*
X321497Y55017D01*
X321447Y55099D01*
X321393Y55180D01*
X321337Y55258D01*
X321277Y55334D01*
X321215Y55408D01*
X321149Y55479D01*
X321081Y55547D01*
X321010Y55613D01*
X320936Y55675D01*
X320860Y55735D01*
X320782Y55791D01*
X320701Y55845D01*
X320619Y55895D01*
X320534Y55941D01*
X320447Y55984D01*
X320359Y56024D01*
X320270Y56060D01*
X320179Y56093D01*
X320086Y56121D01*
X319993Y56146D01*
X319899Y56168D01*
X319804Y56185D01*
X319708Y56199D01*
X319612Y56208D01*
X319516Y56214D01*
X319419Y56216D01*
X319322Y56214D01*
X319226Y56208D01*
X319130Y56199D01*
X319034Y56185D01*
X318939Y56168D01*
X318845Y56146D01*
X318752Y56121D01*
X318659Y56093D01*
X318568Y56060D01*
X318479Y56024D01*
X318391Y55984D01*
X318304Y55941D01*
X318220Y55895D01*
X318137Y55845D01*
X318056Y55791D01*
X317978Y55735D01*
X317902Y55675D01*
X317828Y55613D01*
X317757Y55547D01*
X317689Y55479D01*
X317623Y55408D01*
X317561Y55334D01*
X317501Y55258D01*
X317445Y55180D01*
X317391Y55099D01*
X317341Y55017D01*
X317295Y54932D01*
X317252Y54845D01*
X317212Y54757D01*
X317176Y54668D01*
X317143Y54577D01*
X317115Y54484D01*
X317090Y54391D01*
X317068Y54297D01*
X317051Y54202D01*
X317037Y54106D01*
X317028Y54010D01*
X317022Y53914D01*
X317020Y53817D01*
X313182Y54297D02*
X313182Y51418D01*
X313182Y54297D02*
X313184Y54383D01*
X313190Y54469D01*
X313199Y54555D01*
X313213Y54640D01*
X313230Y54724D01*
X313251Y54808D01*
X313276Y54890D01*
X313304Y54971D01*
X313336Y55051D01*
X313372Y55130D01*
X313411Y55206D01*
X313454Y55281D01*
X313499Y55354D01*
X313548Y55425D01*
X313601Y55493D01*
X313656Y55560D01*
X313714Y55623D01*
X313775Y55684D01*
X313838Y55742D01*
X313905Y55797D01*
X313973Y55850D01*
X314044Y55899D01*
X314117Y55944D01*
X314192Y55987D01*
X314268Y56026D01*
X314347Y56062D01*
X314427Y56094D01*
X314508Y56122D01*
X314590Y56147D01*
X314674Y56168D01*
X314758Y56185D01*
X314843Y56199D01*
X314929Y56208D01*
X315015Y56214D01*
X315101Y56216D01*
X315187Y56214D01*
X315273Y56208D01*
X315359Y56199D01*
X315444Y56185D01*
X315528Y56168D01*
X315612Y56147D01*
X315694Y56122D01*
X315775Y56094D01*
X315855Y56062D01*
X315934Y56026D01*
X316010Y55987D01*
X316085Y55944D01*
X316158Y55899D01*
X316229Y55850D01*
X316297Y55797D01*
X316364Y55742D01*
X316427Y55684D01*
X316488Y55623D01*
X316546Y55560D01*
X316601Y55493D01*
X316654Y55425D01*
X316703Y55354D01*
X316748Y55281D01*
X316791Y55206D01*
X316830Y55130D01*
X316866Y55051D01*
X316898Y54971D01*
X316926Y54890D01*
X316951Y54808D01*
X316972Y54724D01*
X316989Y54640D01*
X317003Y54555D01*
X317012Y54469D01*
X317018Y54383D01*
X317020Y54297D01*
X317020Y52378D01*
X322778Y60127D02*
X312222Y63966D01*
X313182Y68447D02*
X321818Y68447D01*
X321818Y67488D02*
X321818Y69407D01*
X313182Y69407D02*
X313182Y67488D01*
X313182Y73668D02*
X321818Y73668D01*
X321818Y78466D02*
X313182Y73668D01*
X313182Y78466D02*
X321818Y78466D01*
X321818Y84906D02*
X313182Y84906D01*
X313182Y82507D02*
X313182Y87305D01*
X315101Y91042D02*
X313182Y93441D01*
X321818Y93441D01*
X321818Y91042D02*
X321818Y95840D01*
X338582Y29972D02*
X347218Y29972D01*
X338582Y29972D02*
X338582Y32371D01*
X338584Y32468D01*
X338590Y32564D01*
X338599Y32660D01*
X338613Y32756D01*
X338630Y32851D01*
X338652Y32945D01*
X338677Y33038D01*
X338705Y33131D01*
X338738Y33222D01*
X338774Y33311D01*
X338814Y33399D01*
X338857Y33486D01*
X338903Y33571D01*
X338953Y33653D01*
X339007Y33734D01*
X339063Y33812D01*
X339123Y33888D01*
X339185Y33962D01*
X339251Y34033D01*
X339319Y34101D01*
X339390Y34167D01*
X339464Y34229D01*
X339540Y34289D01*
X339618Y34345D01*
X339699Y34399D01*
X339782Y34449D01*
X339866Y34495D01*
X339953Y34538D01*
X340041Y34578D01*
X340130Y34614D01*
X340221Y34647D01*
X340314Y34675D01*
X340407Y34700D01*
X340501Y34722D01*
X340596Y34739D01*
X340692Y34753D01*
X340788Y34762D01*
X340884Y34768D01*
X340981Y34770D01*
X341078Y34768D01*
X341174Y34762D01*
X341270Y34753D01*
X341366Y34739D01*
X341461Y34722D01*
X341555Y34700D01*
X341648Y34675D01*
X341741Y34647D01*
X341832Y34614D01*
X341921Y34578D01*
X342009Y34538D01*
X342096Y34495D01*
X342181Y34449D01*
X342263Y34399D01*
X342344Y34345D01*
X342422Y34289D01*
X342498Y34229D01*
X342572Y34167D01*
X342643Y34101D01*
X342711Y34033D01*
X342777Y33962D01*
X342839Y33888D01*
X342899Y33812D01*
X342955Y33734D01*
X343009Y33653D01*
X343059Y33571D01*
X343105Y33486D01*
X343148Y33399D01*
X343188Y33311D01*
X343224Y33222D01*
X343257Y33131D01*
X343285Y33038D01*
X343310Y32945D01*
X343332Y32851D01*
X343349Y32756D01*
X343363Y32660D01*
X343372Y32564D01*
X343378Y32468D01*
X343380Y32371D01*
X343380Y29972D01*
X347218Y38616D02*
X347218Y41015D01*
X347216Y41112D01*
X347210Y41208D01*
X347201Y41304D01*
X347187Y41400D01*
X347170Y41495D01*
X347148Y41589D01*
X347123Y41682D01*
X347095Y41775D01*
X347062Y41866D01*
X347026Y41955D01*
X346986Y42043D01*
X346943Y42130D01*
X346897Y42215D01*
X346847Y42297D01*
X346793Y42378D01*
X346737Y42456D01*
X346677Y42532D01*
X346615Y42606D01*
X346549Y42677D01*
X346481Y42745D01*
X346410Y42811D01*
X346336Y42873D01*
X346260Y42933D01*
X346182Y42989D01*
X346101Y43043D01*
X346019Y43093D01*
X345934Y43139D01*
X345847Y43182D01*
X345759Y43222D01*
X345670Y43258D01*
X345579Y43291D01*
X345486Y43319D01*
X345393Y43344D01*
X345299Y43366D01*
X345204Y43383D01*
X345108Y43397D01*
X345012Y43406D01*
X344916Y43412D01*
X344819Y43414D01*
X344722Y43412D01*
X344626Y43406D01*
X344530Y43397D01*
X344434Y43383D01*
X344339Y43366D01*
X344245Y43344D01*
X344152Y43319D01*
X344059Y43291D01*
X343968Y43258D01*
X343879Y43222D01*
X343791Y43182D01*
X343704Y43139D01*
X343620Y43093D01*
X343537Y43043D01*
X343456Y42989D01*
X343378Y42933D01*
X343302Y42873D01*
X343228Y42811D01*
X343157Y42745D01*
X343089Y42677D01*
X343023Y42606D01*
X342961Y42532D01*
X342901Y42456D01*
X342845Y42378D01*
X342791Y42297D01*
X342741Y42215D01*
X342695Y42130D01*
X342652Y42043D01*
X342612Y41955D01*
X342576Y41866D01*
X342543Y41775D01*
X342515Y41682D01*
X342490Y41589D01*
X342468Y41495D01*
X342451Y41400D01*
X342437Y41304D01*
X342428Y41208D01*
X342422Y41112D01*
X342420Y41015D01*
X338582Y41495D02*
X338582Y38616D01*
X338582Y41495D02*
X338584Y41581D01*
X338590Y41667D01*
X338599Y41753D01*
X338613Y41838D01*
X338630Y41922D01*
X338651Y42006D01*
X338676Y42088D01*
X338704Y42169D01*
X338736Y42249D01*
X338772Y42328D01*
X338811Y42404D01*
X338854Y42479D01*
X338899Y42552D01*
X338948Y42623D01*
X339001Y42691D01*
X339056Y42758D01*
X339114Y42821D01*
X339175Y42882D01*
X339238Y42940D01*
X339305Y42995D01*
X339373Y43048D01*
X339444Y43097D01*
X339517Y43142D01*
X339592Y43185D01*
X339668Y43224D01*
X339747Y43260D01*
X339827Y43292D01*
X339908Y43320D01*
X339990Y43345D01*
X340074Y43366D01*
X340158Y43383D01*
X340243Y43397D01*
X340329Y43406D01*
X340415Y43412D01*
X340501Y43414D01*
X340587Y43412D01*
X340673Y43406D01*
X340759Y43397D01*
X340844Y43383D01*
X340928Y43366D01*
X341012Y43345D01*
X341094Y43320D01*
X341175Y43292D01*
X341255Y43260D01*
X341334Y43224D01*
X341410Y43185D01*
X341485Y43142D01*
X341558Y43097D01*
X341629Y43048D01*
X341697Y42995D01*
X341764Y42940D01*
X341827Y42882D01*
X341888Y42821D01*
X341946Y42758D01*
X342001Y42691D01*
X342054Y42623D01*
X342103Y42552D01*
X342148Y42479D01*
X342191Y42404D01*
X342230Y42328D01*
X342266Y42249D01*
X342298Y42169D01*
X342326Y42088D01*
X342351Y42006D01*
X342372Y41922D01*
X342389Y41838D01*
X342403Y41753D01*
X342412Y41667D01*
X342418Y41581D01*
X342420Y41495D01*
X342420Y39576D01*
X346738Y47176D02*
X347218Y47176D01*
X346738Y47176D02*
X346738Y47656D01*
X347218Y47656D01*
X347218Y47176D01*
X345299Y51418D02*
X338582Y53337D01*
X345299Y51418D02*
X345299Y56216D01*
X343380Y54776D02*
X347218Y54776D01*
X348178Y60127D02*
X337622Y63966D01*
X338582Y69666D02*
X347218Y69666D01*
X338582Y67268D02*
X338582Y72065D01*
X339781Y76522D02*
X339935Y76449D01*
X340090Y76380D01*
X340247Y76315D01*
X340406Y76253D01*
X340565Y76196D01*
X340727Y76142D01*
X340889Y76092D01*
X341052Y76046D01*
X341217Y76004D01*
X341383Y75966D01*
X341549Y75931D01*
X341716Y75901D01*
X341884Y75875D01*
X342052Y75853D01*
X342221Y75834D01*
X342391Y75820D01*
X342560Y75810D01*
X342730Y75804D01*
X342900Y75802D01*
X339781Y76522D02*
X339705Y76550D01*
X339630Y76582D01*
X339556Y76617D01*
X339484Y76655D01*
X339414Y76697D01*
X339346Y76742D01*
X339280Y76790D01*
X339216Y76841D01*
X339155Y76895D01*
X339096Y76951D01*
X339040Y77011D01*
X338987Y77072D01*
X338937Y77136D01*
X338889Y77203D01*
X338845Y77271D01*
X338804Y77342D01*
X338766Y77414D01*
X338732Y77488D01*
X338701Y77563D01*
X338673Y77640D01*
X338649Y77718D01*
X338629Y77797D01*
X338612Y77877D01*
X338599Y77957D01*
X338589Y78038D01*
X338584Y78119D01*
X338582Y78201D01*
X338584Y78283D01*
X338589Y78364D01*
X338599Y78445D01*
X338612Y78525D01*
X338629Y78605D01*
X338649Y78684D01*
X338673Y78762D01*
X338701Y78839D01*
X338732Y78914D01*
X338766Y78988D01*
X338804Y79060D01*
X338845Y79131D01*
X338889Y79199D01*
X338937Y79266D01*
X338987Y79330D01*
X339040Y79391D01*
X339096Y79451D01*
X339155Y79507D01*
X339216Y79561D01*
X339280Y79612D01*
X339346Y79660D01*
X339414Y79705D01*
X339484Y79747D01*
X339556Y79785D01*
X339630Y79820D01*
X339705Y79852D01*
X339781Y79880D01*
X339935Y79953D01*
X340090Y80022D01*
X340247Y80087D01*
X340406Y80149D01*
X340565Y80206D01*
X340727Y80260D01*
X340889Y80310D01*
X341052Y80356D01*
X341217Y80398D01*
X341383Y80436D01*
X341549Y80471D01*
X341716Y80501D01*
X341884Y80527D01*
X342052Y80549D01*
X342221Y80568D01*
X342391Y80582D01*
X342560Y80592D01*
X342730Y80598D01*
X342900Y80600D01*
X342900Y75802D02*
X343070Y75804D01*
X343240Y75810D01*
X343409Y75820D01*
X343579Y75834D01*
X343748Y75853D01*
X343916Y75875D01*
X344084Y75901D01*
X344251Y75931D01*
X344417Y75966D01*
X344583Y76004D01*
X344748Y76046D01*
X344911Y76092D01*
X345073Y76142D01*
X345235Y76196D01*
X345394Y76253D01*
X345553Y76315D01*
X345710Y76380D01*
X345865Y76449D01*
X346019Y76522D01*
X346095Y76550D01*
X346170Y76582D01*
X346244Y76617D01*
X346316Y76655D01*
X346386Y76697D01*
X346454Y76742D01*
X346520Y76790D01*
X346584Y76841D01*
X346645Y76895D01*
X346704Y76951D01*
X346760Y77011D01*
X346813Y77072D01*
X346863Y77136D01*
X346911Y77203D01*
X346955Y77271D01*
X346996Y77342D01*
X347034Y77414D01*
X347068Y77488D01*
X347099Y77563D01*
X347127Y77640D01*
X347151Y77718D01*
X347171Y77797D01*
X347188Y77877D01*
X347201Y77957D01*
X347211Y78038D01*
X347216Y78119D01*
X347218Y78201D01*
X346019Y79880D02*
X345865Y79953D01*
X345710Y80022D01*
X345553Y80087D01*
X345394Y80149D01*
X345235Y80206D01*
X345073Y80260D01*
X344911Y80310D01*
X344748Y80356D01*
X344583Y80398D01*
X344417Y80436D01*
X344251Y80471D01*
X344084Y80501D01*
X343916Y80527D01*
X343748Y80549D01*
X343579Y80568D01*
X343409Y80582D01*
X343240Y80592D01*
X343070Y80598D01*
X342900Y80600D01*
X346019Y79880D02*
X346095Y79852D01*
X346170Y79820D01*
X346244Y79785D01*
X346316Y79747D01*
X346386Y79705D01*
X346454Y79660D01*
X346520Y79612D01*
X346584Y79561D01*
X346645Y79507D01*
X346704Y79451D01*
X346760Y79391D01*
X346813Y79330D01*
X346863Y79266D01*
X346911Y79199D01*
X346955Y79131D01*
X346996Y79060D01*
X347034Y78988D01*
X347068Y78914D01*
X347099Y78839D01*
X347127Y78762D01*
X347151Y78684D01*
X347171Y78605D01*
X347188Y78525D01*
X347201Y78445D01*
X347211Y78364D01*
X347216Y78283D01*
X347218Y78201D01*
X345299Y76282D02*
X340501Y80120D01*
X363982Y29972D02*
X372618Y29972D01*
X363982Y29972D02*
X363982Y32371D01*
X363984Y32468D01*
X363990Y32564D01*
X363999Y32660D01*
X364013Y32756D01*
X364030Y32851D01*
X364052Y32945D01*
X364077Y33038D01*
X364105Y33131D01*
X364138Y33222D01*
X364174Y33311D01*
X364214Y33399D01*
X364257Y33486D01*
X364303Y33571D01*
X364353Y33653D01*
X364407Y33734D01*
X364463Y33812D01*
X364523Y33888D01*
X364585Y33962D01*
X364651Y34033D01*
X364719Y34101D01*
X364790Y34167D01*
X364864Y34229D01*
X364940Y34289D01*
X365018Y34345D01*
X365099Y34399D01*
X365182Y34449D01*
X365266Y34495D01*
X365353Y34538D01*
X365441Y34578D01*
X365530Y34614D01*
X365621Y34647D01*
X365714Y34675D01*
X365807Y34700D01*
X365901Y34722D01*
X365996Y34739D01*
X366092Y34753D01*
X366188Y34762D01*
X366284Y34768D01*
X366381Y34770D01*
X366478Y34768D01*
X366574Y34762D01*
X366670Y34753D01*
X366766Y34739D01*
X366861Y34722D01*
X366955Y34700D01*
X367048Y34675D01*
X367141Y34647D01*
X367232Y34614D01*
X367321Y34578D01*
X367409Y34538D01*
X367496Y34495D01*
X367581Y34449D01*
X367663Y34399D01*
X367744Y34345D01*
X367822Y34289D01*
X367898Y34229D01*
X367972Y34167D01*
X368043Y34101D01*
X368111Y34033D01*
X368177Y33962D01*
X368239Y33888D01*
X368299Y33812D01*
X368355Y33734D01*
X368409Y33653D01*
X368459Y33571D01*
X368505Y33486D01*
X368548Y33399D01*
X368588Y33311D01*
X368624Y33222D01*
X368657Y33131D01*
X368685Y33038D01*
X368710Y32945D01*
X368732Y32851D01*
X368749Y32756D01*
X368763Y32660D01*
X368772Y32564D01*
X368778Y32468D01*
X368780Y32371D01*
X368780Y29972D01*
X372618Y38616D02*
X372618Y41015D01*
X372616Y41112D01*
X372610Y41208D01*
X372601Y41304D01*
X372587Y41400D01*
X372570Y41495D01*
X372548Y41589D01*
X372523Y41682D01*
X372495Y41775D01*
X372462Y41866D01*
X372426Y41955D01*
X372386Y42043D01*
X372343Y42130D01*
X372297Y42215D01*
X372247Y42297D01*
X372193Y42378D01*
X372137Y42456D01*
X372077Y42532D01*
X372015Y42606D01*
X371949Y42677D01*
X371881Y42745D01*
X371810Y42811D01*
X371736Y42873D01*
X371660Y42933D01*
X371582Y42989D01*
X371501Y43043D01*
X371419Y43093D01*
X371334Y43139D01*
X371247Y43182D01*
X371159Y43222D01*
X371070Y43258D01*
X370979Y43291D01*
X370886Y43319D01*
X370793Y43344D01*
X370699Y43366D01*
X370604Y43383D01*
X370508Y43397D01*
X370412Y43406D01*
X370316Y43412D01*
X370219Y43414D01*
X370122Y43412D01*
X370026Y43406D01*
X369930Y43397D01*
X369834Y43383D01*
X369739Y43366D01*
X369645Y43344D01*
X369552Y43319D01*
X369459Y43291D01*
X369368Y43258D01*
X369279Y43222D01*
X369191Y43182D01*
X369104Y43139D01*
X369020Y43093D01*
X368937Y43043D01*
X368856Y42989D01*
X368778Y42933D01*
X368702Y42873D01*
X368628Y42811D01*
X368557Y42745D01*
X368489Y42677D01*
X368423Y42606D01*
X368361Y42532D01*
X368301Y42456D01*
X368245Y42378D01*
X368191Y42297D01*
X368141Y42215D01*
X368095Y42130D01*
X368052Y42043D01*
X368012Y41955D01*
X367976Y41866D01*
X367943Y41775D01*
X367915Y41682D01*
X367890Y41589D01*
X367868Y41495D01*
X367851Y41400D01*
X367837Y41304D01*
X367828Y41208D01*
X367822Y41112D01*
X367820Y41015D01*
X363982Y41495D02*
X363982Y38616D01*
X363982Y41495D02*
X363984Y41581D01*
X363990Y41667D01*
X363999Y41753D01*
X364013Y41838D01*
X364030Y41922D01*
X364051Y42006D01*
X364076Y42088D01*
X364104Y42169D01*
X364136Y42249D01*
X364172Y42328D01*
X364211Y42404D01*
X364254Y42479D01*
X364299Y42552D01*
X364348Y42623D01*
X364401Y42691D01*
X364456Y42758D01*
X364514Y42821D01*
X364575Y42882D01*
X364638Y42940D01*
X364705Y42995D01*
X364773Y43048D01*
X364844Y43097D01*
X364917Y43142D01*
X364992Y43185D01*
X365068Y43224D01*
X365147Y43260D01*
X365227Y43292D01*
X365308Y43320D01*
X365390Y43345D01*
X365474Y43366D01*
X365558Y43383D01*
X365643Y43397D01*
X365729Y43406D01*
X365815Y43412D01*
X365901Y43414D01*
X365987Y43412D01*
X366073Y43406D01*
X366159Y43397D01*
X366244Y43383D01*
X366328Y43366D01*
X366412Y43345D01*
X366494Y43320D01*
X366575Y43292D01*
X366655Y43260D01*
X366734Y43224D01*
X366810Y43185D01*
X366885Y43142D01*
X366958Y43097D01*
X367029Y43048D01*
X367097Y42995D01*
X367164Y42940D01*
X367227Y42882D01*
X367288Y42821D01*
X367346Y42758D01*
X367401Y42691D01*
X367454Y42623D01*
X367503Y42552D01*
X367548Y42479D01*
X367591Y42404D01*
X367630Y42328D01*
X367666Y42249D01*
X367698Y42169D01*
X367726Y42088D01*
X367751Y42006D01*
X367772Y41922D01*
X367789Y41838D01*
X367803Y41753D01*
X367812Y41667D01*
X367818Y41581D01*
X367820Y41495D01*
X367820Y39576D01*
X372138Y47176D02*
X372618Y47176D01*
X372138Y47176D02*
X372138Y47656D01*
X372618Y47656D01*
X372618Y47176D01*
X372618Y51418D02*
X372618Y54297D01*
X372616Y54383D01*
X372610Y54469D01*
X372601Y54555D01*
X372587Y54640D01*
X372570Y54724D01*
X372549Y54808D01*
X372524Y54890D01*
X372496Y54971D01*
X372464Y55051D01*
X372428Y55130D01*
X372389Y55206D01*
X372346Y55281D01*
X372301Y55354D01*
X372252Y55425D01*
X372199Y55493D01*
X372144Y55560D01*
X372086Y55623D01*
X372025Y55684D01*
X371962Y55742D01*
X371895Y55797D01*
X371827Y55850D01*
X371756Y55899D01*
X371683Y55944D01*
X371608Y55987D01*
X371532Y56026D01*
X371453Y56062D01*
X371373Y56094D01*
X371292Y56122D01*
X371210Y56147D01*
X371126Y56168D01*
X371042Y56185D01*
X370957Y56199D01*
X370871Y56208D01*
X370785Y56214D01*
X370699Y56216D01*
X369739Y56216D01*
X369653Y56214D01*
X369567Y56208D01*
X369481Y56199D01*
X369396Y56185D01*
X369312Y56168D01*
X369228Y56147D01*
X369146Y56122D01*
X369065Y56094D01*
X368985Y56062D01*
X368906Y56026D01*
X368830Y55987D01*
X368755Y55944D01*
X368682Y55899D01*
X368611Y55850D01*
X368543Y55797D01*
X368476Y55742D01*
X368413Y55684D01*
X368352Y55623D01*
X368294Y55560D01*
X368239Y55493D01*
X368187Y55425D01*
X368137Y55354D01*
X368092Y55281D01*
X368049Y55206D01*
X368010Y55130D01*
X367974Y55051D01*
X367942Y54971D01*
X367914Y54890D01*
X367889Y54808D01*
X367868Y54724D01*
X367851Y54640D01*
X367837Y54555D01*
X367828Y54469D01*
X367822Y54383D01*
X367820Y54297D01*
X367820Y51418D01*
X363982Y51418D01*
X363982Y56216D01*
X363022Y63966D02*
X373578Y60127D01*
X372618Y69666D02*
X363982Y69666D01*
X363982Y67268D02*
X363982Y72065D01*
X365901Y75802D02*
X363982Y78201D01*
X372618Y78201D01*
X372618Y75802D02*
X372618Y80600D01*
D11*
X172015Y135608D02*
X172013Y135515D01*
X172007Y135422D01*
X171998Y135329D01*
X171984Y135236D01*
X171967Y135145D01*
X171946Y135054D01*
X171921Y134964D01*
X171893Y134875D01*
X171861Y134787D01*
X171825Y134701D01*
X171786Y134616D01*
X171743Y134533D01*
X171697Y134452D01*
X171647Y134373D01*
X171595Y134296D01*
X171539Y134221D01*
X171480Y134149D01*
X171418Y134079D01*
X171354Y134011D01*
X171286Y133947D01*
X171216Y133885D01*
X171144Y133826D01*
X171069Y133770D01*
X170992Y133718D01*
X170913Y133668D01*
X170832Y133622D01*
X170749Y133579D01*
X170664Y133540D01*
X170578Y133504D01*
X170490Y133472D01*
X170401Y133444D01*
X170311Y133419D01*
X170220Y133398D01*
X170129Y133381D01*
X170036Y133367D01*
X169943Y133358D01*
X169850Y133352D01*
X169757Y133350D01*
X169623Y133352D01*
X169488Y133358D01*
X169354Y133367D01*
X169220Y133380D01*
X169087Y133397D01*
X168954Y133418D01*
X168822Y133443D01*
X168690Y133471D01*
X168559Y133503D01*
X168430Y133538D01*
X168301Y133578D01*
X168174Y133621D01*
X168047Y133667D01*
X167922Y133717D01*
X167799Y133770D01*
X167677Y133827D01*
X167557Y133888D01*
X167438Y133951D01*
X167322Y134018D01*
X167207Y134089D01*
X167095Y134162D01*
X166984Y134239D01*
X166876Y134319D01*
X166770Y134401D01*
X166666Y134487D01*
X166565Y134576D01*
X166466Y134667D01*
X166370Y134761D01*
X166652Y141252D02*
X166654Y141345D01*
X166660Y141438D01*
X166669Y141531D01*
X166683Y141624D01*
X166700Y141715D01*
X166721Y141806D01*
X166746Y141896D01*
X166774Y141985D01*
X166806Y142073D01*
X166842Y142159D01*
X166881Y142244D01*
X166924Y142327D01*
X166970Y142408D01*
X167020Y142487D01*
X167072Y142564D01*
X167128Y142639D01*
X167187Y142711D01*
X167249Y142781D01*
X167313Y142849D01*
X167381Y142913D01*
X167451Y142975D01*
X167523Y143034D01*
X167598Y143090D01*
X167675Y143142D01*
X167754Y143192D01*
X167835Y143238D01*
X167918Y143281D01*
X168003Y143320D01*
X168089Y143356D01*
X168177Y143388D01*
X168266Y143416D01*
X168356Y143441D01*
X168447Y143462D01*
X168538Y143479D01*
X168631Y143493D01*
X168724Y143502D01*
X168817Y143508D01*
X168910Y143510D01*
X169040Y143508D01*
X169169Y143502D01*
X169299Y143492D01*
X169428Y143478D01*
X169556Y143460D01*
X169684Y143439D01*
X169811Y143413D01*
X169937Y143383D01*
X170063Y143350D01*
X170187Y143313D01*
X170310Y143272D01*
X170432Y143227D01*
X170552Y143179D01*
X170671Y143126D01*
X170788Y143071D01*
X170903Y143011D01*
X171017Y142949D01*
X171128Y142882D01*
X171238Y142813D01*
X171345Y142740D01*
X171450Y142663D01*
X167781Y139277D02*
X167700Y139327D01*
X167621Y139380D01*
X167544Y139436D01*
X167470Y139496D01*
X167399Y139559D01*
X167330Y139625D01*
X167263Y139693D01*
X167200Y139764D01*
X167140Y139838D01*
X167083Y139914D01*
X167029Y139993D01*
X166978Y140073D01*
X166931Y140156D01*
X166887Y140241D01*
X166847Y140327D01*
X166810Y140415D01*
X166777Y140504D01*
X166748Y140595D01*
X166723Y140687D01*
X166701Y140779D01*
X166684Y140873D01*
X166670Y140967D01*
X166660Y141062D01*
X166654Y141157D01*
X166652Y141252D01*
X170885Y137584D02*
X170966Y137533D01*
X171045Y137480D01*
X171122Y137424D01*
X171196Y137364D01*
X171267Y137301D01*
X171336Y137235D01*
X171403Y137167D01*
X171466Y137096D01*
X171526Y137022D01*
X171583Y136946D01*
X171637Y136867D01*
X171688Y136787D01*
X171735Y136704D01*
X171779Y136619D01*
X171819Y136533D01*
X171856Y136445D01*
X171889Y136356D01*
X171918Y136265D01*
X171943Y136174D01*
X171965Y136081D01*
X171982Y135987D01*
X171996Y135893D01*
X172006Y135798D01*
X172012Y135703D01*
X172014Y135608D01*
X170886Y137583D02*
X167781Y139277D01*
X177955Y143510D02*
X177955Y133350D01*
X176826Y133350D02*
X179084Y133350D01*
X179084Y143510D02*
X176826Y143510D01*
X184658Y143510D02*
X184658Y133350D01*
X190302Y133350D02*
X184658Y143510D01*
X190302Y143510D02*
X190302Y133350D01*
X200801Y138994D02*
X202494Y138994D01*
X202494Y133350D01*
X199108Y133350D01*
X199015Y133352D01*
X198922Y133358D01*
X198829Y133367D01*
X198736Y133381D01*
X198645Y133398D01*
X198554Y133419D01*
X198464Y133444D01*
X198375Y133472D01*
X198287Y133504D01*
X198201Y133540D01*
X198116Y133579D01*
X198033Y133622D01*
X197952Y133668D01*
X197873Y133718D01*
X197796Y133770D01*
X197721Y133826D01*
X197649Y133885D01*
X197579Y133947D01*
X197511Y134011D01*
X197447Y134079D01*
X197385Y134149D01*
X197326Y134221D01*
X197270Y134296D01*
X197218Y134373D01*
X197168Y134452D01*
X197122Y134533D01*
X197079Y134616D01*
X197040Y134701D01*
X197004Y134787D01*
X196972Y134875D01*
X196944Y134964D01*
X196919Y135054D01*
X196898Y135145D01*
X196881Y135236D01*
X196867Y135329D01*
X196858Y135422D01*
X196852Y135515D01*
X196850Y135608D01*
X196850Y141252D01*
X196852Y141345D01*
X196858Y141438D01*
X196867Y141531D01*
X196881Y141624D01*
X196898Y141715D01*
X196919Y141806D01*
X196944Y141896D01*
X196972Y141985D01*
X197004Y142073D01*
X197040Y142159D01*
X197079Y142244D01*
X197122Y142327D01*
X197168Y142408D01*
X197218Y142487D01*
X197270Y142564D01*
X197326Y142639D01*
X197385Y142711D01*
X197447Y142781D01*
X197511Y142849D01*
X197579Y142913D01*
X197649Y142975D01*
X197721Y143034D01*
X197796Y143090D01*
X197873Y143142D01*
X197952Y143192D01*
X198033Y143238D01*
X198116Y143281D01*
X198201Y143320D01*
X198287Y143356D01*
X198375Y143388D01*
X198464Y143416D01*
X198554Y143441D01*
X198645Y143462D01*
X198736Y143479D01*
X198829Y143493D01*
X198922Y143502D01*
X199015Y143508D01*
X199108Y143510D01*
X202494Y143510D01*
X209082Y143510D02*
X209082Y133350D01*
X213597Y133350D01*
X218987Y133350D02*
X223503Y133350D01*
X218987Y133350D02*
X218987Y143510D01*
X223503Y143510D01*
X222374Y138994D02*
X218987Y138994D01*
X236769Y133350D02*
X239026Y133350D01*
X236769Y133350D02*
X236676Y133352D01*
X236583Y133358D01*
X236490Y133367D01*
X236397Y133381D01*
X236306Y133398D01*
X236215Y133419D01*
X236125Y133444D01*
X236036Y133472D01*
X235948Y133504D01*
X235862Y133540D01*
X235777Y133579D01*
X235694Y133622D01*
X235613Y133668D01*
X235534Y133718D01*
X235457Y133770D01*
X235382Y133826D01*
X235310Y133885D01*
X235240Y133947D01*
X235172Y134011D01*
X235108Y134079D01*
X235046Y134149D01*
X234987Y134221D01*
X234931Y134296D01*
X234879Y134373D01*
X234829Y134452D01*
X234783Y134533D01*
X234740Y134616D01*
X234701Y134701D01*
X234665Y134787D01*
X234633Y134875D01*
X234605Y134964D01*
X234580Y135054D01*
X234559Y135145D01*
X234542Y135236D01*
X234528Y135329D01*
X234519Y135422D01*
X234513Y135515D01*
X234511Y135608D01*
X234511Y141252D01*
X234513Y141345D01*
X234519Y141438D01*
X234528Y141531D01*
X234542Y141624D01*
X234559Y141715D01*
X234580Y141806D01*
X234605Y141896D01*
X234633Y141985D01*
X234665Y142073D01*
X234701Y142159D01*
X234740Y142244D01*
X234783Y142327D01*
X234829Y142408D01*
X234879Y142487D01*
X234931Y142564D01*
X234987Y142639D01*
X235046Y142711D01*
X235108Y142781D01*
X235172Y142849D01*
X235240Y142913D01*
X235310Y142975D01*
X235382Y143034D01*
X235457Y143090D01*
X235534Y143142D01*
X235613Y143192D01*
X235694Y143238D01*
X235777Y143281D01*
X235862Y143320D01*
X235948Y143356D01*
X236036Y143388D01*
X236125Y143416D01*
X236215Y143441D01*
X236306Y143462D01*
X236397Y143479D01*
X236490Y143493D01*
X236583Y143502D01*
X236676Y143508D01*
X236769Y143510D01*
X239026Y143510D01*
X244475Y143510D02*
X244475Y133350D01*
X244475Y138994D02*
X250119Y138994D01*
X250119Y143510D02*
X250119Y133350D01*
X256822Y133350D02*
X256822Y143510D01*
X255693Y133350D02*
X257951Y133350D01*
X257951Y143510D02*
X255693Y143510D01*
X263821Y143510D02*
X263821Y133350D01*
X263821Y143510D02*
X266643Y143510D01*
X266749Y143508D01*
X266854Y143502D01*
X266959Y143492D01*
X267064Y143478D01*
X267168Y143461D01*
X267271Y143439D01*
X267373Y143414D01*
X267475Y143385D01*
X267575Y143352D01*
X267674Y143315D01*
X267771Y143275D01*
X267867Y143231D01*
X267962Y143183D01*
X268054Y143132D01*
X268144Y143077D01*
X268233Y143020D01*
X268319Y142959D01*
X268402Y142894D01*
X268484Y142827D01*
X268562Y142757D01*
X268638Y142683D01*
X268712Y142607D01*
X268782Y142529D01*
X268849Y142447D01*
X268914Y142364D01*
X268975Y142278D01*
X269032Y142189D01*
X269087Y142099D01*
X269138Y142007D01*
X269186Y141912D01*
X269230Y141816D01*
X269270Y141719D01*
X269307Y141620D01*
X269340Y141520D01*
X269369Y141418D01*
X269394Y141316D01*
X269416Y141213D01*
X269433Y141109D01*
X269447Y141004D01*
X269457Y140899D01*
X269463Y140794D01*
X269465Y140688D01*
X269463Y140582D01*
X269457Y140477D01*
X269447Y140372D01*
X269433Y140267D01*
X269416Y140163D01*
X269394Y140060D01*
X269369Y139958D01*
X269340Y139856D01*
X269307Y139756D01*
X269270Y139657D01*
X269230Y139560D01*
X269186Y139464D01*
X269138Y139369D01*
X269087Y139277D01*
X269032Y139187D01*
X268975Y139098D01*
X268914Y139012D01*
X268849Y138929D01*
X268782Y138847D01*
X268712Y138769D01*
X268638Y138693D01*
X268562Y138619D01*
X268484Y138549D01*
X268402Y138482D01*
X268319Y138417D01*
X268233Y138356D01*
X268144Y138299D01*
X268054Y138244D01*
X267962Y138193D01*
X267867Y138145D01*
X267771Y138101D01*
X267674Y138061D01*
X267575Y138024D01*
X267475Y137991D01*
X267373Y137962D01*
X267271Y137937D01*
X267168Y137915D01*
X267064Y137898D01*
X266959Y137884D01*
X266854Y137874D01*
X266749Y137868D01*
X266643Y137866D01*
X263821Y137866D01*
X282870Y133350D02*
X285127Y133350D01*
X282870Y133350D02*
X282777Y133352D01*
X282684Y133358D01*
X282591Y133367D01*
X282498Y133381D01*
X282407Y133398D01*
X282316Y133419D01*
X282226Y133444D01*
X282137Y133472D01*
X282049Y133504D01*
X281963Y133540D01*
X281878Y133579D01*
X281795Y133622D01*
X281714Y133668D01*
X281635Y133718D01*
X281558Y133770D01*
X281483Y133826D01*
X281411Y133885D01*
X281341Y133947D01*
X281273Y134011D01*
X281209Y134079D01*
X281147Y134149D01*
X281088Y134221D01*
X281032Y134296D01*
X280980Y134373D01*
X280930Y134452D01*
X280884Y134533D01*
X280841Y134616D01*
X280802Y134701D01*
X280766Y134787D01*
X280734Y134875D01*
X280706Y134964D01*
X280681Y135054D01*
X280660Y135145D01*
X280643Y135236D01*
X280629Y135329D01*
X280620Y135422D01*
X280614Y135515D01*
X280612Y135608D01*
X280612Y141252D01*
X280614Y141345D01*
X280620Y141438D01*
X280629Y141531D01*
X280643Y141624D01*
X280660Y141715D01*
X280681Y141806D01*
X280706Y141896D01*
X280734Y141985D01*
X280766Y142073D01*
X280802Y142159D01*
X280841Y142244D01*
X280884Y142327D01*
X280930Y142408D01*
X280980Y142487D01*
X281032Y142564D01*
X281088Y142639D01*
X281147Y142711D01*
X281209Y142781D01*
X281273Y142849D01*
X281341Y142913D01*
X281411Y142975D01*
X281483Y143034D01*
X281558Y143090D01*
X281635Y143142D01*
X281714Y143192D01*
X281795Y143238D01*
X281878Y143281D01*
X281963Y143320D01*
X282049Y143356D01*
X282137Y143388D01*
X282226Y143416D01*
X282316Y143441D01*
X282407Y143462D01*
X282498Y143479D01*
X282591Y143493D01*
X282684Y143502D01*
X282777Y143508D01*
X282870Y143510D01*
X285127Y143510D01*
X290195Y140688D02*
X290195Y136172D01*
X290195Y140688D02*
X290197Y140794D01*
X290203Y140899D01*
X290213Y141004D01*
X290227Y141109D01*
X290244Y141213D01*
X290266Y141316D01*
X290291Y141418D01*
X290320Y141520D01*
X290353Y141620D01*
X290390Y141719D01*
X290430Y141816D01*
X290474Y141912D01*
X290522Y142007D01*
X290573Y142099D01*
X290628Y142189D01*
X290685Y142278D01*
X290746Y142364D01*
X290811Y142447D01*
X290878Y142529D01*
X290948Y142607D01*
X291022Y142683D01*
X291098Y142757D01*
X291176Y142827D01*
X291258Y142894D01*
X291341Y142959D01*
X291427Y143020D01*
X291516Y143077D01*
X291606Y143132D01*
X291698Y143183D01*
X291793Y143231D01*
X291889Y143275D01*
X291986Y143315D01*
X292085Y143352D01*
X292185Y143385D01*
X292287Y143414D01*
X292389Y143439D01*
X292492Y143461D01*
X292596Y143478D01*
X292701Y143492D01*
X292806Y143502D01*
X292911Y143508D01*
X293017Y143510D01*
X293123Y143508D01*
X293228Y143502D01*
X293333Y143492D01*
X293438Y143478D01*
X293542Y143461D01*
X293645Y143439D01*
X293747Y143414D01*
X293849Y143385D01*
X293949Y143352D01*
X294048Y143315D01*
X294145Y143275D01*
X294241Y143231D01*
X294336Y143183D01*
X294428Y143132D01*
X294518Y143077D01*
X294607Y143020D01*
X294693Y142959D01*
X294776Y142894D01*
X294858Y142827D01*
X294936Y142757D01*
X295012Y142683D01*
X295086Y142607D01*
X295156Y142529D01*
X295223Y142447D01*
X295288Y142364D01*
X295349Y142278D01*
X295406Y142189D01*
X295461Y142099D01*
X295512Y142007D01*
X295560Y141912D01*
X295604Y141816D01*
X295644Y141719D01*
X295681Y141620D01*
X295714Y141520D01*
X295743Y141418D01*
X295768Y141316D01*
X295790Y141213D01*
X295807Y141109D01*
X295821Y141004D01*
X295831Y140899D01*
X295837Y140794D01*
X295839Y140688D01*
X295839Y136172D01*
X295837Y136066D01*
X295831Y135961D01*
X295821Y135856D01*
X295807Y135751D01*
X295790Y135647D01*
X295768Y135544D01*
X295743Y135442D01*
X295714Y135340D01*
X295681Y135240D01*
X295644Y135141D01*
X295604Y135044D01*
X295560Y134948D01*
X295512Y134853D01*
X295461Y134761D01*
X295406Y134671D01*
X295349Y134582D01*
X295288Y134496D01*
X295223Y134413D01*
X295156Y134331D01*
X295086Y134253D01*
X295012Y134177D01*
X294936Y134103D01*
X294858Y134033D01*
X294776Y133966D01*
X294693Y133901D01*
X294607Y133840D01*
X294518Y133783D01*
X294428Y133728D01*
X294336Y133677D01*
X294241Y133629D01*
X294145Y133585D01*
X294048Y133545D01*
X293949Y133508D01*
X293849Y133475D01*
X293747Y133446D01*
X293645Y133421D01*
X293542Y133399D01*
X293438Y133382D01*
X293333Y133368D01*
X293228Y133358D01*
X293123Y133352D01*
X293017Y133350D01*
X292911Y133352D01*
X292806Y133358D01*
X292701Y133368D01*
X292596Y133382D01*
X292492Y133399D01*
X292389Y133421D01*
X292287Y133446D01*
X292185Y133475D01*
X292085Y133508D01*
X291986Y133545D01*
X291889Y133585D01*
X291793Y133629D01*
X291698Y133677D01*
X291606Y133728D01*
X291516Y133783D01*
X291427Y133840D01*
X291341Y133901D01*
X291258Y133966D01*
X291176Y134033D01*
X291098Y134103D01*
X291022Y134177D01*
X290948Y134253D01*
X290878Y134331D01*
X290811Y134413D01*
X290746Y134496D01*
X290685Y134582D01*
X290628Y134671D01*
X290573Y134761D01*
X290522Y134853D01*
X290474Y134948D01*
X290430Y135044D01*
X290390Y135141D01*
X290353Y135240D01*
X290320Y135340D01*
X290291Y135442D01*
X290266Y135544D01*
X290244Y135647D01*
X290227Y135751D01*
X290213Y135856D01*
X290203Y135961D01*
X290197Y136066D01*
X290195Y136172D01*
X302203Y133350D02*
X302203Y143510D01*
X305590Y137866D01*
X308977Y143510D01*
X308977Y133350D01*
X316018Y133350D02*
X316018Y143510D01*
X318840Y143510D01*
X318946Y143508D01*
X319051Y143502D01*
X319156Y143492D01*
X319261Y143478D01*
X319365Y143461D01*
X319468Y143439D01*
X319570Y143414D01*
X319672Y143385D01*
X319772Y143352D01*
X319871Y143315D01*
X319968Y143275D01*
X320064Y143231D01*
X320159Y143183D01*
X320251Y143132D01*
X320341Y143077D01*
X320430Y143020D01*
X320516Y142959D01*
X320599Y142894D01*
X320681Y142827D01*
X320759Y142757D01*
X320835Y142683D01*
X320909Y142607D01*
X320979Y142529D01*
X321046Y142447D01*
X321111Y142364D01*
X321172Y142278D01*
X321229Y142189D01*
X321284Y142099D01*
X321335Y142007D01*
X321383Y141912D01*
X321427Y141816D01*
X321467Y141719D01*
X321504Y141620D01*
X321537Y141520D01*
X321566Y141418D01*
X321591Y141316D01*
X321613Y141213D01*
X321630Y141109D01*
X321644Y141004D01*
X321654Y140899D01*
X321660Y140794D01*
X321662Y140688D01*
X321660Y140582D01*
X321654Y140477D01*
X321644Y140372D01*
X321630Y140267D01*
X321613Y140163D01*
X321591Y140060D01*
X321566Y139958D01*
X321537Y139856D01*
X321504Y139756D01*
X321467Y139657D01*
X321427Y139560D01*
X321383Y139464D01*
X321335Y139369D01*
X321284Y139277D01*
X321229Y139187D01*
X321172Y139098D01*
X321111Y139012D01*
X321046Y138929D01*
X320979Y138847D01*
X320909Y138769D01*
X320835Y138693D01*
X320759Y138619D01*
X320681Y138549D01*
X320599Y138482D01*
X320516Y138417D01*
X320430Y138356D01*
X320341Y138299D01*
X320251Y138244D01*
X320159Y138193D01*
X320064Y138145D01*
X319968Y138101D01*
X319871Y138061D01*
X319772Y138024D01*
X319672Y137991D01*
X319570Y137962D01*
X319468Y137937D01*
X319365Y137915D01*
X319261Y137898D01*
X319156Y137884D01*
X319051Y137874D01*
X318946Y137868D01*
X318840Y137866D01*
X316018Y137866D01*
X327152Y136172D02*
X327152Y143510D01*
X327152Y136172D02*
X327154Y136066D01*
X327160Y135961D01*
X327170Y135856D01*
X327184Y135751D01*
X327201Y135647D01*
X327223Y135544D01*
X327248Y135442D01*
X327277Y135340D01*
X327310Y135240D01*
X327347Y135141D01*
X327387Y135044D01*
X327431Y134948D01*
X327479Y134853D01*
X327530Y134761D01*
X327585Y134671D01*
X327642Y134582D01*
X327703Y134496D01*
X327768Y134413D01*
X327835Y134331D01*
X327905Y134253D01*
X327979Y134177D01*
X328055Y134103D01*
X328133Y134033D01*
X328215Y133966D01*
X328298Y133901D01*
X328384Y133840D01*
X328473Y133783D01*
X328563Y133728D01*
X328655Y133677D01*
X328750Y133629D01*
X328846Y133585D01*
X328943Y133545D01*
X329042Y133508D01*
X329142Y133475D01*
X329244Y133446D01*
X329346Y133421D01*
X329449Y133399D01*
X329553Y133382D01*
X329658Y133368D01*
X329763Y133358D01*
X329868Y133352D01*
X329974Y133350D01*
X330080Y133352D01*
X330185Y133358D01*
X330290Y133368D01*
X330395Y133382D01*
X330499Y133399D01*
X330602Y133421D01*
X330704Y133446D01*
X330806Y133475D01*
X330906Y133508D01*
X331005Y133545D01*
X331102Y133585D01*
X331198Y133629D01*
X331293Y133677D01*
X331385Y133728D01*
X331475Y133783D01*
X331564Y133840D01*
X331650Y133901D01*
X331733Y133966D01*
X331815Y134033D01*
X331893Y134103D01*
X331969Y134177D01*
X332043Y134253D01*
X332113Y134331D01*
X332180Y134413D01*
X332245Y134496D01*
X332306Y134582D01*
X332363Y134671D01*
X332418Y134761D01*
X332469Y134853D01*
X332517Y134948D01*
X332561Y135044D01*
X332601Y135141D01*
X332638Y135240D01*
X332671Y135340D01*
X332700Y135442D01*
X332725Y135544D01*
X332747Y135647D01*
X332764Y135751D01*
X332778Y135856D01*
X332788Y135961D01*
X332794Y136066D01*
X332796Y136172D01*
X332796Y143510D01*
X341023Y143510D02*
X341023Y133350D01*
X338201Y143510D02*
X343845Y143510D01*
X349289Y133350D02*
X353805Y133350D01*
X349289Y133350D02*
X349289Y143510D01*
X353805Y143510D01*
X352676Y138994D02*
X349289Y138994D01*
X359285Y143510D02*
X359285Y133350D01*
X359285Y143510D02*
X362107Y143510D01*
X362213Y143508D01*
X362318Y143502D01*
X362423Y143492D01*
X362528Y143478D01*
X362632Y143461D01*
X362735Y143439D01*
X362837Y143414D01*
X362939Y143385D01*
X363039Y143352D01*
X363138Y143315D01*
X363235Y143275D01*
X363331Y143231D01*
X363426Y143183D01*
X363518Y143132D01*
X363608Y143077D01*
X363697Y143020D01*
X363783Y142959D01*
X363866Y142894D01*
X363948Y142827D01*
X364026Y142757D01*
X364102Y142683D01*
X364176Y142607D01*
X364246Y142529D01*
X364313Y142447D01*
X364378Y142364D01*
X364439Y142278D01*
X364496Y142189D01*
X364551Y142099D01*
X364602Y142007D01*
X364650Y141912D01*
X364694Y141816D01*
X364734Y141719D01*
X364771Y141620D01*
X364804Y141520D01*
X364833Y141418D01*
X364858Y141316D01*
X364880Y141213D01*
X364897Y141109D01*
X364911Y141004D01*
X364921Y140899D01*
X364927Y140794D01*
X364929Y140688D01*
X364927Y140582D01*
X364921Y140477D01*
X364911Y140372D01*
X364897Y140267D01*
X364880Y140163D01*
X364858Y140060D01*
X364833Y139958D01*
X364804Y139856D01*
X364771Y139756D01*
X364734Y139657D01*
X364694Y139560D01*
X364650Y139464D01*
X364602Y139369D01*
X364551Y139277D01*
X364496Y139187D01*
X364439Y139098D01*
X364378Y139012D01*
X364313Y138929D01*
X364246Y138847D01*
X364176Y138769D01*
X364102Y138693D01*
X364026Y138619D01*
X363948Y138549D01*
X363866Y138482D01*
X363783Y138417D01*
X363697Y138356D01*
X363608Y138299D01*
X363518Y138244D01*
X363426Y138193D01*
X363331Y138145D01*
X363235Y138101D01*
X363138Y138061D01*
X363039Y138024D01*
X362939Y137991D01*
X362837Y137962D01*
X362735Y137937D01*
X362632Y137915D01*
X362528Y137898D01*
X362423Y137884D01*
X362318Y137874D01*
X362213Y137868D01*
X362107Y137866D01*
X359285Y137866D01*
X362671Y137866D02*
X364929Y133350D01*
D10*
X457510Y38580D02*
X458950Y38580D01*
X458950Y33782D01*
X456071Y33782D01*
X455985Y33784D01*
X455899Y33790D01*
X455813Y33799D01*
X455728Y33813D01*
X455644Y33830D01*
X455560Y33851D01*
X455478Y33876D01*
X455397Y33904D01*
X455317Y33936D01*
X455238Y33972D01*
X455162Y34011D01*
X455087Y34054D01*
X455014Y34099D01*
X454943Y34148D01*
X454875Y34201D01*
X454808Y34256D01*
X454745Y34314D01*
X454684Y34375D01*
X454626Y34438D01*
X454571Y34505D01*
X454518Y34573D01*
X454469Y34644D01*
X454424Y34717D01*
X454381Y34792D01*
X454342Y34868D01*
X454306Y34947D01*
X454274Y35027D01*
X454246Y35108D01*
X454221Y35190D01*
X454200Y35274D01*
X454183Y35358D01*
X454169Y35443D01*
X454160Y35529D01*
X454154Y35615D01*
X454152Y35701D01*
X454152Y40499D01*
X454154Y40585D01*
X454160Y40671D01*
X454169Y40757D01*
X454183Y40842D01*
X454200Y40926D01*
X454221Y41010D01*
X454246Y41092D01*
X454274Y41173D01*
X454306Y41253D01*
X454342Y41332D01*
X454381Y41408D01*
X454424Y41483D01*
X454469Y41556D01*
X454518Y41627D01*
X454571Y41695D01*
X454626Y41762D01*
X454684Y41825D01*
X454745Y41886D01*
X454808Y41944D01*
X454875Y41999D01*
X454943Y42051D01*
X455014Y42101D01*
X455087Y42146D01*
X455162Y42189D01*
X455238Y42228D01*
X455317Y42264D01*
X455397Y42296D01*
X455478Y42324D01*
X455560Y42349D01*
X455644Y42370D01*
X455728Y42387D01*
X455813Y42401D01*
X455899Y42410D01*
X455985Y42416D01*
X456071Y42418D01*
X458950Y42418D01*
X463906Y42418D02*
X463906Y33782D01*
X468703Y33782D02*
X463906Y42418D01*
X468703Y42418D02*
X468703Y33782D01*
X473659Y33782D02*
X473659Y42418D01*
X476058Y42418D01*
X476155Y42416D01*
X476251Y42410D01*
X476347Y42401D01*
X476443Y42387D01*
X476538Y42370D01*
X476632Y42348D01*
X476725Y42323D01*
X476818Y42295D01*
X476909Y42262D01*
X476998Y42226D01*
X477086Y42186D01*
X477173Y42143D01*
X477258Y42097D01*
X477340Y42047D01*
X477421Y41993D01*
X477499Y41937D01*
X477575Y41877D01*
X477649Y41815D01*
X477720Y41749D01*
X477788Y41681D01*
X477854Y41610D01*
X477916Y41536D01*
X477976Y41460D01*
X478032Y41382D01*
X478086Y41301D01*
X478136Y41219D01*
X478182Y41134D01*
X478225Y41047D01*
X478265Y40959D01*
X478301Y40870D01*
X478334Y40779D01*
X478362Y40686D01*
X478387Y40593D01*
X478409Y40499D01*
X478426Y40404D01*
X478440Y40308D01*
X478449Y40212D01*
X478455Y40116D01*
X478457Y40019D01*
X478457Y36181D01*
X478455Y36084D01*
X478449Y35988D01*
X478440Y35892D01*
X478426Y35796D01*
X478409Y35701D01*
X478387Y35607D01*
X478362Y35514D01*
X478334Y35421D01*
X478301Y35330D01*
X478265Y35241D01*
X478225Y35153D01*
X478182Y35066D01*
X478136Y34981D01*
X478086Y34899D01*
X478032Y34818D01*
X477976Y34740D01*
X477916Y34664D01*
X477854Y34590D01*
X477788Y34519D01*
X477720Y34451D01*
X477649Y34385D01*
X477575Y34323D01*
X477499Y34263D01*
X477421Y34207D01*
X477340Y34153D01*
X477258Y34103D01*
X477173Y34057D01*
X477086Y34014D01*
X476998Y33974D01*
X476909Y33938D01*
X476818Y33905D01*
X476725Y33877D01*
X476632Y33852D01*
X476538Y33830D01*
X476443Y33813D01*
X476347Y33799D01*
X476251Y33790D01*
X476155Y33784D01*
X476058Y33782D01*
X473659Y33782D01*
X469082Y59436D02*
X469082Y68072D01*
X468122Y59436D02*
X470041Y59436D01*
X470041Y68072D02*
X468122Y68072D01*
X474303Y68072D02*
X474303Y59436D01*
X474303Y68072D02*
X476702Y68072D01*
X476799Y68070D01*
X476895Y68064D01*
X476991Y68055D01*
X477087Y68041D01*
X477182Y68024D01*
X477276Y68002D01*
X477369Y67977D01*
X477462Y67949D01*
X477553Y67916D01*
X477642Y67880D01*
X477730Y67840D01*
X477817Y67797D01*
X477902Y67751D01*
X477984Y67701D01*
X478065Y67647D01*
X478143Y67591D01*
X478219Y67531D01*
X478293Y67469D01*
X478364Y67403D01*
X478432Y67335D01*
X478498Y67264D01*
X478560Y67190D01*
X478620Y67114D01*
X478676Y67036D01*
X478730Y66955D01*
X478780Y66873D01*
X478826Y66788D01*
X478869Y66701D01*
X478909Y66613D01*
X478945Y66524D01*
X478978Y66433D01*
X479006Y66340D01*
X479031Y66247D01*
X479053Y66153D01*
X479070Y66058D01*
X479084Y65962D01*
X479093Y65866D01*
X479099Y65770D01*
X479101Y65673D01*
X479100Y65673D02*
X479100Y61835D01*
X479101Y61835D02*
X479099Y61738D01*
X479093Y61642D01*
X479084Y61546D01*
X479070Y61450D01*
X479053Y61355D01*
X479031Y61261D01*
X479006Y61168D01*
X478978Y61075D01*
X478945Y60984D01*
X478909Y60895D01*
X478869Y60807D01*
X478826Y60720D01*
X478780Y60635D01*
X478730Y60553D01*
X478676Y60472D01*
X478620Y60394D01*
X478560Y60318D01*
X478498Y60244D01*
X478432Y60173D01*
X478364Y60105D01*
X478293Y60039D01*
X478219Y59977D01*
X478143Y59917D01*
X478065Y59861D01*
X477984Y59807D01*
X477902Y59757D01*
X477817Y59711D01*
X477730Y59668D01*
X477642Y59628D01*
X477553Y59592D01*
X477462Y59559D01*
X477369Y59531D01*
X477276Y59506D01*
X477182Y59484D01*
X477087Y59467D01*
X476991Y59453D01*
X476895Y59444D01*
X476799Y59438D01*
X476702Y59436D01*
X474303Y59436D01*
X463042Y84836D02*
X463042Y93472D01*
X465441Y93472D01*
X465538Y93470D01*
X465634Y93464D01*
X465730Y93455D01*
X465826Y93441D01*
X465921Y93424D01*
X466015Y93402D01*
X466108Y93377D01*
X466201Y93349D01*
X466292Y93316D01*
X466381Y93280D01*
X466469Y93240D01*
X466556Y93197D01*
X466641Y93151D01*
X466723Y93101D01*
X466804Y93047D01*
X466882Y92991D01*
X466958Y92931D01*
X467032Y92869D01*
X467103Y92803D01*
X467171Y92735D01*
X467237Y92664D01*
X467299Y92590D01*
X467359Y92514D01*
X467415Y92436D01*
X467469Y92355D01*
X467519Y92273D01*
X467565Y92188D01*
X467608Y92101D01*
X467648Y92013D01*
X467684Y91924D01*
X467717Y91833D01*
X467745Y91740D01*
X467770Y91647D01*
X467792Y91553D01*
X467809Y91458D01*
X467823Y91362D01*
X467832Y91266D01*
X467838Y91170D01*
X467840Y91073D01*
X467840Y87235D01*
X467838Y87138D01*
X467832Y87042D01*
X467823Y86946D01*
X467809Y86850D01*
X467792Y86755D01*
X467770Y86661D01*
X467745Y86568D01*
X467717Y86475D01*
X467684Y86384D01*
X467648Y86295D01*
X467608Y86207D01*
X467565Y86120D01*
X467519Y86035D01*
X467469Y85953D01*
X467415Y85872D01*
X467359Y85794D01*
X467299Y85718D01*
X467237Y85644D01*
X467171Y85573D01*
X467103Y85505D01*
X467032Y85439D01*
X466958Y85377D01*
X466882Y85317D01*
X466804Y85261D01*
X466723Y85207D01*
X466641Y85157D01*
X466556Y85111D01*
X466469Y85068D01*
X466381Y85028D01*
X466292Y84992D01*
X466201Y84959D01*
X466108Y84931D01*
X466015Y84906D01*
X465921Y84884D01*
X465826Y84867D01*
X465730Y84853D01*
X465634Y84844D01*
X465538Y84838D01*
X465441Y84836D01*
X463042Y84836D01*
X472621Y88194D02*
X478378Y88194D01*
X475499Y85316D02*
X475499Y91073D01*
X463042Y110236D02*
X463042Y118872D01*
X465441Y118872D01*
X465538Y118870D01*
X465634Y118864D01*
X465730Y118855D01*
X465826Y118841D01*
X465921Y118824D01*
X466015Y118802D01*
X466108Y118777D01*
X466201Y118749D01*
X466292Y118716D01*
X466381Y118680D01*
X466469Y118640D01*
X466556Y118597D01*
X466641Y118551D01*
X466723Y118501D01*
X466804Y118447D01*
X466882Y118391D01*
X466958Y118331D01*
X467032Y118269D01*
X467103Y118203D01*
X467171Y118135D01*
X467237Y118064D01*
X467299Y117990D01*
X467359Y117914D01*
X467415Y117836D01*
X467469Y117755D01*
X467519Y117673D01*
X467565Y117588D01*
X467608Y117501D01*
X467648Y117413D01*
X467684Y117324D01*
X467717Y117233D01*
X467745Y117140D01*
X467770Y117047D01*
X467792Y116953D01*
X467809Y116858D01*
X467823Y116762D01*
X467832Y116666D01*
X467838Y116570D01*
X467840Y116473D01*
X467840Y112635D01*
X467838Y112538D01*
X467832Y112442D01*
X467823Y112346D01*
X467809Y112250D01*
X467792Y112155D01*
X467770Y112061D01*
X467745Y111968D01*
X467717Y111875D01*
X467684Y111784D01*
X467648Y111695D01*
X467608Y111607D01*
X467565Y111520D01*
X467519Y111435D01*
X467469Y111353D01*
X467415Y111272D01*
X467359Y111194D01*
X467299Y111118D01*
X467237Y111044D01*
X467171Y110973D01*
X467103Y110905D01*
X467032Y110839D01*
X466958Y110777D01*
X466882Y110717D01*
X466804Y110661D01*
X466723Y110607D01*
X466641Y110557D01*
X466556Y110511D01*
X466469Y110468D01*
X466381Y110428D01*
X466292Y110392D01*
X466201Y110359D01*
X466108Y110331D01*
X466015Y110306D01*
X465921Y110284D01*
X465826Y110267D01*
X465730Y110253D01*
X465634Y110244D01*
X465538Y110238D01*
X465441Y110236D01*
X463042Y110236D01*
X472621Y113594D02*
X478378Y113594D01*
X459863Y137922D02*
X456984Y146558D01*
X462742Y146558D02*
X459863Y137922D01*
X468489Y137922D02*
X470408Y137922D01*
X468489Y137922D02*
X468403Y137924D01*
X468317Y137930D01*
X468231Y137939D01*
X468146Y137953D01*
X468062Y137970D01*
X467978Y137991D01*
X467896Y138016D01*
X467815Y138044D01*
X467735Y138076D01*
X467656Y138112D01*
X467580Y138151D01*
X467505Y138194D01*
X467432Y138239D01*
X467361Y138288D01*
X467293Y138341D01*
X467226Y138396D01*
X467163Y138454D01*
X467102Y138515D01*
X467044Y138578D01*
X466989Y138645D01*
X466936Y138713D01*
X466887Y138784D01*
X466842Y138857D01*
X466799Y138932D01*
X466760Y139008D01*
X466724Y139087D01*
X466692Y139167D01*
X466664Y139248D01*
X466639Y139330D01*
X466618Y139414D01*
X466601Y139498D01*
X466587Y139583D01*
X466578Y139669D01*
X466572Y139755D01*
X466570Y139841D01*
X466570Y144639D01*
X466572Y144725D01*
X466578Y144811D01*
X466587Y144897D01*
X466601Y144982D01*
X466618Y145066D01*
X466639Y145150D01*
X466664Y145232D01*
X466692Y145313D01*
X466724Y145393D01*
X466760Y145472D01*
X466799Y145548D01*
X466842Y145623D01*
X466887Y145696D01*
X466936Y145767D01*
X466989Y145835D01*
X467044Y145902D01*
X467102Y145965D01*
X467163Y146026D01*
X467226Y146084D01*
X467293Y146139D01*
X467361Y146191D01*
X467432Y146241D01*
X467505Y146286D01*
X467580Y146329D01*
X467656Y146368D01*
X467735Y146404D01*
X467815Y146436D01*
X467896Y146464D01*
X467978Y146489D01*
X468062Y146510D01*
X468146Y146527D01*
X468231Y146541D01*
X468317Y146550D01*
X468403Y146556D01*
X468489Y146558D01*
X470408Y146558D01*
X476109Y137922D02*
X478028Y137922D01*
X476109Y137922D02*
X476023Y137924D01*
X475937Y137930D01*
X475851Y137939D01*
X475766Y137953D01*
X475682Y137970D01*
X475598Y137991D01*
X475516Y138016D01*
X475435Y138044D01*
X475355Y138076D01*
X475276Y138112D01*
X475200Y138151D01*
X475125Y138194D01*
X475052Y138239D01*
X474981Y138288D01*
X474913Y138341D01*
X474846Y138396D01*
X474783Y138454D01*
X474722Y138515D01*
X474664Y138578D01*
X474609Y138645D01*
X474556Y138713D01*
X474507Y138784D01*
X474462Y138857D01*
X474419Y138932D01*
X474380Y139008D01*
X474344Y139087D01*
X474312Y139167D01*
X474284Y139248D01*
X474259Y139330D01*
X474238Y139414D01*
X474221Y139498D01*
X474207Y139583D01*
X474198Y139669D01*
X474192Y139755D01*
X474190Y139841D01*
X474190Y144639D01*
X474192Y144725D01*
X474198Y144811D01*
X474207Y144897D01*
X474221Y144982D01*
X474238Y145066D01*
X474259Y145150D01*
X474284Y145232D01*
X474312Y145313D01*
X474344Y145393D01*
X474380Y145472D01*
X474419Y145548D01*
X474462Y145623D01*
X474507Y145696D01*
X474556Y145767D01*
X474609Y145835D01*
X474664Y145902D01*
X474722Y145965D01*
X474783Y146026D01*
X474846Y146084D01*
X474913Y146139D01*
X474981Y146191D01*
X475052Y146241D01*
X475125Y146286D01*
X475200Y146329D01*
X475276Y146368D01*
X475355Y146404D01*
X475435Y146436D01*
X475516Y146464D01*
X475598Y146489D01*
X475682Y146510D01*
X475766Y146527D01*
X475851Y146541D01*
X475937Y146550D01*
X476023Y146556D01*
X476109Y146558D01*
X478028Y146558D01*
X439928Y35729D02*
X448564Y29972D01*
X448564Y35729D02*
X439928Y29972D01*
X439928Y41385D02*
X448564Y41385D01*
X439928Y38986D02*
X439928Y43784D01*
X439928Y49919D02*
X448564Y47041D01*
X448564Y52798D02*
X439928Y49919D01*
X446405Y52078D02*
X446405Y47760D01*
X448564Y56995D02*
X439928Y56995D01*
X448564Y56995D02*
X448564Y60833D01*
X442087Y69387D02*
X441995Y69385D01*
X441904Y69379D01*
X441813Y69370D01*
X441722Y69356D01*
X441632Y69339D01*
X441543Y69317D01*
X441455Y69292D01*
X441368Y69264D01*
X441282Y69231D01*
X441198Y69195D01*
X441115Y69156D01*
X441034Y69113D01*
X440955Y69066D01*
X440878Y69017D01*
X440803Y68964D01*
X440731Y68908D01*
X440661Y68849D01*
X440593Y68787D01*
X440528Y68722D01*
X440466Y68654D01*
X440407Y68584D01*
X440351Y68512D01*
X440298Y68437D01*
X440249Y68360D01*
X440202Y68281D01*
X440159Y68200D01*
X440120Y68117D01*
X440084Y68033D01*
X440051Y67947D01*
X440023Y67860D01*
X439998Y67772D01*
X439976Y67683D01*
X439959Y67593D01*
X439945Y67502D01*
X439936Y67411D01*
X439930Y67320D01*
X439928Y67228D01*
X439930Y67125D01*
X439936Y67023D01*
X439945Y66921D01*
X439958Y66819D01*
X439975Y66718D01*
X439996Y66617D01*
X440020Y66518D01*
X440049Y66419D01*
X440080Y66322D01*
X440116Y66225D01*
X440154Y66130D01*
X440197Y66037D01*
X440243Y65945D01*
X440292Y65855D01*
X440344Y65767D01*
X440400Y65680D01*
X440459Y65596D01*
X440520Y65515D01*
X440585Y65435D01*
X440653Y65358D01*
X440724Y65283D01*
X440797Y65212D01*
X440873Y65143D01*
X440951Y65076D01*
X441032Y65013D01*
X441115Y64953D01*
X441200Y64896D01*
X441287Y64842D01*
X441377Y64791D01*
X441468Y64744D01*
X441560Y64700D01*
X441655Y64659D01*
X441750Y64622D01*
X441847Y64589D01*
X443766Y68667D02*
X443700Y68734D01*
X443631Y68798D01*
X443560Y68859D01*
X443486Y68917D01*
X443410Y68972D01*
X443332Y69024D01*
X443252Y69073D01*
X443170Y69119D01*
X443086Y69161D01*
X443000Y69200D01*
X442913Y69235D01*
X442825Y69266D01*
X442735Y69294D01*
X442645Y69319D01*
X442553Y69340D01*
X442461Y69357D01*
X442368Y69370D01*
X442275Y69379D01*
X442181Y69385D01*
X442087Y69387D01*
X443766Y68667D02*
X448564Y64589D01*
X448564Y69387D01*
D11*
X26670Y114300D02*
X26670Y152400D01*
X483870Y24130D02*
X483870Y1270D01*
X506730Y50800D02*
X457200Y50800D01*
X506730Y24130D02*
X506730Y1270D01*
X506730Y127000D02*
X485140Y127000D01*
X209550Y116840D02*
X209550Y60960D01*
X138938Y60960D02*
X138938Y116840D01*
X26670Y153670D02*
X26670Y175260D01*
X1270Y176530D02*
X1270Y153670D01*
D10*
X233821Y112522D02*
X235740Y112522D01*
X233821Y112522D02*
X233735Y112524D01*
X233649Y112530D01*
X233563Y112539D01*
X233478Y112553D01*
X233394Y112570D01*
X233310Y112591D01*
X233228Y112616D01*
X233147Y112644D01*
X233067Y112676D01*
X232988Y112712D01*
X232912Y112751D01*
X232837Y112794D01*
X232764Y112839D01*
X232693Y112888D01*
X232625Y112941D01*
X232558Y112996D01*
X232495Y113054D01*
X232434Y113115D01*
X232376Y113178D01*
X232321Y113245D01*
X232268Y113313D01*
X232219Y113384D01*
X232174Y113457D01*
X232131Y113532D01*
X232092Y113608D01*
X232056Y113687D01*
X232024Y113767D01*
X231996Y113848D01*
X231971Y113930D01*
X231950Y114014D01*
X231933Y114098D01*
X231919Y114183D01*
X231910Y114269D01*
X231904Y114355D01*
X231902Y114441D01*
X231902Y119239D01*
X231904Y119325D01*
X231910Y119411D01*
X231919Y119497D01*
X231933Y119582D01*
X231950Y119666D01*
X231971Y119750D01*
X231996Y119832D01*
X232024Y119913D01*
X232056Y119993D01*
X232092Y120072D01*
X232131Y120148D01*
X232174Y120223D01*
X232219Y120296D01*
X232268Y120367D01*
X232321Y120435D01*
X232376Y120502D01*
X232434Y120565D01*
X232495Y120626D01*
X232558Y120684D01*
X232625Y120739D01*
X232693Y120791D01*
X232764Y120841D01*
X232837Y120886D01*
X232912Y120929D01*
X232988Y120968D01*
X233067Y121004D01*
X233147Y121036D01*
X233228Y121064D01*
X233310Y121089D01*
X233394Y121110D01*
X233478Y121127D01*
X233563Y121141D01*
X233649Y121150D01*
X233735Y121156D01*
X233821Y121158D01*
X235740Y121158D01*
X239865Y121158D02*
X239865Y112522D01*
X239865Y117320D02*
X244663Y117320D01*
X244663Y121158D02*
X244663Y112522D01*
X249314Y112522D02*
X252192Y112522D01*
X252278Y112524D01*
X252364Y112530D01*
X252450Y112539D01*
X252535Y112553D01*
X252619Y112570D01*
X252703Y112591D01*
X252785Y112616D01*
X252866Y112644D01*
X252946Y112676D01*
X253025Y112712D01*
X253101Y112751D01*
X253176Y112794D01*
X253249Y112839D01*
X253320Y112889D01*
X253388Y112941D01*
X253455Y112996D01*
X253518Y113054D01*
X253579Y113115D01*
X253637Y113178D01*
X253692Y113245D01*
X253745Y113313D01*
X253794Y113384D01*
X253839Y113457D01*
X253882Y113532D01*
X253921Y113608D01*
X253957Y113687D01*
X253989Y113767D01*
X254017Y113848D01*
X254042Y113931D01*
X254063Y114014D01*
X254080Y114098D01*
X254094Y114183D01*
X254103Y114269D01*
X254109Y114355D01*
X254111Y114441D01*
X254111Y115401D01*
X254109Y115487D01*
X254103Y115573D01*
X254094Y115659D01*
X254080Y115744D01*
X254063Y115828D01*
X254042Y115912D01*
X254017Y115994D01*
X253989Y116075D01*
X253957Y116155D01*
X253921Y116234D01*
X253882Y116310D01*
X253839Y116385D01*
X253794Y116458D01*
X253745Y116529D01*
X253692Y116597D01*
X253637Y116664D01*
X253579Y116727D01*
X253518Y116788D01*
X253455Y116846D01*
X253388Y116901D01*
X253320Y116954D01*
X253249Y117003D01*
X253176Y117048D01*
X253101Y117091D01*
X253025Y117130D01*
X252946Y117166D01*
X252866Y117198D01*
X252785Y117226D01*
X252703Y117251D01*
X252619Y117272D01*
X252535Y117289D01*
X252450Y117303D01*
X252364Y117312D01*
X252278Y117318D01*
X252192Y117320D01*
X249314Y117320D01*
X249314Y121158D01*
X254111Y121158D01*
X258458Y112522D02*
X261336Y112522D01*
X261422Y112524D01*
X261508Y112530D01*
X261594Y112539D01*
X261679Y112553D01*
X261763Y112570D01*
X261847Y112591D01*
X261929Y112616D01*
X262010Y112644D01*
X262090Y112676D01*
X262169Y112712D01*
X262245Y112751D01*
X262320Y112794D01*
X262393Y112839D01*
X262464Y112889D01*
X262532Y112941D01*
X262599Y112996D01*
X262662Y113054D01*
X262723Y113115D01*
X262781Y113178D01*
X262836Y113245D01*
X262889Y113313D01*
X262938Y113384D01*
X262983Y113457D01*
X263026Y113532D01*
X263065Y113608D01*
X263101Y113687D01*
X263133Y113767D01*
X263161Y113848D01*
X263186Y113931D01*
X263207Y114014D01*
X263224Y114098D01*
X263238Y114183D01*
X263247Y114269D01*
X263253Y114355D01*
X263255Y114441D01*
X263255Y115401D01*
X263253Y115487D01*
X263247Y115573D01*
X263238Y115659D01*
X263224Y115744D01*
X263207Y115828D01*
X263186Y115912D01*
X263161Y115994D01*
X263133Y116075D01*
X263101Y116155D01*
X263065Y116234D01*
X263026Y116310D01*
X262983Y116385D01*
X262938Y116458D01*
X262889Y116529D01*
X262836Y116597D01*
X262781Y116664D01*
X262723Y116727D01*
X262662Y116788D01*
X262599Y116846D01*
X262532Y116901D01*
X262464Y116954D01*
X262393Y117003D01*
X262320Y117048D01*
X262245Y117091D01*
X262169Y117130D01*
X262090Y117166D01*
X262010Y117198D01*
X261929Y117226D01*
X261847Y117251D01*
X261763Y117272D01*
X261679Y117289D01*
X261594Y117303D01*
X261508Y117312D01*
X261422Y117318D01*
X261336Y117320D01*
X258458Y117320D01*
X258458Y121158D01*
X263255Y121158D01*
X267122Y112522D02*
X272879Y121158D01*
X267122Y121158D02*
X272879Y112522D01*
X291285Y111562D02*
X292724Y111562D01*
X291285Y111562D02*
X291285Y122118D01*
X292724Y122118D01*
X296752Y117320D02*
X299151Y117320D01*
X299248Y117318D01*
X299344Y117312D01*
X299440Y117303D01*
X299536Y117289D01*
X299631Y117272D01*
X299725Y117250D01*
X299818Y117225D01*
X299911Y117197D01*
X300002Y117164D01*
X300091Y117128D01*
X300179Y117088D01*
X300266Y117045D01*
X300351Y116999D01*
X300433Y116949D01*
X300514Y116895D01*
X300592Y116839D01*
X300668Y116779D01*
X300742Y116717D01*
X300813Y116651D01*
X300881Y116583D01*
X300947Y116512D01*
X301009Y116438D01*
X301069Y116362D01*
X301125Y116284D01*
X301179Y116203D01*
X301229Y116120D01*
X301275Y116036D01*
X301318Y115949D01*
X301358Y115861D01*
X301394Y115772D01*
X301427Y115681D01*
X301455Y115588D01*
X301480Y115495D01*
X301502Y115401D01*
X301519Y115306D01*
X301533Y115210D01*
X301542Y115114D01*
X301548Y115018D01*
X301550Y114921D01*
X301548Y114824D01*
X301542Y114728D01*
X301533Y114632D01*
X301519Y114536D01*
X301502Y114441D01*
X301480Y114347D01*
X301455Y114254D01*
X301427Y114161D01*
X301394Y114070D01*
X301358Y113981D01*
X301318Y113893D01*
X301275Y113806D01*
X301229Y113721D01*
X301179Y113639D01*
X301125Y113558D01*
X301069Y113480D01*
X301009Y113404D01*
X300947Y113330D01*
X300881Y113259D01*
X300813Y113191D01*
X300742Y113125D01*
X300668Y113063D01*
X300592Y113003D01*
X300514Y112947D01*
X300433Y112893D01*
X300351Y112843D01*
X300266Y112797D01*
X300179Y112754D01*
X300091Y112714D01*
X300002Y112678D01*
X299911Y112645D01*
X299818Y112617D01*
X299725Y112592D01*
X299631Y112570D01*
X299536Y112553D01*
X299440Y112539D01*
X299344Y112530D01*
X299248Y112524D01*
X299151Y112522D01*
X296752Y112522D01*
X296752Y121158D01*
X299151Y121158D01*
X299237Y121156D01*
X299323Y121150D01*
X299409Y121141D01*
X299494Y121127D01*
X299578Y121110D01*
X299662Y121089D01*
X299744Y121064D01*
X299825Y121036D01*
X299905Y121004D01*
X299984Y120968D01*
X300060Y120929D01*
X300135Y120886D01*
X300208Y120841D01*
X300279Y120792D01*
X300347Y120739D01*
X300414Y120684D01*
X300477Y120626D01*
X300538Y120565D01*
X300596Y120502D01*
X300651Y120435D01*
X300704Y120367D01*
X300753Y120296D01*
X300798Y120223D01*
X300841Y120148D01*
X300880Y120072D01*
X300916Y119993D01*
X300948Y119913D01*
X300976Y119832D01*
X301001Y119750D01*
X301022Y119666D01*
X301039Y119582D01*
X301053Y119497D01*
X301062Y119411D01*
X301068Y119325D01*
X301070Y119239D01*
X301068Y119153D01*
X301062Y119067D01*
X301053Y118981D01*
X301039Y118896D01*
X301022Y118812D01*
X301001Y118728D01*
X300976Y118646D01*
X300948Y118565D01*
X300916Y118485D01*
X300880Y118406D01*
X300841Y118330D01*
X300798Y118255D01*
X300753Y118182D01*
X300704Y118111D01*
X300651Y118043D01*
X300596Y117976D01*
X300538Y117913D01*
X300477Y117852D01*
X300414Y117794D01*
X300347Y117739D01*
X300279Y117686D01*
X300208Y117637D01*
X300135Y117592D01*
X300060Y117549D01*
X299984Y117510D01*
X299905Y117474D01*
X299825Y117442D01*
X299744Y117414D01*
X299662Y117389D01*
X299578Y117368D01*
X299494Y117351D01*
X299409Y117337D01*
X299323Y117328D01*
X299237Y117322D01*
X299151Y117320D01*
X304917Y112522D02*
X307796Y121158D01*
X310674Y112522D01*
X309955Y114681D02*
X305637Y114681D01*
X317114Y112522D02*
X317200Y112524D01*
X317286Y112530D01*
X317372Y112539D01*
X317457Y112553D01*
X317541Y112570D01*
X317625Y112591D01*
X317707Y112616D01*
X317788Y112644D01*
X317868Y112676D01*
X317947Y112712D01*
X318023Y112751D01*
X318098Y112794D01*
X318171Y112839D01*
X318242Y112889D01*
X318310Y112941D01*
X318377Y112996D01*
X318440Y113054D01*
X318501Y113115D01*
X318559Y113178D01*
X318614Y113245D01*
X318667Y113313D01*
X318716Y113384D01*
X318761Y113457D01*
X318804Y113532D01*
X318843Y113608D01*
X318879Y113687D01*
X318911Y113767D01*
X318939Y113848D01*
X318964Y113930D01*
X318985Y114014D01*
X319002Y114098D01*
X319016Y114183D01*
X319025Y114269D01*
X319031Y114355D01*
X319033Y114441D01*
X317114Y112522D02*
X316991Y112524D01*
X316868Y112529D01*
X316745Y112539D01*
X316623Y112552D01*
X316501Y112569D01*
X316379Y112589D01*
X316259Y112613D01*
X316139Y112641D01*
X316020Y112672D01*
X315902Y112707D01*
X315785Y112746D01*
X315669Y112788D01*
X315555Y112834D01*
X315442Y112883D01*
X315331Y112935D01*
X315221Y112991D01*
X315113Y113050D01*
X315007Y113113D01*
X314902Y113178D01*
X314800Y113247D01*
X314700Y113319D01*
X314603Y113394D01*
X314507Y113471D01*
X314414Y113552D01*
X314323Y113635D01*
X314235Y113721D01*
X314476Y119239D02*
X314478Y119325D01*
X314484Y119411D01*
X314493Y119497D01*
X314507Y119582D01*
X314524Y119666D01*
X314545Y119750D01*
X314570Y119832D01*
X314598Y119913D01*
X314630Y119993D01*
X314666Y120072D01*
X314705Y120148D01*
X314748Y120223D01*
X314793Y120296D01*
X314842Y120367D01*
X314895Y120435D01*
X314950Y120502D01*
X315008Y120565D01*
X315069Y120626D01*
X315132Y120684D01*
X315199Y120739D01*
X315267Y120792D01*
X315338Y120841D01*
X315411Y120886D01*
X315486Y120929D01*
X315562Y120968D01*
X315641Y121004D01*
X315721Y121036D01*
X315802Y121064D01*
X315884Y121089D01*
X315968Y121110D01*
X316052Y121127D01*
X316137Y121141D01*
X316223Y121150D01*
X316309Y121156D01*
X316395Y121158D01*
X316511Y121156D01*
X316626Y121151D01*
X316742Y121141D01*
X316857Y121128D01*
X316971Y121112D01*
X317085Y121091D01*
X317199Y121067D01*
X317311Y121039D01*
X317422Y121008D01*
X317533Y120973D01*
X317642Y120935D01*
X317750Y120893D01*
X317856Y120848D01*
X317962Y120799D01*
X318065Y120747D01*
X318167Y120692D01*
X318266Y120633D01*
X318364Y120571D01*
X318460Y120506D01*
X318554Y120438D01*
X315435Y117560D02*
X315361Y117606D01*
X315288Y117656D01*
X315218Y117709D01*
X315150Y117765D01*
X315085Y117824D01*
X315022Y117886D01*
X314963Y117951D01*
X314906Y118018D01*
X314852Y118088D01*
X314802Y118160D01*
X314755Y118234D01*
X314711Y118310D01*
X314671Y118389D01*
X314635Y118469D01*
X314602Y118550D01*
X314573Y118633D01*
X314547Y118718D01*
X314525Y118803D01*
X314508Y118889D01*
X314494Y118976D01*
X314484Y119063D01*
X314478Y119151D01*
X314476Y119239D01*
X318075Y116120D02*
X318149Y116074D01*
X318222Y116024D01*
X318292Y115971D01*
X318360Y115915D01*
X318425Y115856D01*
X318488Y115794D01*
X318547Y115729D01*
X318604Y115662D01*
X318658Y115592D01*
X318708Y115520D01*
X318755Y115446D01*
X318799Y115370D01*
X318839Y115291D01*
X318875Y115211D01*
X318908Y115130D01*
X318937Y115047D01*
X318963Y114962D01*
X318985Y114877D01*
X319002Y114791D01*
X319016Y114704D01*
X319026Y114617D01*
X319032Y114529D01*
X319034Y114441D01*
X318074Y116120D02*
X315435Y117560D01*
X323645Y121158D02*
X323645Y112522D01*
X322686Y112522D02*
X324605Y112522D01*
X324605Y121158D02*
X322686Y121158D01*
X330442Y112522D02*
X332361Y112522D01*
X330442Y112522D02*
X330356Y112524D01*
X330270Y112530D01*
X330184Y112539D01*
X330099Y112553D01*
X330015Y112570D01*
X329931Y112591D01*
X329849Y112616D01*
X329768Y112644D01*
X329688Y112676D01*
X329609Y112712D01*
X329533Y112751D01*
X329458Y112794D01*
X329385Y112839D01*
X329314Y112888D01*
X329246Y112941D01*
X329179Y112996D01*
X329116Y113054D01*
X329055Y113115D01*
X328997Y113178D01*
X328942Y113245D01*
X328889Y113313D01*
X328840Y113384D01*
X328795Y113457D01*
X328752Y113532D01*
X328713Y113608D01*
X328677Y113687D01*
X328645Y113767D01*
X328617Y113848D01*
X328592Y113930D01*
X328571Y114014D01*
X328554Y114098D01*
X328540Y114183D01*
X328531Y114269D01*
X328525Y114355D01*
X328523Y114441D01*
X328523Y119239D01*
X328525Y119325D01*
X328531Y119411D01*
X328540Y119497D01*
X328554Y119582D01*
X328571Y119666D01*
X328592Y119750D01*
X328617Y119832D01*
X328645Y119913D01*
X328677Y119993D01*
X328713Y120072D01*
X328752Y120148D01*
X328795Y120223D01*
X328840Y120296D01*
X328889Y120367D01*
X328942Y120435D01*
X328997Y120502D01*
X329055Y120565D01*
X329116Y120626D01*
X329179Y120684D01*
X329246Y120739D01*
X329314Y120791D01*
X329385Y120841D01*
X329458Y120886D01*
X329533Y120929D01*
X329609Y120968D01*
X329688Y121004D01*
X329768Y121036D01*
X329849Y121064D01*
X329931Y121089D01*
X330015Y121110D01*
X330099Y121127D01*
X330184Y121141D01*
X330270Y121150D01*
X330356Y121156D01*
X330442Y121158D01*
X332361Y121158D01*
X336311Y115880D02*
X342068Y115880D01*
X346545Y112522D02*
X349423Y112522D01*
X349509Y112524D01*
X349595Y112530D01*
X349681Y112539D01*
X349766Y112553D01*
X349850Y112570D01*
X349934Y112591D01*
X350016Y112616D01*
X350097Y112644D01*
X350177Y112676D01*
X350256Y112712D01*
X350332Y112751D01*
X350407Y112794D01*
X350480Y112839D01*
X350551Y112889D01*
X350619Y112941D01*
X350686Y112996D01*
X350749Y113054D01*
X350810Y113115D01*
X350868Y113178D01*
X350923Y113245D01*
X350976Y113313D01*
X351025Y113384D01*
X351070Y113457D01*
X351113Y113532D01*
X351152Y113608D01*
X351188Y113687D01*
X351220Y113767D01*
X351248Y113848D01*
X351273Y113931D01*
X351294Y114014D01*
X351311Y114098D01*
X351325Y114183D01*
X351334Y114269D01*
X351340Y114355D01*
X351342Y114441D01*
X351342Y115401D01*
X351340Y115487D01*
X351334Y115573D01*
X351325Y115659D01*
X351311Y115744D01*
X351294Y115828D01*
X351273Y115912D01*
X351248Y115994D01*
X351220Y116075D01*
X351188Y116155D01*
X351152Y116234D01*
X351113Y116310D01*
X351070Y116385D01*
X351025Y116458D01*
X350976Y116529D01*
X350923Y116597D01*
X350868Y116664D01*
X350810Y116727D01*
X350749Y116788D01*
X350686Y116846D01*
X350619Y116901D01*
X350551Y116954D01*
X350480Y117003D01*
X350407Y117048D01*
X350332Y117091D01*
X350256Y117130D01*
X350177Y117166D01*
X350097Y117198D01*
X350016Y117226D01*
X349934Y117251D01*
X349850Y117272D01*
X349766Y117289D01*
X349681Y117303D01*
X349595Y117312D01*
X349509Y117318D01*
X349423Y117320D01*
X346545Y117320D01*
X346545Y121158D01*
X351342Y121158D01*
X358327Y121158D02*
X358419Y121156D01*
X358510Y121150D01*
X358601Y121141D01*
X358692Y121127D01*
X358782Y121110D01*
X358871Y121088D01*
X358959Y121063D01*
X359046Y121035D01*
X359132Y121002D01*
X359216Y120966D01*
X359299Y120927D01*
X359380Y120884D01*
X359459Y120837D01*
X359536Y120788D01*
X359611Y120735D01*
X359683Y120679D01*
X359753Y120620D01*
X359821Y120558D01*
X359886Y120493D01*
X359948Y120425D01*
X360007Y120355D01*
X360063Y120283D01*
X360116Y120208D01*
X360165Y120131D01*
X360212Y120052D01*
X360255Y119971D01*
X360294Y119888D01*
X360330Y119804D01*
X360363Y119718D01*
X360391Y119631D01*
X360416Y119543D01*
X360438Y119454D01*
X360455Y119364D01*
X360469Y119273D01*
X360478Y119182D01*
X360484Y119091D01*
X360486Y118999D01*
X358327Y121158D02*
X358224Y121156D01*
X358122Y121150D01*
X358020Y121141D01*
X357918Y121128D01*
X357817Y121111D01*
X357716Y121090D01*
X357617Y121066D01*
X357518Y121037D01*
X357421Y121006D01*
X357324Y120970D01*
X357229Y120932D01*
X357136Y120889D01*
X357044Y120843D01*
X356954Y120794D01*
X356866Y120742D01*
X356779Y120686D01*
X356695Y120627D01*
X356614Y120566D01*
X356534Y120501D01*
X356457Y120433D01*
X356382Y120362D01*
X356311Y120289D01*
X356242Y120213D01*
X356175Y120135D01*
X356112Y120054D01*
X356052Y119971D01*
X355995Y119886D01*
X355941Y119799D01*
X355890Y119709D01*
X355843Y119618D01*
X355799Y119526D01*
X355758Y119431D01*
X355721Y119336D01*
X355688Y119239D01*
X359766Y117320D02*
X359833Y117386D01*
X359897Y117455D01*
X359958Y117526D01*
X360016Y117600D01*
X360071Y117676D01*
X360123Y117754D01*
X360172Y117834D01*
X360218Y117916D01*
X360260Y118000D01*
X360299Y118086D01*
X360334Y118173D01*
X360365Y118261D01*
X360393Y118351D01*
X360418Y118441D01*
X360439Y118533D01*
X360456Y118625D01*
X360469Y118718D01*
X360478Y118811D01*
X360484Y118905D01*
X360486Y118999D01*
X359767Y117320D02*
X355689Y112522D01*
X360486Y112522D01*
X364015Y122118D02*
X365454Y122118D01*
X365454Y111562D01*
X364015Y111562D01*
X159515Y76773D02*
X157480Y74738D01*
X159515Y76773D02*
X159574Y76835D01*
X159631Y76900D01*
X159685Y76967D01*
X159735Y77037D01*
X159783Y77109D01*
X159827Y77183D01*
X159868Y77259D01*
X159905Y77336D01*
X159939Y77416D01*
X159969Y77496D01*
X159996Y77578D01*
X160019Y77661D01*
X160038Y77745D01*
X160053Y77830D01*
X160065Y77915D01*
X160073Y78001D01*
X160077Y78087D01*
X160077Y78173D01*
X160073Y78259D01*
X160065Y78345D01*
X160053Y78430D01*
X160038Y78515D01*
X160019Y78599D01*
X159996Y78682D01*
X159969Y78764D01*
X159939Y78844D01*
X159905Y78924D01*
X159868Y79001D01*
X159827Y79077D01*
X159783Y79151D01*
X159735Y79223D01*
X159685Y79293D01*
X159631Y79360D01*
X159574Y79425D01*
X159515Y79487D01*
X158837Y80166D01*
X158775Y80225D01*
X158710Y80282D01*
X158643Y80336D01*
X158573Y80386D01*
X158501Y80434D01*
X158427Y80478D01*
X158351Y80519D01*
X158274Y80556D01*
X158194Y80590D01*
X158114Y80620D01*
X158032Y80647D01*
X157949Y80670D01*
X157865Y80689D01*
X157780Y80704D01*
X157695Y80716D01*
X157609Y80724D01*
X157523Y80728D01*
X157437Y80728D01*
X157351Y80724D01*
X157265Y80716D01*
X157180Y80704D01*
X157095Y80689D01*
X157011Y80670D01*
X156928Y80647D01*
X156846Y80620D01*
X156766Y80590D01*
X156686Y80556D01*
X156609Y80519D01*
X156533Y80478D01*
X156459Y80434D01*
X156387Y80386D01*
X156317Y80336D01*
X156250Y80282D01*
X156185Y80225D01*
X156123Y80166D01*
X154087Y78130D01*
X151373Y80844D01*
X154766Y84237D01*
X163946Y81203D02*
X165981Y83239D01*
X166040Y83301D01*
X166097Y83366D01*
X166151Y83433D01*
X166201Y83503D01*
X166249Y83575D01*
X166293Y83649D01*
X166334Y83725D01*
X166371Y83802D01*
X166405Y83882D01*
X166435Y83962D01*
X166462Y84044D01*
X166485Y84127D01*
X166504Y84211D01*
X166519Y84296D01*
X166531Y84381D01*
X166539Y84467D01*
X166543Y84553D01*
X166543Y84639D01*
X166539Y84725D01*
X166531Y84811D01*
X166519Y84896D01*
X166504Y84981D01*
X166485Y85065D01*
X166462Y85148D01*
X166435Y85230D01*
X166405Y85310D01*
X166371Y85390D01*
X166334Y85467D01*
X166293Y85543D01*
X166249Y85617D01*
X166201Y85689D01*
X166151Y85759D01*
X166097Y85826D01*
X166040Y85891D01*
X165981Y85953D01*
X165303Y86631D01*
X165241Y86690D01*
X165176Y86747D01*
X165109Y86801D01*
X165039Y86851D01*
X164967Y86899D01*
X164893Y86943D01*
X164817Y86984D01*
X164740Y87021D01*
X164660Y87055D01*
X164580Y87085D01*
X164498Y87112D01*
X164415Y87135D01*
X164331Y87154D01*
X164246Y87169D01*
X164161Y87181D01*
X164075Y87189D01*
X163989Y87193D01*
X163903Y87193D01*
X163817Y87189D01*
X163731Y87181D01*
X163646Y87169D01*
X163561Y87154D01*
X163477Y87135D01*
X163394Y87112D01*
X163312Y87085D01*
X163232Y87055D01*
X163152Y87021D01*
X163075Y86984D01*
X162999Y86943D01*
X162925Y86899D01*
X162853Y86851D01*
X162783Y86801D01*
X162716Y86747D01*
X162651Y86690D01*
X162589Y86631D01*
X160553Y84596D01*
X157839Y87310D01*
X161232Y90702D01*
X166170Y95642D02*
X166237Y95705D01*
X166305Y95766D01*
X166377Y95823D01*
X166450Y95878D01*
X166526Y95929D01*
X166604Y95977D01*
X166684Y96022D01*
X166766Y96063D01*
X166850Y96101D01*
X166935Y96135D01*
X167021Y96165D01*
X167109Y96192D01*
X167197Y96215D01*
X167287Y96235D01*
X167377Y96250D01*
X167468Y96262D01*
X167560Y96270D01*
X167651Y96274D01*
X167743Y96274D01*
X167834Y96270D01*
X167926Y96262D01*
X168017Y96250D01*
X168107Y96235D01*
X168197Y96215D01*
X168285Y96192D01*
X168373Y96165D01*
X168459Y96135D01*
X168544Y96101D01*
X168628Y96063D01*
X168710Y96022D01*
X168790Y95977D01*
X168868Y95929D01*
X168944Y95878D01*
X169017Y95823D01*
X169089Y95766D01*
X169157Y95705D01*
X169224Y95642D01*
X166171Y95642D02*
X166099Y95568D01*
X166031Y95491D01*
X165965Y95412D01*
X165903Y95331D01*
X165843Y95247D01*
X165787Y95162D01*
X165734Y95074D01*
X165684Y94984D01*
X165637Y94893D01*
X165594Y94800D01*
X165554Y94705D01*
X165518Y94609D01*
X165486Y94512D01*
X165457Y94413D01*
X165431Y94314D01*
X165410Y94214D01*
X165392Y94113D01*
X165378Y94011D01*
X165367Y93909D01*
X165361Y93807D01*
X165358Y93704D01*
X165359Y93601D01*
X165364Y93499D01*
X165373Y93397D01*
X165385Y93295D01*
X165401Y93193D01*
X165421Y93093D01*
X165444Y92993D01*
X165472Y92894D01*
X165503Y92796D01*
X165537Y92700D01*
X165575Y92604D01*
X165617Y92510D01*
X165662Y92418D01*
X169902Y93946D02*
X169903Y94039D01*
X169899Y94133D01*
X169892Y94227D01*
X169881Y94320D01*
X169866Y94413D01*
X169848Y94505D01*
X169826Y94596D01*
X169800Y94686D01*
X169770Y94775D01*
X169737Y94863D01*
X169700Y94950D01*
X169660Y95035D01*
X169617Y95118D01*
X169570Y95199D01*
X169520Y95279D01*
X169467Y95356D01*
X169410Y95431D01*
X169351Y95504D01*
X169289Y95574D01*
X169224Y95642D01*
X169903Y93945D02*
X170411Y87669D01*
X173804Y91062D01*
X178142Y95400D02*
X172036Y101507D01*
X173732Y103203D02*
X170340Y99810D01*
D12*
X142125Y76525D02*
X142127Y76637D01*
X142133Y76749D01*
X142143Y76861D01*
X142157Y76972D01*
X142174Y77082D01*
X142196Y77192D01*
X142221Y77302D01*
X142251Y77410D01*
X142284Y77517D01*
X142321Y77623D01*
X142361Y77727D01*
X142406Y77830D01*
X142453Y77931D01*
X142505Y78031D01*
X142560Y78129D01*
X142618Y78224D01*
X142680Y78318D01*
X142745Y78409D01*
X142813Y78498D01*
X142884Y78585D01*
X142958Y78669D01*
X143035Y78750D01*
X143115Y78829D01*
X143198Y78904D01*
X143283Y78977D01*
X143371Y79047D01*
X143461Y79113D01*
X143554Y79177D01*
X143648Y79237D01*
X143745Y79293D01*
X143844Y79346D01*
X143944Y79396D01*
X144046Y79442D01*
X144150Y79484D01*
X144255Y79523D01*
X144362Y79558D01*
X144469Y79589D01*
X144578Y79617D01*
X144687Y79640D01*
X144798Y79660D01*
X144909Y79676D01*
X145020Y79688D01*
X145132Y79696D01*
X145244Y79700D01*
X145356Y79700D01*
X145468Y79696D01*
X145580Y79688D01*
X145691Y79676D01*
X145802Y79660D01*
X145913Y79640D01*
X146022Y79617D01*
X146131Y79589D01*
X146238Y79558D01*
X146345Y79523D01*
X146450Y79484D01*
X146554Y79442D01*
X146656Y79396D01*
X146756Y79346D01*
X146855Y79293D01*
X146952Y79237D01*
X147046Y79177D01*
X147139Y79113D01*
X147229Y79047D01*
X147317Y78977D01*
X147402Y78904D01*
X147485Y78829D01*
X147565Y78750D01*
X147642Y78669D01*
X147716Y78585D01*
X147787Y78498D01*
X147855Y78409D01*
X147920Y78318D01*
X147982Y78224D01*
X148040Y78129D01*
X148095Y78031D01*
X148147Y77931D01*
X148194Y77830D01*
X148239Y77727D01*
X148279Y77623D01*
X148316Y77517D01*
X148349Y77410D01*
X148379Y77302D01*
X148404Y77192D01*
X148426Y77082D01*
X148443Y76972D01*
X148457Y76861D01*
X148467Y76749D01*
X148473Y76637D01*
X148475Y76525D01*
X148473Y76413D01*
X148467Y76301D01*
X148457Y76189D01*
X148443Y76078D01*
X148426Y75968D01*
X148404Y75858D01*
X148379Y75748D01*
X148349Y75640D01*
X148316Y75533D01*
X148279Y75427D01*
X148239Y75323D01*
X148194Y75220D01*
X148147Y75119D01*
X148095Y75019D01*
X148040Y74921D01*
X147982Y74826D01*
X147920Y74732D01*
X147855Y74641D01*
X147787Y74552D01*
X147716Y74465D01*
X147642Y74381D01*
X147565Y74300D01*
X147485Y74221D01*
X147402Y74146D01*
X147317Y74073D01*
X147229Y74003D01*
X147139Y73937D01*
X147046Y73873D01*
X146952Y73813D01*
X146855Y73757D01*
X146756Y73704D01*
X146656Y73654D01*
X146554Y73608D01*
X146450Y73566D01*
X146345Y73527D01*
X146238Y73492D01*
X146131Y73461D01*
X146022Y73433D01*
X145913Y73410D01*
X145802Y73390D01*
X145691Y73374D01*
X145580Y73362D01*
X145468Y73354D01*
X145356Y73350D01*
X145244Y73350D01*
X145132Y73354D01*
X145020Y73362D01*
X144909Y73374D01*
X144798Y73390D01*
X144687Y73410D01*
X144578Y73433D01*
X144469Y73461D01*
X144362Y73492D01*
X144255Y73527D01*
X144150Y73566D01*
X144046Y73608D01*
X143944Y73654D01*
X143844Y73704D01*
X143745Y73757D01*
X143648Y73813D01*
X143554Y73873D01*
X143461Y73937D01*
X143371Y74003D01*
X143283Y74073D01*
X143198Y74146D01*
X143115Y74221D01*
X143035Y74300D01*
X142958Y74381D01*
X142884Y74465D01*
X142813Y74552D01*
X142745Y74641D01*
X142680Y74732D01*
X142618Y74826D01*
X142560Y74921D01*
X142505Y75019D01*
X142453Y75119D01*
X142406Y75220D01*
X142361Y75323D01*
X142321Y75427D01*
X142284Y75533D01*
X142251Y75640D01*
X142221Y75748D01*
X142196Y75858D01*
X142174Y75968D01*
X142157Y76078D01*
X142143Y76189D01*
X142133Y76301D01*
X142127Y76413D01*
X142125Y76525D01*
D13*
X483750Y24110D02*
X483750Y153690D01*
X506850Y153690D01*
X506850Y24110D01*
X483750Y24110D01*
D12*
X509651Y37959D02*
X513094Y33655D01*
X509651Y37959D02*
X525145Y37959D01*
X525145Y33655D02*
X525145Y42263D01*
D13*
X26690Y87750D02*
X-1290Y87750D01*
X26690Y87750D02*
X26690Y64650D01*
X-1290Y64650D01*
X-1290Y87750D01*
D10*
X39060Y77639D02*
X39060Y71882D01*
X42418Y82115D02*
X42418Y84994D01*
X42416Y85080D01*
X42410Y85166D01*
X42401Y85252D01*
X42387Y85337D01*
X42370Y85421D01*
X42349Y85505D01*
X42324Y85587D01*
X42296Y85668D01*
X42264Y85748D01*
X42228Y85827D01*
X42189Y85903D01*
X42146Y85978D01*
X42101Y86051D01*
X42052Y86122D01*
X41999Y86190D01*
X41944Y86257D01*
X41886Y86320D01*
X41825Y86381D01*
X41762Y86439D01*
X41695Y86494D01*
X41627Y86547D01*
X41556Y86596D01*
X41483Y86641D01*
X41408Y86684D01*
X41332Y86723D01*
X41253Y86759D01*
X41173Y86791D01*
X41092Y86819D01*
X41010Y86844D01*
X40926Y86865D01*
X40842Y86882D01*
X40757Y86896D01*
X40671Y86905D01*
X40585Y86911D01*
X40499Y86913D01*
X39539Y86913D01*
X39453Y86911D01*
X39367Y86905D01*
X39281Y86896D01*
X39196Y86882D01*
X39112Y86865D01*
X39028Y86844D01*
X38946Y86819D01*
X38865Y86791D01*
X38785Y86759D01*
X38706Y86723D01*
X38630Y86684D01*
X38555Y86641D01*
X38482Y86596D01*
X38411Y86547D01*
X38343Y86494D01*
X38276Y86439D01*
X38213Y86381D01*
X38152Y86320D01*
X38094Y86257D01*
X38039Y86190D01*
X37987Y86122D01*
X37937Y86051D01*
X37892Y85978D01*
X37849Y85903D01*
X37810Y85827D01*
X37774Y85748D01*
X37742Y85668D01*
X37714Y85587D01*
X37689Y85505D01*
X37668Y85421D01*
X37651Y85337D01*
X37637Y85252D01*
X37628Y85166D01*
X37622Y85080D01*
X37620Y84994D01*
X37620Y82115D01*
X33782Y82115D01*
X33782Y86913D01*
X33782Y90780D02*
X42418Y93658D01*
X33782Y96537D01*
X39060Y100533D02*
X39060Y106290D01*
X41938Y103412D02*
X36181Y103412D01*
D13*
X26690Y113150D02*
X-1290Y113150D01*
X26690Y113150D02*
X26690Y90050D01*
X-1290Y90050D01*
X-1290Y113150D01*
X-1290Y24250D02*
X509290Y24250D01*
X509290Y1150D01*
X-1290Y1150D01*
X-1290Y24250D01*
D12*
X12559Y-1651D02*
X8255Y-5094D01*
X12559Y-1651D02*
X12559Y-17145D01*
X8255Y-17145D02*
X16863Y-17145D01*
D13*
X-1290Y153550D02*
X509290Y153550D01*
X-1290Y153550D02*
X-1290Y176650D01*
X509290Y176650D01*
X509290Y153550D01*
D12*
X491137Y191502D02*
X495441Y194945D01*
X495441Y179451D01*
X491137Y179451D02*
X499745Y179451D01*
D10*
X407281Y134239D02*
X407281Y125603D01*
X407281Y134239D02*
X409680Y134239D01*
X409777Y134237D01*
X409873Y134231D01*
X409969Y134222D01*
X410065Y134208D01*
X410160Y134191D01*
X410254Y134169D01*
X410347Y134144D01*
X410440Y134116D01*
X410531Y134083D01*
X410620Y134047D01*
X410708Y134007D01*
X410795Y133964D01*
X410880Y133918D01*
X410962Y133868D01*
X411043Y133814D01*
X411121Y133758D01*
X411197Y133698D01*
X411271Y133636D01*
X411342Y133570D01*
X411410Y133502D01*
X411476Y133431D01*
X411538Y133357D01*
X411598Y133281D01*
X411654Y133203D01*
X411708Y133122D01*
X411758Y133039D01*
X411804Y132955D01*
X411847Y132868D01*
X411887Y132780D01*
X411923Y132691D01*
X411956Y132600D01*
X411984Y132507D01*
X412009Y132414D01*
X412031Y132320D01*
X412048Y132225D01*
X412062Y132129D01*
X412071Y132033D01*
X412077Y131937D01*
X412079Y131840D01*
X412077Y131743D01*
X412071Y131647D01*
X412062Y131551D01*
X412048Y131455D01*
X412031Y131360D01*
X412009Y131266D01*
X411984Y131173D01*
X411956Y131080D01*
X411923Y130989D01*
X411887Y130900D01*
X411847Y130812D01*
X411804Y130725D01*
X411758Y130640D01*
X411708Y130558D01*
X411654Y130477D01*
X411598Y130399D01*
X411538Y130323D01*
X411476Y130249D01*
X411410Y130178D01*
X411342Y130110D01*
X411271Y130044D01*
X411197Y129982D01*
X411121Y129922D01*
X411043Y129866D01*
X410962Y129812D01*
X410880Y129762D01*
X410795Y129716D01*
X410708Y129673D01*
X410620Y129633D01*
X410531Y129597D01*
X410440Y129564D01*
X410347Y129536D01*
X410254Y129511D01*
X410160Y129489D01*
X410065Y129472D01*
X409969Y129458D01*
X409873Y129449D01*
X409777Y129443D01*
X409680Y129441D01*
X407281Y129441D01*
X415925Y125603D02*
X418324Y125603D01*
X418421Y125605D01*
X418517Y125611D01*
X418613Y125620D01*
X418709Y125634D01*
X418804Y125651D01*
X418898Y125673D01*
X418991Y125698D01*
X419084Y125726D01*
X419175Y125759D01*
X419264Y125795D01*
X419352Y125835D01*
X419439Y125878D01*
X419524Y125924D01*
X419606Y125974D01*
X419687Y126028D01*
X419765Y126084D01*
X419841Y126144D01*
X419915Y126206D01*
X419986Y126272D01*
X420054Y126340D01*
X420120Y126411D01*
X420182Y126485D01*
X420242Y126561D01*
X420298Y126639D01*
X420352Y126720D01*
X420402Y126802D01*
X420448Y126887D01*
X420491Y126974D01*
X420531Y127062D01*
X420567Y127151D01*
X420600Y127242D01*
X420628Y127335D01*
X420653Y127428D01*
X420675Y127522D01*
X420692Y127617D01*
X420706Y127713D01*
X420715Y127809D01*
X420721Y127905D01*
X420723Y128002D01*
X420721Y128099D01*
X420715Y128195D01*
X420706Y128291D01*
X420692Y128387D01*
X420675Y128482D01*
X420653Y128576D01*
X420628Y128669D01*
X420600Y128762D01*
X420567Y128853D01*
X420531Y128942D01*
X420491Y129030D01*
X420448Y129117D01*
X420402Y129201D01*
X420352Y129284D01*
X420298Y129365D01*
X420242Y129443D01*
X420182Y129519D01*
X420120Y129593D01*
X420054Y129664D01*
X419986Y129732D01*
X419915Y129798D01*
X419841Y129860D01*
X419765Y129920D01*
X419687Y129976D01*
X419606Y130030D01*
X419524Y130080D01*
X419439Y130126D01*
X419352Y130169D01*
X419264Y130209D01*
X419175Y130245D01*
X419084Y130278D01*
X418991Y130306D01*
X418898Y130331D01*
X418804Y130353D01*
X418709Y130370D01*
X418613Y130384D01*
X418517Y130393D01*
X418421Y130399D01*
X418324Y130401D01*
X418804Y134239D02*
X415925Y134239D01*
X418804Y134239D02*
X418890Y134237D01*
X418976Y134231D01*
X419062Y134222D01*
X419147Y134208D01*
X419231Y134191D01*
X419315Y134170D01*
X419397Y134145D01*
X419478Y134117D01*
X419558Y134085D01*
X419637Y134049D01*
X419713Y134010D01*
X419788Y133967D01*
X419861Y133922D01*
X419932Y133873D01*
X420000Y133820D01*
X420067Y133765D01*
X420130Y133707D01*
X420191Y133646D01*
X420249Y133583D01*
X420304Y133516D01*
X420357Y133448D01*
X420406Y133377D01*
X420451Y133304D01*
X420494Y133229D01*
X420533Y133153D01*
X420569Y133074D01*
X420601Y132994D01*
X420629Y132913D01*
X420654Y132831D01*
X420675Y132747D01*
X420692Y132663D01*
X420706Y132578D01*
X420715Y132492D01*
X420721Y132406D01*
X420723Y132320D01*
X420721Y132234D01*
X420715Y132148D01*
X420706Y132062D01*
X420692Y131977D01*
X420675Y131893D01*
X420654Y131809D01*
X420629Y131727D01*
X420601Y131646D01*
X420569Y131566D01*
X420533Y131487D01*
X420494Y131411D01*
X420451Y131336D01*
X420406Y131263D01*
X420357Y131192D01*
X420304Y131124D01*
X420249Y131057D01*
X420191Y130994D01*
X420130Y130933D01*
X420067Y130875D01*
X420000Y130820D01*
X419932Y130767D01*
X419861Y130718D01*
X419788Y130673D01*
X419713Y130630D01*
X419637Y130591D01*
X419558Y130555D01*
X419478Y130523D01*
X419397Y130495D01*
X419315Y130470D01*
X419231Y130449D01*
X419147Y130432D01*
X419062Y130418D01*
X418976Y130409D01*
X418890Y130403D01*
X418804Y130401D01*
X416885Y130401D01*
X425069Y125603D02*
X427468Y125603D01*
X427565Y125605D01*
X427661Y125611D01*
X427757Y125620D01*
X427853Y125634D01*
X427948Y125651D01*
X428042Y125673D01*
X428135Y125698D01*
X428228Y125726D01*
X428319Y125759D01*
X428408Y125795D01*
X428496Y125835D01*
X428583Y125878D01*
X428668Y125924D01*
X428750Y125974D01*
X428831Y126028D01*
X428909Y126084D01*
X428985Y126144D01*
X429059Y126206D01*
X429130Y126272D01*
X429198Y126340D01*
X429264Y126411D01*
X429326Y126485D01*
X429386Y126561D01*
X429442Y126639D01*
X429496Y126720D01*
X429546Y126802D01*
X429592Y126887D01*
X429635Y126974D01*
X429675Y127062D01*
X429711Y127151D01*
X429744Y127242D01*
X429772Y127335D01*
X429797Y127428D01*
X429819Y127522D01*
X429836Y127617D01*
X429850Y127713D01*
X429859Y127809D01*
X429865Y127905D01*
X429867Y128002D01*
X429865Y128099D01*
X429859Y128195D01*
X429850Y128291D01*
X429836Y128387D01*
X429819Y128482D01*
X429797Y128576D01*
X429772Y128669D01*
X429744Y128762D01*
X429711Y128853D01*
X429675Y128942D01*
X429635Y129030D01*
X429592Y129117D01*
X429546Y129201D01*
X429496Y129284D01*
X429442Y129365D01*
X429386Y129443D01*
X429326Y129519D01*
X429264Y129593D01*
X429198Y129664D01*
X429130Y129732D01*
X429059Y129798D01*
X428985Y129860D01*
X428909Y129920D01*
X428831Y129976D01*
X428750Y130030D01*
X428668Y130080D01*
X428583Y130126D01*
X428496Y130169D01*
X428408Y130209D01*
X428319Y130245D01*
X428228Y130278D01*
X428135Y130306D01*
X428042Y130331D01*
X427948Y130353D01*
X427853Y130370D01*
X427757Y130384D01*
X427661Y130393D01*
X427565Y130399D01*
X427468Y130401D01*
X427948Y134239D02*
X425069Y134239D01*
X427948Y134239D02*
X428034Y134237D01*
X428120Y134231D01*
X428206Y134222D01*
X428291Y134208D01*
X428375Y134191D01*
X428459Y134170D01*
X428541Y134145D01*
X428622Y134117D01*
X428702Y134085D01*
X428781Y134049D01*
X428857Y134010D01*
X428932Y133967D01*
X429005Y133922D01*
X429076Y133873D01*
X429144Y133820D01*
X429211Y133765D01*
X429274Y133707D01*
X429335Y133646D01*
X429393Y133583D01*
X429448Y133516D01*
X429501Y133448D01*
X429550Y133377D01*
X429595Y133304D01*
X429638Y133229D01*
X429677Y133153D01*
X429713Y133074D01*
X429745Y132994D01*
X429773Y132913D01*
X429798Y132831D01*
X429819Y132747D01*
X429836Y132663D01*
X429850Y132578D01*
X429859Y132492D01*
X429865Y132406D01*
X429867Y132320D01*
X429865Y132234D01*
X429859Y132148D01*
X429850Y132062D01*
X429836Y131977D01*
X429819Y131893D01*
X429798Y131809D01*
X429773Y131727D01*
X429745Y131646D01*
X429713Y131566D01*
X429677Y131487D01*
X429638Y131411D01*
X429595Y131336D01*
X429550Y131263D01*
X429501Y131192D01*
X429448Y131124D01*
X429393Y131057D01*
X429335Y130994D01*
X429274Y130933D01*
X429211Y130875D01*
X429144Y130820D01*
X429076Y130767D01*
X429005Y130718D01*
X428932Y130673D01*
X428857Y130630D01*
X428781Y130591D01*
X428702Y130555D01*
X428622Y130523D01*
X428541Y130495D01*
X428459Y130470D01*
X428375Y130449D01*
X428291Y130432D01*
X428206Y130418D01*
X428120Y130409D01*
X428034Y130403D01*
X427948Y130401D01*
X426029Y130401D01*
X76031Y125222D02*
X73152Y133858D01*
X78909Y133858D02*
X76031Y125222D01*
X82776Y125222D02*
X85175Y125222D01*
X85272Y125224D01*
X85368Y125230D01*
X85464Y125239D01*
X85560Y125253D01*
X85655Y125270D01*
X85749Y125292D01*
X85842Y125317D01*
X85935Y125345D01*
X86026Y125378D01*
X86115Y125414D01*
X86203Y125454D01*
X86290Y125497D01*
X86375Y125543D01*
X86457Y125593D01*
X86538Y125647D01*
X86616Y125703D01*
X86692Y125763D01*
X86766Y125825D01*
X86837Y125891D01*
X86905Y125959D01*
X86971Y126030D01*
X87033Y126104D01*
X87093Y126180D01*
X87149Y126258D01*
X87203Y126339D01*
X87253Y126421D01*
X87299Y126506D01*
X87342Y126593D01*
X87382Y126681D01*
X87418Y126770D01*
X87451Y126861D01*
X87479Y126954D01*
X87504Y127047D01*
X87526Y127141D01*
X87543Y127236D01*
X87557Y127332D01*
X87566Y127428D01*
X87572Y127524D01*
X87574Y127621D01*
X87572Y127718D01*
X87566Y127814D01*
X87557Y127910D01*
X87543Y128006D01*
X87526Y128101D01*
X87504Y128195D01*
X87479Y128288D01*
X87451Y128381D01*
X87418Y128472D01*
X87382Y128561D01*
X87342Y128649D01*
X87299Y128736D01*
X87253Y128820D01*
X87203Y128903D01*
X87149Y128984D01*
X87093Y129062D01*
X87033Y129138D01*
X86971Y129212D01*
X86905Y129283D01*
X86837Y129351D01*
X86766Y129417D01*
X86692Y129479D01*
X86616Y129539D01*
X86538Y129595D01*
X86457Y129649D01*
X86375Y129699D01*
X86290Y129745D01*
X86203Y129788D01*
X86115Y129828D01*
X86026Y129864D01*
X85935Y129897D01*
X85842Y129925D01*
X85749Y129950D01*
X85655Y129972D01*
X85560Y129989D01*
X85464Y130003D01*
X85368Y130012D01*
X85272Y130018D01*
X85175Y130020D01*
X85654Y133858D02*
X82776Y133858D01*
X85654Y133858D02*
X85740Y133856D01*
X85826Y133850D01*
X85912Y133841D01*
X85997Y133827D01*
X86081Y133810D01*
X86165Y133789D01*
X86247Y133764D01*
X86328Y133736D01*
X86408Y133704D01*
X86487Y133668D01*
X86563Y133629D01*
X86638Y133586D01*
X86711Y133541D01*
X86782Y133492D01*
X86850Y133439D01*
X86917Y133384D01*
X86980Y133326D01*
X87041Y133265D01*
X87099Y133202D01*
X87154Y133135D01*
X87207Y133067D01*
X87256Y132996D01*
X87301Y132923D01*
X87344Y132848D01*
X87383Y132772D01*
X87419Y132693D01*
X87451Y132613D01*
X87479Y132532D01*
X87504Y132450D01*
X87525Y132366D01*
X87542Y132282D01*
X87556Y132197D01*
X87565Y132111D01*
X87571Y132025D01*
X87573Y131939D01*
X87571Y131853D01*
X87565Y131767D01*
X87556Y131681D01*
X87542Y131596D01*
X87525Y131512D01*
X87504Y131428D01*
X87479Y131346D01*
X87451Y131265D01*
X87419Y131185D01*
X87383Y131106D01*
X87344Y131030D01*
X87301Y130955D01*
X87256Y130882D01*
X87207Y130811D01*
X87154Y130743D01*
X87099Y130676D01*
X87041Y130613D01*
X86980Y130552D01*
X86917Y130494D01*
X86850Y130439D01*
X86782Y130386D01*
X86711Y130337D01*
X86638Y130292D01*
X86563Y130249D01*
X86487Y130210D01*
X86408Y130174D01*
X86328Y130142D01*
X86247Y130114D01*
X86165Y130089D01*
X86081Y130068D01*
X85997Y130051D01*
X85912Y130037D01*
X85826Y130028D01*
X85740Y130022D01*
X85654Y130020D01*
X83735Y130020D01*
X91920Y125222D02*
X94319Y125222D01*
X94416Y125224D01*
X94512Y125230D01*
X94608Y125239D01*
X94704Y125253D01*
X94799Y125270D01*
X94893Y125292D01*
X94986Y125317D01*
X95079Y125345D01*
X95170Y125378D01*
X95259Y125414D01*
X95347Y125454D01*
X95434Y125497D01*
X95519Y125543D01*
X95601Y125593D01*
X95682Y125647D01*
X95760Y125703D01*
X95836Y125763D01*
X95910Y125825D01*
X95981Y125891D01*
X96049Y125959D01*
X96115Y126030D01*
X96177Y126104D01*
X96237Y126180D01*
X96293Y126258D01*
X96347Y126339D01*
X96397Y126421D01*
X96443Y126506D01*
X96486Y126593D01*
X96526Y126681D01*
X96562Y126770D01*
X96595Y126861D01*
X96623Y126954D01*
X96648Y127047D01*
X96670Y127141D01*
X96687Y127236D01*
X96701Y127332D01*
X96710Y127428D01*
X96716Y127524D01*
X96718Y127621D01*
X96716Y127718D01*
X96710Y127814D01*
X96701Y127910D01*
X96687Y128006D01*
X96670Y128101D01*
X96648Y128195D01*
X96623Y128288D01*
X96595Y128381D01*
X96562Y128472D01*
X96526Y128561D01*
X96486Y128649D01*
X96443Y128736D01*
X96397Y128820D01*
X96347Y128903D01*
X96293Y128984D01*
X96237Y129062D01*
X96177Y129138D01*
X96115Y129212D01*
X96049Y129283D01*
X95981Y129351D01*
X95910Y129417D01*
X95836Y129479D01*
X95760Y129539D01*
X95682Y129595D01*
X95601Y129649D01*
X95519Y129699D01*
X95434Y129745D01*
X95347Y129788D01*
X95259Y129828D01*
X95170Y129864D01*
X95079Y129897D01*
X94986Y129925D01*
X94893Y129950D01*
X94799Y129972D01*
X94704Y129989D01*
X94608Y130003D01*
X94512Y130012D01*
X94416Y130018D01*
X94319Y130020D01*
X94798Y133858D02*
X91920Y133858D01*
X94798Y133858D02*
X94884Y133856D01*
X94970Y133850D01*
X95056Y133841D01*
X95141Y133827D01*
X95225Y133810D01*
X95309Y133789D01*
X95391Y133764D01*
X95472Y133736D01*
X95552Y133704D01*
X95631Y133668D01*
X95707Y133629D01*
X95782Y133586D01*
X95855Y133541D01*
X95926Y133492D01*
X95994Y133439D01*
X96061Y133384D01*
X96124Y133326D01*
X96185Y133265D01*
X96243Y133202D01*
X96298Y133135D01*
X96351Y133067D01*
X96400Y132996D01*
X96445Y132923D01*
X96488Y132848D01*
X96527Y132772D01*
X96563Y132693D01*
X96595Y132613D01*
X96623Y132532D01*
X96648Y132450D01*
X96669Y132366D01*
X96686Y132282D01*
X96700Y132197D01*
X96709Y132111D01*
X96715Y132025D01*
X96717Y131939D01*
X96715Y131853D01*
X96709Y131767D01*
X96700Y131681D01*
X96686Y131596D01*
X96669Y131512D01*
X96648Y131428D01*
X96623Y131346D01*
X96595Y131265D01*
X96563Y131185D01*
X96527Y131106D01*
X96488Y131030D01*
X96445Y130955D01*
X96400Y130882D01*
X96351Y130811D01*
X96298Y130743D01*
X96243Y130676D01*
X96185Y130613D01*
X96124Y130552D01*
X96061Y130494D01*
X95994Y130439D01*
X95926Y130386D01*
X95855Y130337D01*
X95782Y130292D01*
X95707Y130249D01*
X95631Y130210D01*
X95552Y130174D01*
X95472Y130142D01*
X95391Y130114D01*
X95309Y130089D01*
X95225Y130068D01*
X95141Y130051D01*
X95056Y130037D01*
X94970Y130028D01*
X94884Y130022D01*
X94798Y130020D01*
X92879Y130020D01*
M02*
